<?xml version="1.0" encoding="utf-8"?>
<!-- Generator: Adobe Illustrator 21.1.0, SVG Export Plug-In . SVG Version: 6.00 Build 0)  -->
<svg version="1.1" id="Layer_2" xmlns="http://www.w3.org/2000/svg" xmlns:xlink="http://www.w3.org/1999/xlink" x="0px" y="0px"
	 viewBox="0 0 10.2 10.2" style="enable-background:new 0 0 10.2 10.2;" xml:space="preserve">
<style type="text/css">
	.st0{fill:#D9534F;}
</style>
<path class="st0" d="M9.7,0.5L9.7,0.5c-0.3-0.3-0.8-0.3-1.1,0L6.5,2.6c-0.8,0.8-2.1,0.8-2.9,0L1.6,0.5c-0.3-0.3-0.8-0.3-1.1,0l0,0
	c-0.3,0.3-0.3,0.8,0,1.1l1.9,1.9c0.9,0.9,0.9,2.4,0,3.3L0.4,8.6c-0.3,0.3-0.3,0.8,0,1.1l0,0c0.3,0.3,0.8,0.3,1.1,0l1.9-1.9
	C4.4,7,5.7,7,6.6,7.8l1.9,1.9c0.3,0.3,0.8,0.3,1.1,0l0,0c0.3-0.3,0.3-0.8,0-1.1L7.8,6.8c-0.9-0.9-0.9-2.4,0-3.3l1.9-1.9
	C10,1.3,10,0.8,9.7,0.5z"/>
</svg>
