<?xml version="1.0" encoding="utf-8"?>
<!-- Generator: Adobe Illustrator 16.0.4, SVG Export Plug-In . SVG Version: 6.00 Build 0)  -->
<!DOCTYPE svg PUBLIC "-//W3C//DTD SVG 1.1//EN" "http://www.w3.org/Graphics/SVG/1.1/DTD/svg11.dtd">
<svg version="1.1" xmlns="http://www.w3.org/2000/svg" xmlns:xlink="http://www.w3.org/1999/xlink" x="0px" y="0px"
	 width="702.564px" height="556.411px" viewBox="0 0 702.564 556.411" enable-background="new 0 0 702.564 556.411"
	 xml:space="preserve">
<g id="Background">
	<path fill="#FFFFFF" d="M531.036,548.648V437.505h48.118v-17.603h-5.411V278.622h31.308l18.975-56.41v-12.257H595.82v-22.615
		h30.257v-9.719c0,0,42.339-5.428,54.063-26.948s24.258-45.771-0.249-81.299c-21.778-25.623-51.276-23.752-51.276-23.752V33.77
		L69.667,34.006v153.846H37.872v99.487h31.795v178.814H8.402v31.282h6.47v51.212H531.036z"/>
</g>
<g id="Shapes">
	<ellipse fill="none" cx="628.615" cy="110.543" rx="66.003" ry="64.92"/>
	<polygon fill="none" points="528.642,230.929 528.642,209.955 624.025,209.955 624.025,222.211 605.051,278.622 573.743,278.622 
		573.504,232.736 	"/>
	<rect x="544.025" y="232.736" fill="none" width="29.82" height="40.706"/>
	<rect x="544.025" y="273.442" fill="none" width="29.718" height="23.481"/>
	<rect x="544.025" y="296.923" fill="none" width="29.718" height="21.321"/>
	<rect x="544.025" y="318.245" fill="none" width="29.718" height="24.319"/>
	<rect x="544.025" y="342.564" fill="none" width="29.718" height="22.052"/>
	<rect x="544.025" y="364.616" fill="none" width="29.718" height="23.59"/>
	<rect x="513.256" y="388.206" fill="none" width="60.487" height="31.697"/>
	<polygon fill="none" points="503.514,380.608 515.173,380.608 515.173,342.917 449.743,342.917 449.743,450.769 108.641,450.769 
		108.641,476.923 146.154,476.923 146.154,525.641 503.514,525.641 	"/>
	<rect x="108.641" y="249.377" fill="none" width="163.58" height="195.369"/>
	<rect x="77.358" y="42.724" fill="none" width="115.385" height="140"/>
	<rect x="227.615" y="42.724" fill="none" width="230.77" height="75.385"/>
	<rect x="210.179" y="161.672" fill="none" width="64.617" height="28.23"/>
	<rect x="163.452" y="212.926" fill="none" width="12.211" height="18.533"/>
	<rect x="210.861" y="212.926" fill="none" width="12.211" height="18.533"/>
	<rect x="260.155" y="212.926" fill="none" width="12.211" height="18.533"/>
	<rect x="470.473" y="212.926" fill="none" width="12.211" height="18.533"/>
	<polyline fill="none" points="320,271.442 299.41,271.442 299.41,251.196 320.705,251.196 320.705,271.442 339.95,271.442 
		339.95,251.196 320.705,251.196 320.705,271.442 	"/>
	<rect x="299.41" y="281.75" fill="none" width="21.295" height="22.821"/>
	<rect x="339.95" y="251.196" fill="none" width="20.486" height="20.246"/>
	<rect x="360.205" y="250.77" fill="none" width="20.924" height="20.672"/>
	<rect x="381.129" y="250.77" fill="none" width="18.533" height="20.672"/>
	<polygon fill="none" points="399.662,250.77 419.764,250.77 419.764,271.442 399.943,271.442 	"/>
	<polygon fill="none" points="419.803,271.173 440.436,271.173 440.436,250.77 419.764,250.77 	"/>
	<rect x="320.705" y="281.75" fill="none" width="19.245" height="22.821"/>
	<rect x="339.773" y="281.75" fill="none" width="21.663" height="22.821"/>
	<polyline fill="none" points="380.949,281.75 361.436,281.75 361.436,304.572 380.949,304.572 380.949,281.75 	"/>
	<polyline fill="none" points="399.662,281.75 381.129,281.75 381.129,304.572 399.662,304.572 399.662,281.75 	"/>
	<polygon fill="none" points="399.573,281.918 419.764,281.918 419.764,304.572 399.662,304.572 	"/>
	<rect x="419.764" y="281.918" fill="none" width="20.672" height="22.653"/>
	<rect x="299.41" y="304.616" fill="none" width="68.213" height="40.302"/>
	<polygon fill="none" points="393.239,356.039 415.051,356.039 415.051,367.16 440.436,367.16 440.436,329.917 393.239,329.917 	"/>
	<rect x="344.625" y="344.969" fill="none" width="22.998" height="21.73"/>
	<rect x="323.139" y="344.969" fill="none" width="21.486" height="22.19"/>
	<rect x="299.41" y="344.917" fill="none" width="23.396" height="22.242"/>
	<rect x="367.623" y="380.608" fill="none" width="34.189" height="56.897"/>
	<polygon fill="none" points="401.812,415.815 440.436,415.815 440.436,394.056 401.538,394.056 	"/>
	<rect x="13.794" y="471.282" fill="none" width="22.782" height="20"/>
	<rect x="69.667" y="488.206" fill="none" width="31.282" height="52.271"/>
	<path fill="none" d="M69.667,287.339c1.025,0,0-98.974,0-98.974H37.872v98.974H69.667z"/>
	<polygon fill="none" points="486.59,164.003 486.59,150.147 452.743,150.147 452.743,191.955 516.078,191.955 516.078,164.003 	"/>
	<polygon fill="none" points="525.305,139.647 471.718,139.647 471.718,90.416 525.564,90.416 	"/>
	<polygon fill="none" points="513.151,90.416 493.256,90.416 493.256,64.229 513.256,64.229 	"/>
	<rect x="493.256" y="34.006" fill="none" width="53.847" height="30.223"/>
	<rect x="468.792" y="246.314" fill="none" width="58.605" height="89.774"/>
</g>
<g id="Major_Lines">
	<polygon fill="#030302" stroke="#030302" stroke-width="3" stroke-miterlimit="10" points="627.615,45.801 627.615,34.006 
		471.718,34.006 471.718,8.292 627.615,8.292 	"/>
	<path fill="none" stroke="#030302" stroke-width="3" stroke-miterlimit="10" d="M621.95,45.801c99.487,0,93.333,130.769,0,130.769"
		/>
	<polyline fill="none" stroke="#030302" stroke-width="3" stroke-miterlimit="10" points="626.077,177.621 626.077,187.339 
		595.82,187.339 595.82,194.493 	"/>
	<rect x="402.487" y="142.21" fill="#030302" width="25.128" height="47.692"/>
	<rect x="274.795" y="42.724" fill="none" stroke="#030302" stroke-miterlimit="10" width="106.154" height="75.385"/>
	<rect x="380.949" y="42.724" fill="none" stroke="#030302" stroke-miterlimit="10" width="77.436" height="75.385"/>
	<rect x="77.358" y="42.724" fill="none" stroke="#030302" stroke-miterlimit="10" width="115.385" height="140"/>
	<rect x="227.615" y="42.724" fill="none" stroke="#030302" stroke-miterlimit="10" width="43.59" height="75.385"/>
	<g>
		<g>
			<line fill="none" stroke="#030302" stroke-miterlimit="10" x1="192.743" y1="42.724" x2="195.743" y2="42.724"/>
			
				<line fill="none" stroke="#030302" stroke-miterlimit="10" stroke-dasharray="4.9538,4.9538" x1="200.697" y1="42.724" x2="218.035" y2="42.724"/>
			<polyline fill="none" stroke="#030302" stroke-miterlimit="10" points="220.512,42.724 223.512,42.724 223.512,45.724 			"/>
			
				<line fill="none" stroke="#030302" stroke-miterlimit="10" stroke-dasharray="5.8009,5.8009" x1="223.512" y1="51.524" x2="223.512" y2="141.439"/>
			<polyline fill="none" stroke="#030302" stroke-miterlimit="10" points="223.512,144.339 223.512,147.339 220.512,147.339 			"/>
			
				<line fill="none" stroke="#030302" stroke-miterlimit="10" stroke-dasharray="4.9538,4.9538" x1="215.559" y1="147.339" x2="198.22" y2="147.339"/>
			<line fill="none" stroke="#030302" stroke-miterlimit="10" x1="195.743" y1="147.339" x2="192.743" y2="147.339"/>
		</g>
	</g>
	<rect x="210.179" y="161.672" fill="none" stroke="#030302" stroke-miterlimit="10" width="21.026" height="28.23"/>
	<rect x="253.77" y="161.672" fill="none" stroke="#030302" stroke-miterlimit="10" width="21.026" height="28.23"/>
	<line fill="none" stroke="#030302" stroke-miterlimit="10" x1="231.205" y1="161.672" x2="253.77" y2="161.672"/>
	<polyline fill="none" stroke="#030302" stroke-miterlimit="10" points="37.872,235.544 54.281,235.544 54.281,271.442 
		70.692,271.442 70.692,287.339 	"/>
	<polyline fill="none" stroke="#030302" stroke-miterlimit="10" points="70.692,271.442 70.692,211.955 132.23,211.955 
		132.23,231.442 115.307,231.442 	"/>
	<line fill="none" stroke="#030302" stroke-miterlimit="10" x1="103.512" y1="211.955" x2="103.512" y2="231.929"/>
	<line fill="none" stroke="#030302" stroke-miterlimit="10" x1="92.231" y1="230.929" x2="70.692" y2="230.929"/>
	<line fill="none" stroke="#030302" stroke-width="2" stroke-miterlimit="10" x1="69.667" y1="188.366" x2="132.23" y2="188.366"/>
	
		<line fill="none" stroke="#030302" stroke-width="2" stroke-miterlimit="10" x1="316.847" y1="211.955" x2="341.975" y2="211.955"/>
	<path fill="none" stroke="#030302" stroke-width="2" stroke-miterlimit="10" d="M328.411,211.955"/>
	
		<line fill="none" stroke="#030302" stroke-width="2" stroke-miterlimit="10" x1="328.411" y1="211.955" x2="328.411" y2="231.929"/>
	
		<line fill="none" stroke="#030302" stroke-width="2" stroke-miterlimit="10" x1="341.975" y1="230.929" x2="316.847" y2="230.929"/>
	
		<line fill="none" stroke="#030302" stroke-width="2" stroke-miterlimit="10" x1="403.488" y1="211.955" x2="428.616" y2="211.955"/>
	<path fill="none" stroke="#030302" stroke-width="2" stroke-miterlimit="10" d="M415.053,211.955"/>
	
		<line fill="none" stroke="#030302" stroke-width="2" stroke-miterlimit="10" x1="415.053" y1="211.955" x2="415.053" y2="231.929"/>
	
		<line fill="none" stroke="#030302" stroke-width="2" stroke-miterlimit="10" x1="428.616" y1="230.929" x2="403.488" y2="230.929"/>
	<polyline fill="none" stroke="#030302" stroke-width="2" stroke-miterlimit="10" points="503.514,231.929 503.514,211.955 
		528.642,211.955 528.642,230.929 	"/>
	<polyline fill="none" stroke="#030302" stroke-width="3" stroke-miterlimit="10" points="515.078,231.929 573.743,231.929 
		573.743,278.622 605.051,278.622 624.025,222.211 624.025,208.877 610.949,208.877 	"/>
	<line fill="none" stroke="#030302" stroke-miterlimit="10" x1="427.127" y1="142.21" x2="427.127" y2="132.446"/>
	<line fill="none" stroke="#030302" stroke-miterlimit="10" x1="402.986" y1="142.283" x2="402.986" y2="132.519"/>
	<rect x="316.847" y="142.21" fill="#030302" width="25.128" height="47.692"/>
	<line fill="none" stroke="#030302" stroke-miterlimit="10" x1="341.486" y1="142.21" x2="341.486" y2="132.446"/>
	<line fill="none" stroke="#030302" stroke-miterlimit="10" x1="317.346" y1="142.283" x2="317.346" y2="132.519"/>
	<polygon fill="none" stroke="#030302" stroke-miterlimit="10" points="516.078,164.003 516.078,191.955 452.743,191.955 
		452.743,150.147 486.59,150.147 486.59,164.003 	"/>
	<polyline fill="none" stroke="#030302" stroke-width="2" stroke-miterlimit="10" points="595.82,205.801 595.82,208.877 
		562.487,208.877 562.487,211.955 562.487,186.057 574.743,186.057 	"/>
	<polyline fill="none" stroke="#030302" stroke-width="2" stroke-miterlimit="10" points="562.487,189.903 523,189.903 
		525.051,189.903 525.051,125.288 525.051,139.647 471.718,139.647 471.718,115.544 515.078,115.544 515.078,124.262 
		515.078,107.852 515.078,115.544 471.718,115.544 471.718,90.416 525.564,90.416 525.564,106.775 	"/>
	<polyline fill="none" stroke="#030302" stroke-miterlimit="10" points="161.741,211.955 169.55,211.955 177.359,211.955 	"/>
	<polyline fill="none" stroke="#030302" stroke-miterlimit="10" points="161.741,212.926 169.55,212.926 177.359,212.926 	"/>
	<polyline fill="none" stroke="#030302" stroke-miterlimit="10" points="161.741,231.459 169.55,231.459 177.359,231.459 	"/>
	<polyline fill="none" stroke="#030302" stroke-miterlimit="10" points="161.741,232.431 169.55,232.431 177.359,232.431 	"/>
	<line fill="none" stroke="#030302" stroke-miterlimit="10" x1="169.55" y1="232.736" x2="169.55" y2="211.955"/>
	<line fill="none" stroke="#030302" stroke-miterlimit="10" x1="175.663" y1="212.926" x2="175.663" y2="231.459"/>
	<line fill="none" stroke="#030302" stroke-miterlimit="10" x1="163.452" y1="212.926" x2="163.452" y2="231.459"/>
	<line fill="none" stroke="#030302" stroke-miterlimit="10" x1="175.488" y1="217.711" x2="163.568" y2="217.711"/>
	<line fill="none" stroke="#030302" stroke-miterlimit="10" x1="175.488" y1="222.613" x2="163.568" y2="222.613"/>
	<line fill="none" stroke="#030302" stroke-miterlimit="10" x1="175.488" y1="226.326" x2="163.568" y2="226.326"/>
	<polyline fill="none" stroke="#030302" stroke-miterlimit="10" points="209.179,211.955 216.988,211.955 224.797,211.955 	"/>
	<polyline fill="none" stroke="#030302" stroke-miterlimit="10" points="209.179,212.926 216.988,212.926 224.797,212.926 	"/>
	<polyline fill="none" stroke="#030302" stroke-miterlimit="10" points="209.179,231.459 216.988,231.459 224.797,231.459 	"/>
	<polyline fill="none" stroke="#030302" stroke-miterlimit="10" points="209.179,232.431 216.988,232.431 224.797,232.431 	"/>
	<line fill="none" stroke="#030302" stroke-miterlimit="10" x1="216.988" y1="232.736" x2="216.988" y2="211.955"/>
	<line fill="none" stroke="#030302" stroke-miterlimit="10" x1="223.101" y1="212.926" x2="223.101" y2="231.459"/>
	<line fill="none" stroke="#030302" stroke-miterlimit="10" x1="210.89" y1="212.926" x2="210.89" y2="231.459"/>
	<line fill="none" stroke="#030302" stroke-miterlimit="10" x1="222.926" y1="217.711" x2="211.006" y2="217.711"/>
	<line fill="none" stroke="#030302" stroke-miterlimit="10" x1="222.926" y1="222.613" x2="211.006" y2="222.613"/>
	<line fill="none" stroke="#030302" stroke-miterlimit="10" x1="222.926" y1="226.326" x2="211.006" y2="226.326"/>
	<polyline fill="none" stroke="#030302" stroke-miterlimit="10" points="258.473,211.955 266.282,211.955 274.091,211.955 	"/>
	<polyline fill="none" stroke="#030302" stroke-miterlimit="10" points="258.473,212.926 266.282,212.926 274.091,212.926 	"/>
	<polyline fill="none" stroke="#030302" stroke-miterlimit="10" points="258.473,231.459 266.282,231.459 274.091,231.459 	"/>
	<polyline fill="none" stroke="#030302" stroke-miterlimit="10" points="258.473,232.431 266.282,232.431 274.091,232.431 	"/>
	<line fill="none" stroke="#030302" stroke-miterlimit="10" x1="266.282" y1="232.736" x2="266.282" y2="211.955"/>
	<line fill="none" stroke="#030302" stroke-miterlimit="10" x1="272.395" y1="212.926" x2="272.395" y2="231.459"/>
	<line fill="none" stroke="#030302" stroke-miterlimit="10" x1="260.184" y1="212.926" x2="260.184" y2="231.459"/>
	<line fill="none" stroke="#030302" stroke-miterlimit="10" x1="272.221" y1="217.711" x2="260.3" y2="217.711"/>
	<line fill="none" stroke="#030302" stroke-miterlimit="10" x1="272.221" y1="222.613" x2="260.3" y2="222.613"/>
	<line fill="none" stroke="#030302" stroke-miterlimit="10" x1="272.221" y1="226.326" x2="260.3" y2="226.326"/>
	<polyline fill="none" stroke="#030302" stroke-miterlimit="10" points="468.792,211.955 476.602,211.955 484.41,211.955 	"/>
	<polyline fill="none" stroke="#030302" stroke-miterlimit="10" points="468.792,212.926 476.602,212.926 484.41,212.926 	"/>
	<polyline fill="none" stroke="#030302" stroke-miterlimit="10" points="468.792,231.459 476.602,231.459 484.41,231.459 	"/>
	<polyline fill="none" stroke="#030302" stroke-miterlimit="10" points="468.792,232.431 476.602,232.431 484.41,232.431 	"/>
	<line fill="none" stroke="#030302" stroke-miterlimit="10" x1="476.602" y1="232.736" x2="476.602" y2="211.955"/>
	<line fill="none" stroke="#030302" stroke-miterlimit="10" x1="482.714" y1="212.926" x2="482.714" y2="231.459"/>
	<line fill="none" stroke="#030302" stroke-miterlimit="10" x1="470.503" y1="212.926" x2="470.503" y2="231.459"/>
	<line fill="none" stroke="#030302" stroke-miterlimit="10" x1="482.539" y1="217.711" x2="470.619" y2="217.711"/>
	<line fill="none" stroke="#030302" stroke-miterlimit="10" x1="482.539" y1="222.613" x2="470.619" y2="222.613"/>
	<line fill="none" stroke="#030302" stroke-miterlimit="10" x1="482.539" y1="226.326" x2="470.619" y2="226.326"/>
	<polygon fill="none" stroke="#030302" stroke-miterlimit="10" points="108.641,292.001 108.641,249.377 272.221,249.377 
		272.221,292.001 272.221,444.747 108.641,444.747 	"/>
	<polyline fill="none" stroke="#030302" stroke-miterlimit="10" points="544.025,243.698 544.025,273.442 573.743,273.442 	"/>
	<line fill="none" stroke="#030302" stroke-miterlimit="10" x1="470.736" y1="53.655" x2="470.736" y2="27.208"/>
	<line fill="none" stroke="#030302" stroke-miterlimit="10" x1="471.245" y1="64.229" x2="471.245" y2="91.408"/>
	<line fill="none" stroke="#030302" stroke-miterlimit="10" x1="493.256" y1="34.006" x2="493.256" y2="90.416"/>
	<line fill="none" stroke="#030302" stroke-miterlimit="10" x1="493.256" y1="64.229" x2="547.103" y2="64.229"/>
	<line fill="none" stroke="#030302" stroke-miterlimit="10" x1="513.256" y1="64.229" x2="513.256" y2="90.416"/>
	<line fill="none" stroke="#030302" stroke-miterlimit="10" x1="573.743" y1="34.006" x2="573.743" y2="71.442"/>
	<path fill="none" stroke="#030302" stroke-width="3" stroke-linecap="round" stroke-linejoin="round" stroke-miterlimit="10" d="
		M581.131,64.229c-5.641,5.675-8.23,10.29-8.23,10.29"/>
	<path fill="none" stroke="#030302" stroke-width="3" stroke-linecap="round" stroke-linejoin="round" stroke-miterlimit="10" d="
		M562.487,101.333c0,0-2.546,11.976,1.047,22.583"/>
	<path fill="none" stroke="#030302" stroke-width="3" stroke-linecap="round" stroke-linejoin="round" stroke-miterlimit="10" d="
		M571.404,144.275c0,0,2.339,7.015,9.727,11.976"/>
	<path fill="none" stroke="#030302" stroke-width="3" stroke-linecap="round" stroke-linejoin="round" stroke-miterlimit="10" d="
		M596.724,167.884c0,0,3.422,3.167,11.463,5.132"/>
	
		<line fill="none" stroke="#030302" stroke-linecap="round" stroke-linejoin="round" stroke-miterlimit="10" x1="606.305" y1="187.339" x2="606.305" y2="174.042"/>
	<line fill="none" stroke="#030302" stroke-miterlimit="10" x1="299.41" y1="313.882" x2="299.41" y2="333.021"/>
	<rect x="468.792" y="246.314" fill="none" stroke="#030302" stroke-miterlimit="10" width="58.605" height="89.774"/>
	<line fill="none" stroke="#030302" stroke-miterlimit="10" x1="514.893" y1="336.088" x2="514.893" y2="246.314"/>
	<polyline fill="none" stroke="#030302" stroke-width="3" stroke-miterlimit="10" points="579.997,418.884 573.743,418.884 
		573.743,278.622 	"/>
	<polyline fill="none" stroke="#030302" stroke-width="3" stroke-miterlimit="10" points="579.154,437.505 531.036,437.505 
		531.036,548.648 14.872,548.648 14.872,497.436 8.402,497.436 8.402,466.154 69.667,466.154 69.667,294.001 69.667,287.339 
		37.872,287.339 37.872,187.852 69.667,187.852 69.667,34.006 471.718,34.006 	"/>
	<polygon fill="none" stroke="#030302" stroke-miterlimit="10" points="373.526,450.769 108.641,450.769 108.641,476.923 
		146.154,476.923 146.154,525.641 373.526,525.641 	"/>
	<polygon fill="none" stroke="#030302" stroke-miterlimit="10" points="378.565,525.641 378.565,450.769 449.743,450.769 
		449.743,342.564 470.736,342.564 470.736,525.641 	"/>
	<polygon fill="none" stroke="#030302" stroke-miterlimit="10" points="476.579,525.641 503.514,525.641 503.514,380.608 
		527.397,380.608 527.397,342.917 476.579,342.917 	"/>
	<polyline fill="none" stroke="#030302" stroke-miterlimit="10" points="119.461,488.206 133.23,488.206 133.23,548.648 	"/>
	<polyline fill="none" stroke="#030302" stroke-miterlimit="10" points="100.948,548.648 100.948,488.206 105.128,488.206 	"/>
	<polyline fill="none" stroke="#030302" stroke-miterlimit="10" points="69.667,548.648 69.667,488.206 84.102,488.206 	"/>
	<polyline fill="none" stroke="#030302" stroke-miterlimit="10" points="14.872,496.436 38.182,496.436 38.182,506.179 	"/>
	<line fill="none" stroke="#030302" stroke-miterlimit="10" x1="14.872" y1="514.872" x2="54.281" y2="514.872"/>
	<polygon fill="#030302" points="14.872,548.648 14.872,532.307 69.667,532.307 69.667,548.641 	"/>
	<polygon points="592.23,265.288 602.455,232.736 588.641,232.736 588.641,265.288 	"/>
	<line stroke="#000000" stroke-linecap="round" stroke-miterlimit="10" x1="602.305" y1="233.215" x2="616.974" y2="238.644"/>
	<line fill="#FFFFFF" stroke="#000000" stroke-miterlimit="10" x1="600.452" y1="235.93" x2="616.189" y2="242.393"/>
	<line fill="#FFFFFF" stroke="#000000" stroke-miterlimit="10" x1="599.556" y1="238.466" x2="615.293" y2="244.929"/>
	<line fill="#FFFFFF" stroke="#000000" stroke-miterlimit="10" x1="598.464" y1="241.104" x2="614.201" y2="247.567"/>
	<line fill="#FFFFFF" stroke="#000000" stroke-miterlimit="10" x1="598.464" y1="243.958" x2="614.201" y2="250.42"/>
	<line fill="#FFFFFF" stroke="#000000" stroke-miterlimit="10" x1="597.614" y1="246.314" x2="613.352" y2="252.777"/>
	<line fill="#FFFFFF" stroke="#000000" stroke-miterlimit="10" x1="575.226" y1="234.661" x2="590.23" y2="234.661"/>
	<line fill="#FFFFFF" stroke="#000000" stroke-miterlimit="10" x1="575.226" y1="238.466" x2="590.23" y2="238.466"/>
	<line fill="#FFFFFF" stroke="#000000" stroke-miterlimit="10" x1="575.226" y1="241.104" x2="590.23" y2="241.104"/>
	<line fill="#FFFFFF" stroke="#000000" stroke-miterlimit="10" x1="575.226" y1="243.222" x2="590.23" y2="243.222"/>
	<line fill="#FFFFFF" stroke="#000000" stroke-miterlimit="10" x1="575.226" y1="245.891" x2="590.23" y2="245.891"/>
	<line fill="#FFFFFF" stroke="#000000" stroke-miterlimit="10" x1="575.226" y1="248.285" x2="590.23" y2="248.285"/>
	<line fill="#FFFFFF" stroke="#000000" stroke-miterlimit="10" x1="575.226" y1="250.77" x2="590.23" y2="250.77"/>
	<line fill="#FFFFFF" stroke="#000000" stroke-miterlimit="10" x1="575.226" y1="253.164" x2="590.23" y2="253.164"/>
	<line fill="#FFFFFF" stroke="#000000" stroke-miterlimit="10" x1="575.226" y1="255.833" x2="590.23" y2="255.833"/>
	<line fill="#FFFFFF" stroke="#000000" stroke-miterlimit="10" x1="575.226" y1="258.24" x2="590.23" y2="258.24"/>
	<line fill="#FFFFFF" stroke="#000000" stroke-miterlimit="10" x1="575.226" y1="260.989" x2="590.23" y2="260.989"/>
	<line fill="#FFFFFF" stroke="#000000" stroke-miterlimit="10" x1="575.226" y1="263.382" x2="590.23" y2="263.382"/>
	<path fill="#FFFFFF" stroke="#000000" stroke-miterlimit="10" d="M38.182,239.447"/>
	<line fill="#FFFFFF" stroke="#000000" stroke-miterlimit="10" x1="54.281" y1="239.447" x2="37.872" y2="239.447"/>
	<line fill="#FFFFFF" stroke="#000000" stroke-miterlimit="10" x1="54.281" y1="242.153" x2="37.872" y2="242.153"/>
	<line fill="#FFFFFF" stroke="#000000" stroke-miterlimit="10" x1="54.281" y1="244.639" x2="37.872" y2="244.639"/>
	<line fill="#FFFFFF" stroke="#000000" stroke-miterlimit="10" x1="54.281" y1="248.077" x2="37.872" y2="248.077"/>
	<polyline fill="#FFFFFF" stroke="#000000" stroke-miterlimit="10" points="54.281,250.71 41.107,250.71 37.872,250.71 	"/>
	<polyline fill="none" stroke="#000000" stroke-miterlimit="10" points="54.282,255.318 47.489,255.318 43.391,255.318 
		43.391,253.721 	"/>
	<polyline fill="none" stroke="#000000" stroke-miterlimit="10" points="40.888,251.136 40.888,253.255 45.597,253.255 
		54.281,253.255 	"/>
	<line stroke="#030302" stroke-miterlimit="10" x1="547.103" y1="64.727" x2="547.103" y2="34.084"/>
	<line stroke="#030302" stroke-miterlimit="10" x1="544.287" y1="64.727" x2="544.287" y2="34.084"/>
	<line stroke="#030302" stroke-miterlimit="10" x1="539.481" y1="64.727" x2="539.481" y2="34.084"/>
	<line stroke="#030302" stroke-miterlimit="10" x1="535.749" y1="64.727" x2="535.749" y2="34.084"/>
	<line stroke="#030302" stroke-miterlimit="10" x1="531.036" y1="64.727" x2="531.036" y2="34.084"/>
	<line stroke="#030302" stroke-miterlimit="10" x1="527.397" y1="64.727" x2="527.397" y2="34.084"/>
	<line stroke="#030302" stroke-miterlimit="10" x1="522.358" y1="64.727" x2="522.358" y2="34.084"/>
	<polyline fill="none" stroke="#030302" stroke-miterlimit="10" points="518.905,34.519 518.905,57.548 522.125,57.548 	"/>
	<polyline fill="none" stroke="#030302" stroke-miterlimit="10" points="515.173,34.519 515.173,50.196 518.578,50.196 	"/>
	<polyline fill="none" stroke="#030302" stroke-miterlimit="10" points="511.41,35.039 511.41,39.471 514.893,39.471 	"/>
	<polyline fill="none" stroke="#030302" stroke-miterlimit="10" points="299.41,281.185 299.41,304.572 440.436,304.572 	"/>
	<polyline fill="none" stroke="#030302" stroke-miterlimit="10" points="440.436,281.185 440.436,304.572 440.436,367.16 
		425.59,367.16 	"/>
	<line fill="none" stroke="#030302" stroke-miterlimit="10" x1="440.436" y1="271.442" x2="440.436" y2="247.189"/>
	<line fill="none" stroke="#030302" stroke-miterlimit="10" x1="299.41" y1="271.442" x2="299.41" y2="247.189"/>
	<polyline fill="none" stroke="#030302" stroke-miterlimit="10" points="313.282,271.442 320.705,271.442 320.705,252.196 	"/>
	<polyline fill="none" stroke="#030302" stroke-miterlimit="10" points="332.527,271.442 339.95,271.442 339.95,251.234 	"/>
	<polyline fill="none" stroke="#030302" stroke-miterlimit="10" points="353.013,271.442 360.436,271.442 360.436,251.215 	"/>
	<polyline fill="none" stroke="#030302" stroke-miterlimit="10" points="373.526,271.442 380.949,271.442 380.949,251.182 	"/>
	<polyline fill="none" stroke="#030302" stroke-miterlimit="10" points="392.239,271.442 399.662,271.442 399.662,251.498 	"/>
	<polyline fill="none" stroke="#030302" stroke-miterlimit="10" points="412.341,271.442 419.764,271.442 419.764,251.395 	"/>
	<line fill="none" stroke="#030302" stroke-miterlimit="10" x1="419.764" y1="271.442" x2="425.59" y2="271.442"/>
	<polyline fill="none" stroke="#030302" stroke-miterlimit="10" points="320.705,304.572 320.705,281.75 313.282,281.75 	"/>
	<polyline fill="none" stroke="#030302" stroke-miterlimit="10" points="339.95,304.572 339.95,281.75 332.527,281.75 	"/>
	<polyline fill="none" stroke="#030302" stroke-miterlimit="10" points="361.436,304.572 361.436,281.75 354.013,281.75 	"/>
	<polyline fill="none" stroke="#030302" stroke-miterlimit="10" points="380.949,304.572 380.949,281.75 373.526,281.75 	"/>
	<polyline fill="none" stroke="#030302" stroke-miterlimit="10" points="399.662,304.572 399.662,281.75 392.239,281.75 	"/>
	<polyline fill="none" stroke="#030302" stroke-miterlimit="10" points="419.764,304.572 419.764,281.75 412.341,281.75 	"/>
	<line fill="none" stroke="#030302" stroke-miterlimit="10" x1="419.764" y1="281.75" x2="425.59" y2="281.75"/>
	<line fill="none" stroke="#030302" stroke-width="2" stroke-miterlimit="10" x1="299.41" y1="250.77" x2="440.436" y2="250.77"/>
	
		<line fill="none" stroke="#030302" stroke-width="2" stroke-miterlimit="10" x1="316.847" y1="251.377" x2="316.847" y2="243.958"/>
	<polyline fill="none" stroke="#030302" stroke-miterlimit="10" points="317.872,245.891 354.013,245.891 354.013,250.42 	"/>
	<rect x="365.395" y="224.789" fill="#030302" width="13.171" height="9.041"/>
	<polyline fill="none" stroke="#030302" stroke-miterlimit="10" points="525.051,154.006 493.256,154.006 493.256,147.339 	"/>
	<rect x="367.623" y="304.572" fill="#030302" width="72.812" height="25.346"/>
	<polyline fill="none" stroke="#030302" stroke-miterlimit="10" points="367.623,329.917 367.623,367.16 367.623,344.917 
		299.41,344.917 299.41,367.16 310.173,367.16 	"/>
	<polyline fill="none" stroke="#030302" stroke-miterlimit="10" points="334.527,367.16 323.139,367.16 323.139,344.917 	"/>
	<polyline fill="none" stroke="#030302" stroke-miterlimit="10" points="358.013,367.16 344.625,367.16 344.625,344.917 	"/>
	<polyline fill="none" stroke="#030302" stroke-miterlimit="10" points="412.341,367.16 415.051,367.16 415.051,356.039 
		422.677,356.039 380.949,356.039 380.949,367.16 385.727,367.16 385.727,361.599 392.239,361.599 392.239,367.16 403.488,367.16 	
		"/>
	<line fill="none" stroke="#030302" stroke-miterlimit="10" x1="393.239" y1="356.039" x2="393.239" y2="324.172"/>
	<polyline fill="none" stroke="#030302" stroke-miterlimit="10" points="392.239,380.608 367.623,380.608 367.623,437.505 
		404.029,437.505 401.812,437.505 401.812,380.608 	"/>
	<polyline fill="none" stroke="#030302" stroke-miterlimit="10" points="401.812,394.056 440.436,394.056 440.436,380.608 
		440.436,437.505 419.764,437.505 	"/>
	<line fill="none" stroke="#030302" stroke-miterlimit="10" x1="401.812" y1="415.815" x2="440.436" y2="415.815"/>
	<line fill="none" stroke="#030302" stroke-miterlimit="10" x1="419.764" y1="416.315" x2="419.764" y2="394.056"/>
	<rect x="69.667" y="540.477" fill="#030302" width="31.282" height="8.171"/>
	<line fill="none" stroke="#030302" stroke-miterlimit="10" x1="85.102" y1="501.307" x2="85.102" y2="532.307"/>
	<line fill="none" stroke="#030302" stroke-miterlimit="10" x1="69.667" y1="504.368" x2="100.948" y2="504.368"/>
	<line fill="none" stroke="#030302" stroke-miterlimit="10" x1="69.667" y1="508.518" x2="100.948" y2="508.518"/>
	<line fill="none" stroke="#030302" stroke-miterlimit="10" x1="69.667" y1="512.951" x2="100.948" y2="512.951"/>
	<line fill="none" stroke="#030302" stroke-miterlimit="10" x1="69.667" y1="517.477" x2="100.948" y2="517.477"/>
	<line fill="none" stroke="#030302" stroke-miterlimit="10" x1="69.667" y1="521.816" x2="100.948" y2="521.816"/>
	<line fill="none" stroke="#030302" stroke-miterlimit="10" x1="69.667" y1="526.249" x2="100.948" y2="526.249"/>
	<line fill="none" stroke="#030302" stroke-miterlimit="10" x1="69.667" y1="530.87" x2="100.948" y2="530.87"/>
	<line fill="none" stroke="#030302" stroke-miterlimit="10" x1="515.173" y1="342.917" x2="515.173" y2="380.608"/>
	<polyline fill="none" stroke="#030302" stroke-miterlimit="10" points="544.025,281.75 544.025,296.923 573.743,296.923 	"/>
	<polyline fill="none" stroke="#030302" stroke-miterlimit="10" points="544.025,308.179 544.025,318.245 573.743,318.245 	"/>
	<polyline fill="none" stroke="#030302" stroke-miterlimit="10" points="544.025,329.917 544.025,342.564 573.743,342.564 	"/>
	<polyline fill="none" stroke="#030302" stroke-miterlimit="10" points="544.025,352.821 544.025,364.616 573.743,364.616 	"/>
	<line fill="none" stroke="#030302" stroke-miterlimit="10" x1="513.256" y1="388.206" x2="572.9" y2="388.206"/>
	<polyline fill="none" stroke="#030302" stroke-miterlimit="10" points="561.612,403.077 513.151,403.077 513.151,418.884 	"/>
	<line fill="none" stroke="#030302" stroke-miterlimit="10" x1="528.402" y1="419.903" x2="573.504" y2="419.903"/>
	<line fill="none" stroke="#030302" stroke-miterlimit="10" x1="557.907" y1="388.206" x2="557.907" y2="419.903"/>
	<line fill="none" stroke="#030302" stroke-miterlimit="10" x1="553.572" y1="388.206" x2="553.572" y2="419.903"/>
	<line fill="none" stroke="#030302" stroke-miterlimit="10" x1="548.778" y1="388.206" x2="548.778" y2="419.903"/>
	<line fill="none" stroke="#030302" stroke-miterlimit="10" x1="545.034" y1="388.206" x2="545.034" y2="419.903"/>
	<line fill="none" stroke="#030302" stroke-miterlimit="10" x1="541.29" y1="388.206" x2="541.29" y2="419.903"/>
	<line fill="none" stroke="#030302" stroke-miterlimit="10" x1="536.824" y1="388.206" x2="536.824" y2="419.903"/>
	<line fill="none" stroke="#030302" stroke-miterlimit="10" x1="532.62" y1="388.206" x2="532.62" y2="419.903"/>
	<line fill="none" stroke="#030302" stroke-miterlimit="10" x1="572.9" y1="419.903" x2="572.9" y2="437.172"/>
	<line fill="none" stroke="#030302" stroke-miterlimit="10" x1="578.663" y1="419.903" x2="578.663" y2="437.172"/>
	<line fill="none" stroke="#000000" stroke-miterlimit="10" x1="544.025" y1="376.923" x2="544.025" y2="388.206"/>
	<rect x="13.794" y="471.282" fill="none" stroke="#000000" stroke-miterlimit="10" width="22.782" height="20"/>
</g>
</svg>
