<?xml version="1.0" encoding="utf-8"?>
<!-- Generator: Adobe Illustrator 16.0.4, SVG Export Plug-In . SVG Version: 6.00 Build 0)  -->
<!DOCTYPE svg PUBLIC "-//W3C//DTD SVG 1.1//EN" "http://www.w3.org/Graphics/SVG/1.1/DTD/svg11.dtd">
<svg version="1.1" id="Layer_1" xmlns="http://www.w3.org/2000/svg" xmlns:xlink="http://www.w3.org/1999/xlink" x="0px" y="0px"
	 width="729.688px" height="567.708px" viewBox="18.542 35.125 729.688 567.708"
	 enable-background="new 18.542 35.125 729.688 567.708" xml:space="preserve">
<g id="Layer_2">
	<path fill="none" d="M607.538,107.398V67.635h56.299V79.43c0,0,38.162-1.352,58.137,37.904
		c19.976,39.256-12.351,76.208-20.356,81.352s-25.309,14.158-42.744,13.21v9.072l-51.334-0.987v-37.117l-7.29-12.64
		C600.248,170.225,589.538,130.515,607.538,107.398z"/>
	<rect x="463.487" y="83.488" fill="none" width="116.924" height="67.692"/>
	<rect x="443.23" y="83.488" fill="none" width="15.18" height="67.692"/>
	<rect x="477.847" y="164.001" fill="none" width="102.564" height="55.685"/>
	<rect x="354.5" y="83.488" fill="none" width="15.654" height="57.436"/>
	<rect x="125.025" y="83.488" fill="none" width="224.616" height="67.692"/>
	<rect x="242.974" y="195.302" fill="none" width="64.617" height="28.23"/>
	<polygon fill="none" points="564.589,580.9 564.589,470.883 603.422,470.84 603.438,451.848 546.041,451.785 546.052,421.205 
		606.538,421.156 607.538,246.584 562.462,246.584 562.462,265.493 454.257,265.493 454.257,246.584 402.462,246.584 
		402.462,308.08 343.562,308.08 343.562,293.529 354.5,293.529 354.5,264.074 103.487,264.074 103.487,520.18 134.256,520.18 
		134.256,580.9 	"/>
	<polygon fill="none" points="354.5,246.584 354.5,308.08 402.462,308.08 402.462,246.435 	"/>
	<rect x="187.23" y="245.435" fill="none" width="9.312" height="18.206"/>
	<rect x="243.449" y="245.435" fill="none" width="9.312" height="18.206"/>
	<rect x="503.958" y="246.435" fill="none" width="9.312" height="18.206"/>
	<rect x="292.426" y="245.435" fill="none" width="4.656" height="18.206"/>
	<rect x="453.933" y="246.435" fill="none" width="4.656" height="18.206"/>
	<polygon fill="none" points="606.538,315.051 636.976,315.051 657.872,257.242 657.872,245.584 606.538,245.584 	"/>
	<polygon fill="none" points="546.052,421.205 606.538,421.205 606.538,452.438 546.041,452.438 	"/>
	<rect x="103.487" y="520.18" fill="none" width="30.77" height="60.722"/>
	<rect x="48.179" y="505.668" fill="none" width="15.859" height="20.665"/>
	<polygon fill="none" points="49.179,580.9 49.179,526.333 64.038,526.333 64.038,501.413 104.216,501.413 104.216,580.9 	"/>
	<rect x="69.667" y="221.481" fill="none" width="33.55" height="99.487"/>
</g>
<g id="Layer_2_1_">
	<path fill="#FFFFFF" d="M102.461,67.635h255.898V55.823h89.486v11.812h215.991V79.43c0,0,57.047,0.849,65.251,65.251
		c-4.296,67.215-70.215,67.215-70.215,67.215v9.072h-30.258v24.616h30.257v11.658l-20.896,58.04h-30.438v137.155h-3.976v18.402
		h-38.974V580.9H48.179v-49.77h-6.125v-29.718h59.821V321.062H70.667v-99.582h31.208L102.461,67.635z"/>
</g>
<g id="Lines">
	<path fill="#FFFFFF" stroke="#000000" stroke-miterlimit="10" d="M70.977,273.076"/>
	<line fill="none" stroke="#000000" stroke-miterlimit="10" x1="606.538" y1="266.089" x2="620.922" y2="266.089"/>
	<line fill="none" stroke="#000000" stroke-miterlimit="10" x1="606.538" y1="270.683" x2="620.922" y2="270.683"/>
	<line fill="none" stroke="#000000" stroke-miterlimit="10" x1="606.538" y1="275.139" x2="620.922" y2="275.139"/>
	<line fill="none" stroke="#000000" stroke-miterlimit="10" x1="606.538" y1="279.282" x2="620.922" y2="279.282"/>
	<line fill="none" stroke="#000000" stroke-miterlimit="10" x1="606.538" y1="284.068" x2="620.922" y2="284.068"/>
	<line fill="none" stroke="#000000" stroke-miterlimit="10" x1="606.538" y1="288.68" x2="620.922" y2="288.68"/>
	<line fill="none" stroke="#000000" stroke-miterlimit="10" x1="606.538" y1="293.466" x2="620.922" y2="293.466"/>
	<line fill="none" stroke="#000000" stroke-miterlimit="10" x1="636.135" y1="266.656" x2="651.816" y2="274.075"/>
	<line fill="none" stroke="#000000" stroke-miterlimit="10" x1="634.316" y1="270.475" x2="649.998" y2="277.894"/>
	<line fill="none" stroke="#000000" stroke-miterlimit="10" x1="633.243" y1="274.547" x2="648.925" y2="281.966"/>
	<line fill="none" stroke="#000000" stroke-miterlimit="10" x1="631.425" y1="278.365" x2="647.106" y2="285.784"/>
	<line fill="none" stroke="#000000" stroke-miterlimit="10" x1="630.135" y1="282.292" x2="645.816" y2="289.711"/>
	<line fill="none" stroke="#000000" stroke-miterlimit="10" x1="628.316" y1="286.11" x2="643.998" y2="293.529"/>
	<line fill="none" stroke="#000000" stroke-miterlimit="10" x1="627.243" y1="290.183" x2="642.925" y2="297.602"/>
	<line fill="none" stroke="#000000" stroke-miterlimit="10" x1="625.425" y1="294.001" x2="641.106" y2="301.42"/>
	<rect x="125.025" y="83.488" fill="none" stroke="#000000" stroke-miterlimit="10" width="224.616" height="67.692"/>
	<rect x="354.5" y="83.488" fill="none" stroke="#000000" stroke-miterlimit="10" width="15.654" height="57.436"/>
	<rect x="443.23" y="83.488" fill="none" stroke="#000000" stroke-miterlimit="10" width="15.18" height="67.692"/>
	<rect x="463.487" y="83.488" fill="none" stroke="#000000" stroke-miterlimit="10" width="116.924" height="67.692"/>
	<rect x="477.847" y="164.001" fill="none" stroke="#000000" stroke-miterlimit="10" width="102.564" height="55.685"/>
	<polyline fill="none" stroke="#030302" stroke-miterlimit="10" points="443.23,308.08 343.562,308.08 343.562,315.282 	"/>
	<polyline fill="none" stroke="#030302" stroke-miterlimit="10" points="343.562,326.541 343.562,400.9 343.562,395.259 
		370.154,395.259 370.154,400.9 370.154,393.208 387.59,393.208 387.59,400.9 407.666,400.9 407.666,393.721 420.486,393.721 
		420.486,400.9 435.77,400.9 	"/>
	<line fill="none" stroke="#030302" stroke-miterlimit="10" x1="402.462" y1="400.9" x2="402.462" y2="308.08"/>
	<line fill="none" stroke="#030302" stroke-miterlimit="10" x1="343.562" y1="369.105" x2="402.462" y2="369.105"/>
	<polyline fill="none" stroke="#030302" stroke-miterlimit="10" points="402.462,389.618 458.41,389.618 447.59,389.618 
		447.59,400.9 443.23,400.9 	"/>
	<polyline fill="none" stroke="#030302" stroke-miterlimit="10" points="454.257,308.08 472.718,308.08 472.718,311.682 	"/>
	<polyline fill="none" stroke="#030302" stroke-miterlimit="10" points="459.41,308.08 459.41,330.877 472.718,330.877 
		472.718,400.9 463.487,400.9 	"/>
	<rect x="402.462" y="336.798" fill="#030302" width="70.256" height="26.923"/>
	<polyline fill="none" stroke="#030302" stroke-miterlimit="10" points="491.256,308.08 485.539,308.08 485.539,469.618 
		534.846,469.618 534.846,421.926 	"/>
	<polyline fill="none" stroke="#030302" stroke-miterlimit="10" points="485.539,447.566 513.91,447.566 513.91,444.49 	"/>
	<polyline fill="none" stroke="#030302" stroke-miterlimit="10" points="513.91,435.259 513.91,407.054 513.91,421.156 
		485.539,421.156 	"/>
	<line fill="none" stroke="#030302" stroke-miterlimit="10" x1="513.91" y1="395.26" x2="485.539" y2="395.26"/>
	<polyline fill="none" stroke="#030302" stroke-miterlimit="10" points="512.91,350.26 512.91,339.361 512.91,342.438 
		485.539,342.438 	"/>
	<polyline fill="none" stroke="#030302" stroke-miterlimit="10" points="512.91,382.438 512.91,363.721 512.91,369.105 
		485.539,369.105 	"/>
	<path fill="none" stroke="#030302" stroke-miterlimit="10" d="M512.91,308.08h-4.294H512.91z"/>
	<line fill="none" stroke="#030302" stroke-miterlimit="10" x1="512.91" y1="330.877" x2="512.91" y2="308.08"/>
	<line fill="none" stroke="#030302" stroke-miterlimit="10" x1="512.91" y1="315.282" x2="485.539" y2="315.282"/>
	<polyline fill="none" stroke="#030302" stroke-miterlimit="10" points="472.718,415.259 472.718,469.618 450.82,469.618 	"/>
	<polyline fill="none" stroke="#030302" stroke-miterlimit="10" points="440.457,469.618 402.462,469.618 402.462,461.413 
		362.327,461.413 362.327,469.618 	"/>
	<polyline fill="none" stroke="#030302" stroke-miterlimit="10" points="352.945,469.618 343.562,469.618 343.562,415.259 
		361.206,415.259 	"/>
	<polyline fill="none" stroke="#030302" stroke-miterlimit="10" points="343.562,442.438 402.462,442.438 402.462,461.413 
		402.462,415.259 385.016,415.259 425.102,415.259 	"/>
	<polyline fill="none" stroke="#030302" stroke-miterlimit="10" points="373.013,442.438 373.013,415.259 368.179,415.259 
		374.77,415.259 	"/>
	<polyline fill="none" stroke="#030302" stroke-miterlimit="10" points="437.59,469.618 437.59,415.259 437.59,428.849 
		472.718,428.849 472.718,449.618 437.59,449.566 	"/>
	<line fill="none" stroke="#030302" stroke-miterlimit="10" x1="454.257" y1="449.591" x2="454.257" y2="428.849"/>
	<polyline fill="none" stroke="#030302" stroke-miterlimit="10" points="546.039,453.721 546.039,421.156 607.538,421.156 	"/>
	<line fill="none" stroke="#030302" stroke-miterlimit="10" x1="562.341" y1="451.441" x2="602.342" y2="451.441"/>
	<line fill="none" stroke="#030302" stroke-miterlimit="10" x1="564.296" y1="437.438" x2="594.77" y2="437.438"/>
	<line fill="none" stroke="#030302" stroke-miterlimit="10" x1="568.077" y1="451.441" x2="568.077" y2="421.156"/>
	<line fill="none" stroke="#030302" stroke-miterlimit="10" x1="571.803" y1="451.441" x2="571.803" y2="421.156"/>
	<line fill="none" stroke="#030302" stroke-miterlimit="10" x1="575.586" y1="451.441" x2="575.586" y2="421.156"/>
	<line fill="none" stroke="#030302" stroke-miterlimit="10" x1="579.532" y1="451.441" x2="579.532" y2="421.156"/>
	<line fill="none" stroke="#030302" stroke-miterlimit="10" x1="583.258" y1="451.441" x2="583.258" y2="421.156"/>
	<line fill="none" stroke="#030302" stroke-miterlimit="10" x1="587.041" y1="451.441" x2="587.041" y2="421.156"/>
	<line fill="none" stroke="#030302" stroke-miterlimit="10" x1="590.823" y1="451.441" x2="590.823" y2="421.156"/>
	<line fill="none" stroke="#030302" stroke-miterlimit="10" x1="594.659" y1="451.441" x2="594.659" y2="421.156"/>
	<polyline fill="none" stroke="#030302" stroke-miterlimit="10" points="564.589,470.438 546.039,470.438 546.039,475.615 	"/>
	<polyline fill="none" stroke="#030302" stroke-miterlimit="10" points="564.589,490.436 541.948,490.436 541.948,496.59 	"/>
	<polyline fill="none" stroke="#030302" stroke-miterlimit="10" points="529.129,496.59 529.129,490.436 343.562,490.436 
		349.642,490.436 349.642,520.18 368.179,520.18 	"/>
	<polyline fill="none" stroke="#030302" stroke-miterlimit="10" points="377.846,520.18 381.949,520.18 381.949,490.436 	"/>
	<polyline fill="none" stroke="#030302" stroke-miterlimit="10" points="330.667,490.436 142.461,490.436 142.461,520.18 	"/>
	<polyline fill="none" stroke="#030302" stroke-miterlimit="10" points="255.795,490.436 255.795,520.18 302.974,520.18 	"/>
	<polyline fill="none" stroke="#030302" stroke-miterlimit="10" points="312.718,520.18 320.41,520.18 320.41,490.436 	"/>
	<polyline fill="none" stroke="#030302" stroke-miterlimit="10" points="320.41,580.9 320.41,532.487 312.718,532.487 	"/>
	<polyline fill="none" stroke="#030302" stroke-miterlimit="10" points="302.974,532.487 293.744,532.487 293.744,540.692 
		281.949,540.692 281.949,532.487 272.718,532.487 	"/>
	<polyline fill="none" stroke="#030302" stroke-miterlimit="10" points="264,532.487 255.795,532.487 255.795,580.9 	"/>
	<line fill="none" stroke="#030302" stroke-miterlimit="10" x1="48.179" y1="530.131" x2="79.897" y2="530.131"/>
	<polyline fill="none" stroke="#030302" stroke-miterlimit="10" points="93.744,530.131 102.461,530.131 102.461,520.18 
		102.461,580.9 	"/>
	<polyline fill="none" stroke="#030302" stroke-miterlimit="10" points="102.461,573 134.256,573 134.256,520.18 	"/>
	<line fill="none" stroke="#030302" stroke-miterlimit="10" x1="118.359" y1="563.77" x2="118.359" y2="536.59"/>
	<line fill="none" stroke="#030302" stroke-miterlimit="10" x1="103.216" y1="537.249" x2="133.501" y2="537.249"/>
	<line fill="none" stroke="#030302" stroke-miterlimit="10" x1="103.216" y1="540.975" x2="133.501" y2="540.975"/>
	<line fill="none" stroke="#030302" stroke-miterlimit="10" x1="103.216" y1="544.758" x2="133.501" y2="544.758"/>
	<line fill="none" stroke="#030302" stroke-miterlimit="10" x1="103.216" y1="548.704" x2="133.501" y2="548.704"/>
	<line fill="none" stroke="#030302" stroke-miterlimit="10" x1="103.216" y1="552.43" x2="133.501" y2="552.43"/>
	<line fill="none" stroke="#030302" stroke-miterlimit="10" x1="103.216" y1="556.213" x2="133.501" y2="556.213"/>
	<line fill="none" stroke="#030302" stroke-miterlimit="10" x1="103.216" y1="559.995" x2="133.501" y2="559.995"/>
	<line fill="none" stroke="#030302" stroke-miterlimit="10" x1="103.216" y1="563.831" x2="133.501" y2="563.831"/>
	<polyline fill="none" stroke="#030302" stroke-miterlimit="10" points="330.667,456.077 330.667,469.618 293.744,469.618 
		293.744,415.259 330.667,415.259 330.667,428.849 	"/>
	<path fill="none" stroke="#030302" stroke-miterlimit="10" d="M330.667,400.9v-64.104V400.9z"/>
	<line fill="none" stroke="#030302" stroke-miterlimit="10" x1="293.744" y1="382.438" x2="293.744" y2="336.798"/>
	<polyline fill="none" stroke="#030302" stroke-miterlimit="10" points="293.744,326.541 293.744,308.08 330.667,308.08 
		330.667,311.398 	"/>
	<line fill="none" stroke="#030302" stroke-miterlimit="10" x1="293.744" y1="323.77" x2="330.667" y2="323.77"/>
	<line fill="none" stroke="#030302" stroke-miterlimit="10" x1="293.744" y1="377.615" x2="330.667" y2="377.615"/>
	<line fill="none" stroke="#030302" stroke-miterlimit="10" x1="330.667" y1="388.85" x2="320.41" y2="388.85"/>
	<polyline fill="none" stroke="#030302" stroke-miterlimit="10" points="330.667,400.9 293.744,400.9 293.744,392.486 	"/>
	<polyline fill="none" stroke="#030302" stroke-miterlimit="10" points="330.667,438.336 330.667,446.028 330.667,442.438 
		225.025,442.438 225.025,469.618 227.077,469.618 	"/>
	<polyline fill="none" stroke="#030302" stroke-miterlimit="10" points="242.974,442.438 242.974,469.618 237.333,469.618 
		248.103,469.618 	"/>
	<polyline fill="none" stroke="#030302" stroke-miterlimit="10" points="276.025,442.438 276.025,469.618 270.385,469.618 
		281.154,469.618 	"/>
	<line fill="none" stroke="#030302" stroke-miterlimit="10" x1="259.897" y1="469.618" x2="259.897" y2="442.438"/>
	<polyline fill="none" stroke="#030302" stroke-miterlimit="10" points="211.692,469.618 213.744,469.618 213.744,415.259 
		213.744,442.438 142.461,442.438 142.461,469.618 155.282,469.618 	"/>
	<polyline fill="none" stroke="#030302" stroke-miterlimit="10" points="167.204,442.438 167.204,469.618 164.023,469.618 
		167.204,469.618 170.667,469.618 	"/>
	<polyline fill="none" stroke="#030302" stroke-miterlimit="10" points="178.103,469.618 201.949,469.618 190.025,469.618 
		190.025,442.438 	"/>
	<polyline fill="none" stroke="#030302" stroke-miterlimit="10" points="131.64,467.359 127.025,467.359 127.025,476.59 	"/>
	<polyline fill="none" stroke="#030302" stroke-miterlimit="10" points="102.461,490.436 127.025,490.436 127.025,486.333 
		127.025,500.692 	"/>
	<polyline fill="none" stroke="#030302" stroke-miterlimit="10" points="127.025,509.923 103.487,509.923 103.487,501.413 	"/>
	<rect x="48.179" y="505.668" fill="none" stroke="#030302" stroke-miterlimit="10" width="15.859" height="20.665"/>
	<polyline fill="none" stroke="#030302" stroke-miterlimit="10" points="170.667,308.08 164.023,308.08 164.023,400.9 
		213.744,400.9 213.744,366.846 	"/>
	<polyline fill="none" stroke="#030302" stroke-miterlimit="10" points="213.744,357.104 213.744,323.77 164.023,323.77 	"/>
	<polyline fill="none" stroke="#030302" stroke-miterlimit="10" points="213.744,308.08 213.744,323.77 184,323.77 184,308.08 
		201.949,308.08 	"/>
	<line fill="none" stroke="#030302" stroke-miterlimit="10" x1="188.883" y1="323.77" x2="188.883" y2="350.26"/>
	<line fill="none" stroke="#030302" stroke-miterlimit="10" x1="164.023" y1="352.49" x2="178.103" y2="352.49"/>
	<line fill="none" stroke="#030302" stroke-miterlimit="10" x1="164.023" y1="369.105" x2="178.103" y2="369.105"/>
	<line fill="none" stroke="#030302" stroke-miterlimit="10" x1="188.883" y1="400.9" x2="188.883" y2="373.08"/>
	<polyline fill="none" stroke="#030302" stroke-width="3" stroke-miterlimit="10" points="658.872,211.25 658.872,220.969 
		628.615,220.969 628.615,228.122 628.615,245.584 658.872,245.584 658.872,257.242 637.976,315.282 607.538,315.282 
		607.538,345.436 607.538,452.438 612.281,452.438 603.562,452.438 603.562,471.413 611.256,471.413 564.589,471.413 564.589,580.9 
		48.179,580.9 48.179,531.131 42.054,531.131 42.054,501.413 102.461,501.413 102.461,346.631 102.461,320.969 70.667,320.969 
		70.667,221.481 102.461,221.481 102.461,67.635 358.359,67.635 358.359,55.823 381.949,55.823 424.513,55.823 447.846,55.823 
		447.846,67.635 663.837,67.635 663.837,79.43 	"/>
	<rect x="435.77" y="174.84" fill="#030302" width="23.642" height="47.692"/>
	<rect x="242.974" y="195.302" fill="none" stroke="#030302" stroke-miterlimit="10" width="21.026" height="28.23"/>
	<rect x="286.564" y="195.302" fill="none" stroke="#030302" stroke-miterlimit="10" width="21.026" height="28.23"/>
	<line fill="none" stroke="#030302" stroke-miterlimit="10" x1="264" y1="195.302" x2="286.564" y2="195.302"/>
	<path fill="none" stroke="#030302" stroke-miterlimit="10" d="M167.204,261.987"/>
	<path fill="none" stroke="#030302" stroke-width="2" stroke-miterlimit="10" d="M361.206,245.584"/>
	<rect x="349.642" y="174.84" fill="#030302" width="25.128" height="47.692"/>
	<line fill="none" stroke="#030302" stroke-miterlimit="10" x1="103.487" y1="264.074" x2="129.64" y2="264.074"/>
	<polyline fill="none" stroke="#030302" stroke-width="3" stroke-miterlimit="10" points="307.59,223.532 307.59,184.302 
		307.59,166.076 243.948,166.076 243.948,195.302 	"/>
	<polyline fill="none" stroke="#030302" stroke-width="2" stroke-miterlimit="10" points="446.489,68.141 434.425,68.141 
		434.425,72.606 	"/>
	<line fill="none" stroke="#030302" stroke-width="2" stroke-miterlimit="10" x1="482.462" y1="68.148" x2="482.462" y2="75.852"/>
	<path fill="none" stroke="#030302" stroke-width="3" stroke-miterlimit="10" d="M624.521,90.649
		c-12.24,8.348-21.543,20.683-26.039,35.137"/>
	<path fill="none" stroke="#030302" stroke-width="3" stroke-miterlimit="10" d="M645.435,209.845
		c5.258,1.339,10.765,2.051,16.438,2.051c36.657,0,66.373-29.716,66.373-66.373c0-36.657-29.716-66.373-66.373-66.373
		c-4.335,0-8.572,0.415-12.676,1.208"/>
	<path fill="none" stroke="#030302" stroke-width="3" stroke-miterlimit="10" d="M600.248,170.225
		c5.205,12.975,14.391,23.925,26.045,31.339"/>
	<polygon fill="#030302" points="620.922,265.089 636.68,265.089 625.282,297.851 620.922,297.851 	"/>
	<polyline fill="none" stroke="#030302" stroke-miterlimit="10" points="607.538,185.305 607.538,219.982 628.615,219.982 	"/>
	<line fill="none" stroke="#030302" stroke-miterlimit="10" x1="607.538" y1="67.635" x2="607.538" y2="107.398"/>
	<polyline fill="none" stroke="#030302" stroke-miterlimit="10" points="402.462,293.466 402.462,246.584 435.77,246.584 
		435.77,255.047 435.77,246.584 454.257,246.584 454.257,264.723 	"/>
	<polyline fill="none" stroke="#030302" stroke-miterlimit="10" points="413.744,295.298 444,295.298 444,265.089 472.718,265.089 
		472.718,294.001 454.257,294.001 	"/>
	<polyline fill="none" stroke="#030302" stroke-miterlimit="10" points="485.539,265.089 562.462,265.089 545.539,265.089 
		545.539,259.615 545.539,265.089 562.462,265.089 562.462,246.584 545.513,246.584 545.513,250.667 545.513,246.584 
		606.538,246.584 606.538,315.282 	"/>
	<polyline fill="none" stroke="#030302" stroke-miterlimit="10" points="370.154,246.019 370.154,294.001 358.872,294.001 
		358.872,288.68 362.206,288.68 362.206,257.242 354.5,257.242 	"/>
	<line fill="none" stroke="#000000" stroke-miterlimit="10" x1="354.5" y1="264.074" x2="354.5" y2="294.001"/>
	<line fill="none" stroke="#000000" stroke-miterlimit="10" x1="293.744" y1="264.074" x2="293.744" y2="294.001"/>
	<path fill="none" stroke="#030302" stroke-width="3" stroke-miterlimit="10" d="M147.59,221.481"/>
	<polyline fill="none" stroke="#030302" stroke-width="3" stroke-miterlimit="10" points="128.64,253.231 128.64,246.019 
		102.487,246.019 102.487,320.969 	"/>
	<polyline fill="none" stroke="#030302" stroke-miterlimit="10" points="138.872,252.718 138.872,246.584 165.023,246.584 
		165.023,264.074 167.204,264.074 354.5,264.074 354.5,246.584 387.59,246.584 	"/>
	<polyline fill="none" stroke="#030302" stroke-miterlimit="10" points="164.023,264.074 138.872,264.074 138.872,293.466 
		164.023,293.466 	"/>
	<polyline fill="none" stroke="#030302" stroke-miterlimit="10" points="488.615,265.089 488.615,293.893 498.468,293.893 	"/>
	<polyline fill="none" stroke="#030302" stroke-miterlimit="10" points="508.616,265.089 508.616,293.893 519.205,293.893 	"/>
	<polyline fill="none" stroke="#030302" stroke-miterlimit="10" points="533.231,265.493 533.231,293.466 546.039,293.466 	"/>
	<line fill="none" stroke="#030302" stroke-miterlimit="10" x1="555.795" y1="294.001" x2="555.795" y2="265.493"/>
	<polyline fill="none" stroke="#030302" stroke-miterlimit="10" points="605.743,275.604 568.077,275.604 568.077,290.183 	"/>
	<polyline fill="none" stroke="#000000" stroke-miterlimit="10" points="605.743,305.071 568.077,305.071 568.077,301.42 
		568.077,321.377 	"/>
	<polyline fill="none" stroke="#000000" stroke-miterlimit="10" points="568.077,330.877 568.077,336.798 607.538,336.798 	"/>
	<polyline fill="none" stroke="#030302" stroke-miterlimit="10" points="454.257,246.584 461.674,246.584 458.194,246.584 
		458.194,264.79 	"/>
	<line fill="none" stroke="#030302" stroke-miterlimit="10" x1="454.462" y1="251.171" x2="458.06" y2="251.171"/>
	<line fill="none" stroke="#030302" stroke-miterlimit="10" x1="454.462" y1="255.855" x2="458.06" y2="255.855"/>
	<line fill="none" stroke="#030302" stroke-miterlimit="10" x1="454.462" y1="260.519" x2="458.06" y2="260.519"/>
	<g>
		<line fill="none" stroke="#030302" stroke-miterlimit="10" x1="184" y1="245.435" x2="199.897" y2="245.435"/>
		<line fill="none" stroke="#030302" stroke-miterlimit="10" x1="184.005" y1="263.939" x2="199.902" y2="263.939"/>
		<line fill="none" stroke="#030302" stroke-miterlimit="10" x1="191.949" y1="245.435" x2="191.949" y2="263.641"/>
		<line fill="none" stroke="#030302" stroke-miterlimit="10" x1="196.543" y1="245.435" x2="196.543" y2="263.641"/>
		<line fill="none" stroke="#030302" stroke-miterlimit="10" x1="187.23" y1="245.435" x2="187.23" y2="263.641"/>
		<line fill="none" stroke="#030302" stroke-miterlimit="10" x1="187.364" y1="250.021" x2="196.543" y2="250.021"/>
		<line fill="none" stroke="#030302" stroke-miterlimit="10" x1="187.364" y1="254.706" x2="196.543" y2="254.706"/>
		<line fill="none" stroke="#030302" stroke-miterlimit="10" x1="187.364" y1="259.37" x2="196.543" y2="259.37"/>
	</g>
	<g>
		<line fill="none" stroke="#030302" stroke-miterlimit="10" x1="500.665" y1="246.435" x2="516.562" y2="246.435"/>
		<line fill="none" stroke="#030302" stroke-miterlimit="10" x1="500.67" y1="264.939" x2="516.567" y2="264.939"/>
		<line fill="none" stroke="#030302" stroke-miterlimit="10" x1="508.614" y1="246.435" x2="508.614" y2="264.641"/>
		<line fill="none" stroke="#030302" stroke-miterlimit="10" x1="513.208" y1="246.435" x2="513.208" y2="264.641"/>
		<line fill="none" stroke="#030302" stroke-miterlimit="10" x1="503.896" y1="246.435" x2="503.896" y2="264.641"/>
		<line fill="none" stroke="#030302" stroke-miterlimit="10" x1="504.029" y1="251.021" x2="513.208" y2="251.021"/>
		<line fill="none" stroke="#030302" stroke-miterlimit="10" x1="504.029" y1="255.706" x2="513.208" y2="255.706"/>
		<line fill="none" stroke="#030302" stroke-miterlimit="10" x1="504.029" y1="260.37" x2="513.208" y2="260.37"/>
	</g>
	<line fill="none" stroke="#030302" stroke-miterlimit="10" x1="240.151" y1="245.435" x2="256.049" y2="245.435"/>
	<line fill="none" stroke="#030302" stroke-miterlimit="10" x1="240.156" y1="263.939" x2="256.054" y2="263.939"/>
	<line fill="none" stroke="#030302" stroke-miterlimit="10" x1="248.101" y1="245.435" x2="248.101" y2="263.641"/>
	<line fill="none" stroke="#030302" stroke-miterlimit="10" x1="252.694" y1="245.435" x2="252.694" y2="263.641"/>
	<line fill="none" stroke="#030302" stroke-miterlimit="10" x1="243.382" y1="245.435" x2="243.382" y2="263.641"/>
	<line fill="none" stroke="#030302" stroke-miterlimit="10" x1="243.516" y1="250.021" x2="252.694" y2="250.021"/>
	<line fill="none" stroke="#030302" stroke-miterlimit="10" x1="243.516" y1="254.706" x2="252.694" y2="254.706"/>
	<line fill="none" stroke="#030302" stroke-miterlimit="10" x1="243.516" y1="259.37" x2="252.694" y2="259.37"/>
	<line fill="none" stroke="#030302" stroke-miterlimit="10" x1="289.128" y1="245.435" x2="304.026" y2="245.435"/>
	<line fill="none" stroke="#030302" stroke-miterlimit="10" x1="292.359" y1="245.435" x2="292.359" y2="263.641"/>
	<line fill="none" stroke="#030302" stroke-miterlimit="10" x1="292.493" y1="250.021" x2="297.082" y2="250.021"/>
	<line fill="none" stroke="#030302" stroke-miterlimit="10" x1="292.493" y1="254.706" x2="297.082" y2="254.706"/>
	<line fill="none" stroke="#030302" stroke-miterlimit="10" x1="292.493" y1="259.37" x2="297.077" y2="259.37"/>
	<line fill="none" stroke="#030302" stroke-miterlimit="10" x1="354.5" y1="246.584" x2="343.562" y2="246.584"/>
	<polyline fill="none" stroke="#030302" stroke-miterlimit="10" points="297.077,263.641 297.077,245.435 304.025,245.435 	"/>
	<polyline fill="none" stroke="#030302" stroke-miterlimit="10" points="297.077,255.855 316.564,255.855 316.564,263.641 	"/>
	<line fill="none" stroke="#030302" stroke-miterlimit="10" x1="87.564" y1="306" x2="87.564" y2="264.79"/>
	<line fill="none" stroke="#030302" stroke-miterlimit="10" x1="103.216" y1="303.769" x2="70.977" y2="303.769"/>
	<line fill="none" stroke="#030302" stroke-miterlimit="10" x1="103.216" y1="299.022" x2="70.977" y2="299.022"/>
	<line fill="none" stroke="#030302" stroke-miterlimit="10" x1="103.216" y1="294.001" x2="70.977" y2="294.001"/>
	<line fill="none" stroke="#030302" stroke-miterlimit="10" x1="103.216" y1="288.68" x2="70.977" y2="288.68"/>
	<line fill="none" stroke="#030302" stroke-miterlimit="10" x1="103.216" y1="283.494" x2="70.977" y2="283.494"/>
	<line fill="none" stroke="#030302" stroke-miterlimit="10" x1="103.216" y1="278.747" x2="70.977" y2="278.747"/>
	<line fill="none" stroke="#030302" stroke-miterlimit="10" x1="103.216" y1="273.726" x2="70.977" y2="273.726"/>
	<line fill="none" stroke="#030302" stroke-miterlimit="10" x1="103.216" y1="268.404" x2="70.977" y2="268.404"/>
</g>
</svg>
