<?xml version="1.0" encoding="utf-8"?>
<!-- Generator: Adobe Illustrator 16.0.4, SVG Export Plug-In . SVG Version: 6.00 Build 0)  -->
<!DOCTYPE svg PUBLIC "-//W3C//DTD SVG 1.1//EN" "http://www.w3.org/Graphics/SVG/1.1/DTD/svg11.dtd">
<svg version="1.1" id="Layer_2" xmlns="http://www.w3.org/2000/svg" xmlns:xlink="http://www.w3.org/1999/xlink" x="0px" y="0px"
	 width="792px" height="504px" viewBox="0 0 792 504" style="enable-background:new 0 0 792 504;" xml:space="preserve">
<polygon style="fill:none;stroke:#000000;stroke-width:2;stroke-miterlimit:10;" points="94.429,63 306,63 306,53.665 
	378.333,53.665 378.333,63 555,63 555,73 566,75 577,78 586,83 595,93 604,106 607,126.999 605,143 600,156 589,168 580,175 
	570,179 557,181 552,181 552,190 485,190 485,141 417,141 417,190 264,190 264,141 210,141 210,190 94.429,190 "/>
<polygon style="fill:none;stroke:#000000;stroke-width:2;stroke-miterlimit:10;" points="210,141 210,167.664 264.333,167.997 
	264.333,141 "/>
<rect x="210" y="167.664" style="fill:none;stroke:#000000;stroke-width:2;stroke-miterlimit:10;" width="18" height="22.336"/>
<rect x="245.999" y="167.997" style="fill:none;stroke:#000000;stroke-width:2;stroke-miterlimit:10;" width="18.001" height="22.003"/>
<polygon style="fill:none;stroke:#000000;stroke-width:2;stroke-miterlimit:10;" points="68,190 210,190 210,141 264.333,141 
	264.333,190 417,190 417,141 485,141 485,190 524,190 524,208 551,208 551,218 534,265 509,265 509,380 506.332,380 506.332,393 
	475,393 475,485.334 49.2,485.334 49.2,443.335 45.998,443.335 45.998,419.335 94.429,419.335 94.429,272 67.999,272 "/>
<polyline style="fill:none;stroke:#000000;stroke-width:2;stroke-miterlimit:10;" points="132.333,225.67 145.667,225.67 
	145.667,209 94.429,209 94.429,272 "/>
<line style="fill:none;stroke:#000000;stroke-width:2;stroke-miterlimit:10;" x1="122" y1="209" x2="122" y2="225.67"/>
<line style="fill:none;stroke:#000000;stroke-width:2;stroke-miterlimit:10;" x1="94.429" y1="225.67" x2="112" y2="225.67"/>
<polyline style="fill:none;stroke:#000000;stroke-width:2;stroke-miterlimit:10;" points="283.667,267.334 283.667,285.001 399,285 
	399,267.334 "/>
<polyline style="fill:none;stroke:#000000;stroke-width:2;stroke-miterlimit:10;" points="295.666,267.334 300.999,267.334 
	300.999,285 "/>
<polyline style="fill:none;stroke:#000000;stroke-width:2;stroke-miterlimit:10;" points="334,285 334,267.334 328,267.334 "/>
<polyline style="fill:none;stroke:#000000;stroke-width:2;stroke-miterlimit:10;" points="312.333,267.334 318,267.334 318,285 "/>
<polyline style="fill:none;stroke:#000000;stroke-width:2;stroke-miterlimit:10;" points="344,267.334 350,267.334 350,285 "/>
<polyline style="fill:none;stroke:#000000;stroke-width:2;stroke-miterlimit:10;" points="361,267.334 366.333,267.334 366.333,285 
	"/>
<polyline style="fill:none;stroke:#000000;stroke-width:2;stroke-miterlimit:10;" points="377.333,267.334 383,267.334 388,267.334 
	"/>
<line style="fill:none;stroke:#000000;stroke-width:2;stroke-miterlimit:10;" x1="383" y1="285" x2="383" y2="267.334"/>
<polyline style="fill:none;stroke:#000000;stroke-width:2;stroke-miterlimit:10;" points="283.667,259.667 283.667,242 
	398.668,242.001 398.668,259.667 "/>
<polyline style="fill:none;stroke:#000000;stroke-width:2;stroke-miterlimit:10;" points="295.333,259.667 300.667,259.667 
	300.667,242.001 "/>
<polyline style="fill:none;stroke:#000000;stroke-width:2;stroke-miterlimit:10;" points="333.667,242.001 333.667,259.667 
	327.667,259.667 "/>
<polyline style="fill:none;stroke:#000000;stroke-width:2;stroke-miterlimit:10;" points="312,259.667 317.667,259.667 
	317.667,242.001 "/>
<polyline style="fill:none;stroke:#000000;stroke-width:2;stroke-miterlimit:10;" points="343.667,259.667 349.667,259.667 
	349.667,242.001 "/>
<polyline style="fill:none;stroke:#000000;stroke-width:2;stroke-miterlimit:10;" points="360.667,259.667 366.001,259.667 
	366.001,242.001 "/>
<polyline style="fill:none;stroke:#000000;stroke-width:2;stroke-miterlimit:10;" points="377.001,259.667 382.667,259.667 
	387.667,259.667 "/>
<line style="fill:none;stroke:#000000;stroke-width:2;stroke-miterlimit:10;" x1="382.667" y1="242.001" x2="382.667" y2="259.667"/>
<line style="fill:none;stroke:#000000;stroke-width:2;stroke-miterlimit:10;" x1="283.667" y1="292.67" x2="283.667" y2="308.003"/>
<rect x="341" y="285" style="stroke:#000000;stroke-miterlimit:10;" width="58" height="20"/>
<polyline style="fill:none;stroke:#000000;stroke-miterlimit:10;" points="341,319 283.667,318.67 283.667,336 294,336 "/>
<line style="fill:none;stroke:#000000;stroke-miterlimit:10;" x1="314" y1="336" x2="304" y2="336"/>
<polyline style="fill:none;stroke:#000000;stroke-miterlimit:10;" points="333,336 322,336 322,318 "/>
<polyline style="fill:none;stroke:#000000;stroke-miterlimit:10;" points="341,305 341,336 345,336 345,332 353,332 353,336 
	366,336 "/>
<polyline style="fill:none;stroke:#000000;stroke-miterlimit:10;" points="375,336 380,336 380,327 341,327 "/>
<line style="fill:none;stroke:#000000;stroke-miterlimit:10;" x1="388" y1="327" x2="380" y2="327"/>
<polyline style="fill:none;stroke:#000000;stroke-miterlimit:10;" points="389.667,336.003 399,336.003 399,305 "/>
<polyline style="fill:none;stroke:#000000;stroke-miterlimit:10;" points="359,347 341,347 341,393 370,393 370,347 "/>
<polyline style="fill:none;stroke:#000000;stroke-miterlimit:10;" points="332,347 323,347 323,371 "/>
<polyline style="fill:none;stroke:#000000;stroke-miterlimit:10;" points="294,347 283.667,347 283.667,370.672 341,370.672 "/>
<polyline style="fill:none;stroke:#000000;stroke-miterlimit:10;" points="294,394 283.667,394 283.667,370.672 "/>
<polyline style="fill:none;stroke:#000000;stroke-miterlimit:10;" points="314,394 304,394 304,370 304,347 313,347 "/>
<polyline style="fill:none;stroke:#000000;stroke-miterlimit:10;" points="332,393 323,393 323,371 "/>
<line style="fill:none;stroke:#000000;stroke-miterlimit:10;" x1="399" y1="359" x2="370" y2="359"/>
<polyline style="fill:none;stroke:#000000;stroke-miterlimit:10;" points="370,376 399,376 399,393 384,393 "/>
<line style="fill:none;stroke:#000000;stroke-miterlimit:10;" x1="384.333" y1="358.336" x2="384.333" y2="376.003"/>
<polygon style="fill:none;stroke:#000000;stroke-miterlimit:10;" points="415,307 477.333,307 477.333,346.669 455.666,346.669 
	455.666,393 415,393 "/>
<rect x="344" y="410" style="fill:none;stroke:#000000;stroke-miterlimit:10;" width="111.666" height="61.335"/>
<rect x="171" y="410" style="fill:none;stroke:#000000;stroke-miterlimit:10;" width="170" height="62.002"/>
<polygon style="fill:none;stroke:#000000;stroke-miterlimit:10;" points="141,410 168,410 168,472.335 140.669,472.335 "/>
<polygon style="fill:none;stroke:#000000;stroke-miterlimit:10;" points="116.669,320 154,320 154,395 116.335,395 "/>
<rect x="157" y="320" style="fill:none;stroke:#000000;stroke-miterlimit:10;" width="113" height="75"/>
<rect x="116.4" y="238.561" style="fill:none;stroke:#000000;stroke-miterlimit:10;" width="71.6" height="73.438"/>
<polygon style="fill:none;stroke:#000000;stroke-miterlimit:10;" points="190.667,238.561 251.334,238.561 251.334,311.999 
	191,311.999 "/>
</svg>
