<?xml version="1.0" encoding="utf-8"?>
<!-- Generator: Adobe Illustrator 16.0.4, SVG Export Plug-In . SVG Version: 6.00 Build 0)  -->
<!DOCTYPE svg PUBLIC "-//W3C//DTD SVG 1.1//EN" "http://www.w3.org/Graphics/SVG/1.1/DTD/svg11.dtd">
<svg version="1.1" id="base" xmlns="http://www.w3.org/2000/svg" xmlns:xlink="http://www.w3.org/1999/xlink" x="0px" y="0px"
	 width="570px" height="450px" viewBox="0 0 570 450" style="enable-background:new 0 0 570 450;" xml:space="preserve">
<polygon style="fill:none;stroke:#000000;stroke-width:2;stroke-miterlimit:10;" points="52.431,17.67 264.002,17.67 264.002,8.335 
	336.335,8.335 336.335,17.67 513.002,17.67 513.002,27.67 524.002,29.67 535.002,32.67 544.002,37.67 553.002,47.67 562.002,60.67 
	565.002,81.669 563.002,97.67 558.002,110.67 547.002,122.67 538.002,129.67 528.002,133.67 515.002,135.67 510.002,135.67 
	510.002,144.67 443.002,144.67 443.002,95.67 375.002,95.67 375.002,144.67 222.002,144.67 222.002,95.67 168.002,95.67 
	168.002,144.67 52.431,144.67 "/>
<polygon style="fill:none;stroke:#000000;stroke-width:2;stroke-miterlimit:10;" points="168.002,95.67 168.002,122.334 
	222.334,122.667 222.334,95.67 "/>
<rect x="168.002" y="122.334" style="fill:none;stroke:#000000;stroke-width:2;stroke-miterlimit:10;" width="18" height="22.336"/>
<rect x="204.001" y="122.667" style="fill:none;stroke:#000000;stroke-width:2;stroke-miterlimit:10;" width="18.001" height="22.003"/>
<polygon style="fill:none;stroke:#000000;stroke-width:2;stroke-miterlimit:10;" points="26.002,144.67 168.002,144.67 
	168.002,95.67 222.334,95.67 222.334,144.67 375.002,144.67 375.002,95.67 443.002,95.67 443.002,144.67 482.002,144.67 
	482.002,162.67 509.002,162.67 509.002,172.67 492.002,219.67 467.002,219.67 467.002,334.67 464.334,334.67 464.334,347.67 
	433.002,347.67 433.002,440.004 7.202,440.004 7.202,398.005 4,398.005 4,374.005 52.431,374.005 52.431,226.67 26.001,226.67 "/>
<polyline style="fill:none;stroke:#000000;stroke-width:2;stroke-miterlimit:10;" points="90.335,180.34 103.669,180.34 
	103.669,163.67 52.431,163.67 52.431,226.67 "/>
<line style="fill:none;stroke:#000000;stroke-width:2;stroke-miterlimit:10;" x1="80.002" y1="163.67" x2="80.002" y2="180.34"/>
<line style="fill:none;stroke:#000000;stroke-width:2;stroke-miterlimit:10;" x1="52.431" y1="180.34" x2="70.002" y2="180.34"/>
<polyline style="fill:none;stroke:#000000;stroke-width:2;stroke-miterlimit:10;" points="241.669,222.004 241.669,239.671 
	357.002,239.67 357.002,222.004 "/>
<polyline style="fill:none;stroke:#000000;stroke-width:2;stroke-miterlimit:10;" points="253.668,222.004 259.001,222.004 
	259.001,239.67 "/>
<polyline style="fill:none;stroke:#000000;stroke-width:2;stroke-miterlimit:10;" points="292.002,239.67 292.002,222.004 
	286.002,222.004 "/>
<polyline style="fill:none;stroke:#000000;stroke-width:2;stroke-miterlimit:10;" points="270.334,222.004 276.002,222.004 
	276.002,239.67 "/>
<polyline style="fill:none;stroke:#000000;stroke-width:2;stroke-miterlimit:10;" points="302.002,222.004 308.002,222.004 
	308.002,239.67 "/>
<polyline style="fill:none;stroke:#000000;stroke-width:2;stroke-miterlimit:10;" points="319.002,222.004 324.335,222.004 
	324.335,239.67 "/>
<polyline style="fill:none;stroke:#000000;stroke-width:2;stroke-miterlimit:10;" points="335.335,222.004 341.002,222.004 
	346.002,222.004 "/>
<line style="fill:none;stroke:#000000;stroke-width:2;stroke-miterlimit:10;" x1="341.002" y1="239.67" x2="341.002" y2="222.004"/>
<polyline style="fill:none;stroke:#000000;stroke-width:2;stroke-miterlimit:10;" points="241.669,214.337 241.669,196.67 
	356.67,196.671 356.67,214.337 "/>
<polyline style="fill:none;stroke:#000000;stroke-width:2;stroke-miterlimit:10;" points="253.335,214.337 258.668,214.337 
	258.668,196.671 "/>
<polyline style="fill:none;stroke:#000000;stroke-width:2;stroke-miterlimit:10;" points="291.669,196.671 291.669,214.337 
	285.669,214.337 "/>
<polyline style="fill:none;stroke:#000000;stroke-width:2;stroke-miterlimit:10;" points="270.002,214.337 275.669,214.337 
	275.669,196.671 "/>
<polyline style="fill:none;stroke:#000000;stroke-width:2;stroke-miterlimit:10;" points="301.669,214.337 307.669,214.337 
	307.669,196.671 "/>
<polyline style="fill:none;stroke:#000000;stroke-width:2;stroke-miterlimit:10;" points="318.669,214.337 324.003,214.337 
	324.003,196.671 "/>
<polyline style="fill:none;stroke:#000000;stroke-width:2;stroke-miterlimit:10;" points="335.003,214.337 340.669,214.337 
	345.669,214.337 "/>
<line style="fill:none;stroke:#000000;stroke-width:2;stroke-miterlimit:10;" x1="340.669" y1="196.671" x2="340.669" y2="214.337"/>
<line style="fill:none;stroke:#000000;stroke-width:2;stroke-miterlimit:10;" x1="241.669" y1="247.34" x2="241.669" y2="262.673"/>
<rect x="299.002" y="239.67" style="stroke:#000000;stroke-width:2;stroke-miterlimit:10;" width="58" height="20"/>
<polyline style="fill:none;stroke:#000000;stroke-width:2;stroke-miterlimit:10;" points="299.002,273.67 241.669,273.34 
	241.669,290.67 252.002,290.67 "/>
<line style="fill:none;stroke:#000000;stroke-width:2;stroke-miterlimit:10;" x1="272.002" y1="290.67" x2="262.002" y2="290.67"/>
<polyline style="fill:none;stroke:#000000;stroke-width:2;stroke-miterlimit:10;" points="291.002,290.67 280.002,290.67 
	280.002,272.67 "/>
<polyline style="fill:none;stroke:#000000;stroke-width:2;stroke-miterlimit:10;" points="299.002,259.67 299.002,290.67 
	303.002,290.67 303.002,286.67 311.002,286.67 311.002,290.67 324.002,290.67 "/>
<polyline style="fill:none;stroke:#000000;stroke-width:2;stroke-miterlimit:10;" points="333.002,290.67 338.002,290.67 
	338.002,281.67 299.002,281.67 "/>
<line style="fill:none;stroke:#000000;stroke-width:2;stroke-miterlimit:10;" x1="346.002" y1="281.67" x2="338.002" y2="281.67"/>
<polyline style="fill:none;stroke:#000000;stroke-width:2;stroke-miterlimit:10;" points="347.669,290.673 357.002,290.673 
	357.002,259.67 "/>
<polyline style="fill:none;stroke:#000000;stroke-width:2;stroke-miterlimit:10;" points="317.002,301.67 299.002,301.67 
	299.002,347.67 328.002,347.67 328.002,301.67 "/>
<polyline style="fill:none;stroke:#000000;stroke-width:2;stroke-miterlimit:10;" points="290.002,301.67 281.002,301.67 
	281.002,325.67 "/>
<polyline style="fill:none;stroke:#000000;stroke-width:2;stroke-miterlimit:10;" points="252.002,301.67 241.669,301.67 
	241.669,325.342 299.002,325.342 "/>
<polyline style="fill:none;stroke:#000000;stroke-width:2;stroke-miterlimit:10;" points="252.002,348.67 241.669,348.67 
	241.669,325.342 "/>
<polyline style="fill:none;stroke:#000000;stroke-width:2;stroke-miterlimit:10;" points="272.002,348.67 262.002,348.67 
	262.002,324.67 262.002,301.67 271.002,301.67 "/>
<polyline style="fill:none;stroke:#000000;stroke-width:2;stroke-miterlimit:10;" points="290.002,347.67 281.002,347.67 
	281.002,325.67 "/>
<line style="fill:none;stroke:#000000;stroke-width:2;stroke-miterlimit:10;" x1="357.002" y1="313.67" x2="328.002" y2="313.67"/>
<polyline style="fill:none;stroke:#000000;stroke-width:2;stroke-miterlimit:10;" points="328.002,330.67 357.002,330.67 
	357.002,347.67 342.002,347.67 "/>
<line style="fill:none;stroke:#000000;stroke-width:2;stroke-miterlimit:10;" x1="342.335" y1="313.006" x2="342.335" y2="330.673"/>
<polygon style="fill:none;stroke:#000000;stroke-width:2;stroke-miterlimit:10;" points="373.002,261.67 435.335,261.67 
	435.335,301.339 413.668,301.339 413.668,347.67 373.002,347.67 "/>
<rect x="302.002" y="364.67" style="fill:none;stroke:#000000;stroke-width:2;stroke-miterlimit:10;" width="111.666" height="61.335"/>
<rect x="129.002" y="364.67" style="fill:none;stroke:#000000;stroke-width:2;stroke-miterlimit:10;" width="170" height="62.002"/>
<polygon style="fill:none;stroke:#000000;stroke-width:2;stroke-miterlimit:10;" points="99.001,364.67 126.001,364.67 
	126.001,427.005 98.671,427.005 "/>
<polygon style="fill:none;stroke:#000000;stroke-width:2;stroke-miterlimit:10;" points="74.671,274.67 112.002,274.67 
	112.002,349.67 74.337,349.67 "/>
<rect x="115.002" y="274.67" style="fill:none;stroke:#000000;stroke-width:2;stroke-miterlimit:10;" width="113" height="75"/>
<rect x="74.402" y="193.23" style="fill:none;stroke:#000000;stroke-width:2;stroke-miterlimit:10;" width="71.6" height="73.438"/>
<polygon style="fill:none;stroke:#000000;stroke-width:2;stroke-miterlimit:10;" points="148.669,193.23 209.336,193.23 
	209.336,266.669 149.002,266.669 "/>
</svg>
