<?xml version="1.0" encoding="utf-8"?>
<!-- Generator: Adobe Illustrator 16.0.4, SVG Export Plug-In . SVG Version: 6.00 Build 0)  -->
<!DOCTYPE svg PUBLIC "-//W3C//DTD SVG 1.1//EN" "http://www.w3.org/Graphics/SVG/1.1/DTD/svg11.dtd">
<svg version="1.1" xmlns="http://www.w3.org/2000/svg" xmlns:xlink="http://www.w3.org/1999/xlink" x="0px" y="0px"
	 width="718.229px" height="567.188px" viewBox="0 0 718.229 567.188" enable-background="new 0 0 718.229 567.188"
	 xml:space="preserve">
<g id="Layer_4">
	<polyline fill="none" points="352.434,128.015 412.459,128.015 412.459,101.325 437.279,101.325 437.279,29.574 425.971,29.574 
		425.971,17.762 336.484,17.762 336.484,29.574 327.818,29.574 327.818,101.325 352,101.325 352,129.542 	"/>
	<rect x="454.998" y="41.369" fill="none" width="46.666" height="137.904"/>
	<rect x="504.229" y="41.369" fill="none" width="50.77" height="137.904"/>
	<path fill="none" d="M637.852,42.845c-36.696,0-66.928,32.987-62.635,67.21c5.018,40,25.938,61.456,62.635,61.456
		c36.695,0,66.443-28.803,66.443-64.333C704.295,71.648,674.547,42.845,637.852,42.845z M661.151,128.015h-42.282V85.427h42.282
		V128.015z"/>
	<polygon fill="none" points="584.663,275.19 584.663,205.446 634.945,205.446 634.945,217.048 615.971,275.19 	"/>
	<rect x="219.073" y="157.666" fill="none" width="66.668" height="27.116"/>
	<rect x="172.372" y="209.495" fill="none" width="12.211" height="18.533"/>
	<rect x="219.802" y="207.523" fill="none" width="12.211" height="20.505"/>
	<rect x="268.097" y="207.523" fill="none" width="12.211" height="20.505"/>
	<rect x="481.393" y="208.523" fill="none" width="12.211" height="19.505"/>
	<path fill="none" d="M46.792,282.908"/>
	<rect x="46.792" y="183.744" fill="none" width="33.628" height="99.164"/>
	<rect x="23.354" y="464.959" fill="none" width="16.667" height="21.354"/>
	<polygon fill="none" points="26.479,543.795 26.479,489.958 42.104,489.438 42.104,461.833 79.586,461.833 79.586,543.795 	"/>
	<polygon fill="none" points="79.419,481.364 111.407,481.364 111.407,543.795 79.586,543.795 	"/>
	<rect x="119.098" y="444.125" fill="none" width="342.798" height="74.479"/>
	<rect x="119.098" y="339.479" fill="none" width="61.718" height="91.104"/>
	<rect x="186.279" y="339.479" fill="none" width="99.462" height="91.104"/>
	<rect x="287.938" y="339.479" fill="none" width="8.333" height="91.104"/>
	<rect x="119.098" y="242.863" fill="none" width="150.295" height="87.2"/>
	<polygon fill="none" points="467.306,518.604 514.484,518.604 514.484,377.458 554.998,377.458 554.998,242.863 501.664,242.863 
		501.664,314.438 467.306,314.438 	"/>
	<rect x="467.306" y="242.863" fill="none" width="30.769" height="64.803"/>
	<rect x="524.396" y="380.667" fill="none" width="60.268" height="31.77"/>
	<polyline fill="none" points="311.408,430.583 379.083,430.583 379.083,402.719 311.408,402.719 311.408,430.583 	"/>
	<polyline fill="none" points="334.812,402.719 334.812,374.854 311.408,374.854 311.408,402.719 334.812,402.719 	"/>
	<polyline fill="none" points="356.948,402.719 356.948,374.854 334.812,374.854 334.812,402.719 356.948,402.719 	"/>
	<polyline fill="none" points="379.509,402.719 379.509,374.854 357.374,374.854 357.374,402.719 379.509,402.719 	"/>
	<polygon fill="none" points="379.083,430.583 415.246,430.583 415.246,374.854 379.509,374.854 	"/>
	<rect x="414.672" y="374.854" fill="none" width="36.736" height="35.417"/>
	<polygon fill="none" points="426.279,360.791 451.408,360.791 451.408,323.812 406.167,323.812 406.167,350.635 426.279,350.635 	
		"/>
	<rect x="356.974" y="340.479" fill="none" width="22.109" height="20.312"/>
	<rect x="335.226" y="340.479" fill="none" width="22.109" height="20.312"/>
	<rect x="311.408" y="340.479" fill="none" width="23.404" height="20.312"/>
	<rect x="311.408" y="299.333" fill="none" width="67.675" height="41.146"/>
	<polygon fill="none" points="331.167,298.812 331.167,279.274 311.408,279.274 311.408,299.333 	"/>
	<polygon fill="none" points="331.167,269.252 331.167,248.554 311.408,248.554 311.408,269.804 	"/>
	<polygon fill="none" points="350.426,269.252 350.426,248.554 330.667,248.554 330.667,269.804 	"/>
	<polygon fill="none" points="371.469,269.252 371.469,248.554 351.71,248.554 351.71,269.804 	"/>
	<polygon fill="none" points="390.191,269.252 390.191,248.554 372.669,248.554 372.669,269.804 	"/>
	<polygon fill="none" points="411.375,269.252 411.375,248.554 390.516,248.554 390.516,269.804 	"/>
	<polygon fill="none" points="430.646,269.252 430.646,248.554 410.581,248.554 410.581,269.804 	"/>
	<polygon fill="none" points="451.06,269.252 451.06,248.554 430.994,248.554 430.994,269.804 	"/>
	<polygon fill="none" points="350.425,298.812 350.425,279.274 330.667,279.274 330.667,299.333 	"/>
	<polygon fill="none" points="372.253,298.812 372.253,279.274 350.926,279.274 350.926,299.333 	"/>
	<polygon fill="none" points="390.191,298.812 390.191,279.274 372.236,279.274 372.236,299.333 	"/>
	<polygon fill="none" points="411.375,298.812 411.375,279.274 390.191,279.274 390.191,299.333 	"/>
	<polygon fill="none" points="430.646,298.812 430.646,279.274 411.375,279.274 411.375,299.333 	"/>
	<polygon fill="none" points="451.408,298.812 451.408,279.274 430.646,279.274 430.646,299.333 	"/>
</g>
<g id="Layer_3">
	<path fill="#FFFFFF" d="M26.479,543.795h516.146V430.062h38.021v-16.666h4.017V275.19h31.308l18.975-56.41v-13.334H604.74v-22.538
		h30.257v-9.719c0,0,67.343-7.271,69.298-66.011s-64.333-65.809-64.333-65.809V29.574H425.971V17.762h-89.487v11.405H79.419v154.578
		H46.792v99.164h32.628v178.03H19.667v29.021h6.896L26.479,543.795z"/>
</g>
<g id="Major_Lines">
	<path fill="none" stroke="#030302" stroke-width="3" stroke-miterlimit="10" d="M630.87,41.369c99.487,0,93.333,130.769,0,130.769"
		/>
	<path fill="none" stroke="#030302" stroke-width="2" stroke-miterlimit="10" d="M325.767,207.523"/>
	<polyline fill="none" stroke="#030302" stroke-width="3" stroke-miterlimit="10" points="634.997,173.189 634.997,182.908 
		604.74,182.908 604.74,190.061 604.74,205.446 621.869,205.446 634.945,205.446 634.945,218.78 615.971,275.19 584.663,275.19 
		584.663,287.57 584.663,228.498 584.663,207.523 571.407,207.523 	"/>
	<path fill="none" stroke="#030302" stroke-width="2" stroke-miterlimit="10" d="M571.407,207.523"/>
	<polyline fill="none" stroke="#030302" stroke-miterlimit="10" points="170.661,208.523 178.47,208.523 186.279,208.523 	"/>
	<polyline fill="none" stroke="#030302" stroke-miterlimit="10" points="170.661,209.495 178.47,209.495 186.279,209.495 	"/>
	<polyline fill="none" stroke="#030302" stroke-miterlimit="10" points="170.661,228.028 178.47,228.028 186.279,228.028 	"/>
	<polyline fill="none" stroke="#030302" stroke-miterlimit="10" points="170.661,229 178.47,229 186.279,229 	"/>
	<line fill="none" stroke="#030302" stroke-miterlimit="10" x1="178.47" y1="229.304" x2="178.47" y2="208.523"/>
	<line fill="none" stroke="#030302" stroke-miterlimit="10" x1="184.583" y1="209.495" x2="184.583" y2="228.028"/>
	<line fill="none" stroke="#030302" stroke-miterlimit="10" x1="172.372" y1="209.495" x2="172.372" y2="228.028"/>
	<line fill="none" stroke="#030302" stroke-miterlimit="10" x1="184.408" y1="214.28" x2="172.488" y2="214.28"/>
	<line fill="none" stroke="#030302" stroke-miterlimit="10" x1="184.408" y1="219.181" x2="172.488" y2="219.181"/>
	<line fill="none" stroke="#030302" stroke-miterlimit="10" x1="184.408" y1="222.894" x2="172.488" y2="222.894"/>
	<polyline fill="none" stroke="#030302" stroke-miterlimit="10" points="218.099,207.523 225.908,207.523 233.717,207.523 	"/>
	<polyline fill="none" stroke="#030302" stroke-miterlimit="10" points="218.099,208.495 225.908,208.495 233.717,208.495 	"/>
	<polyline fill="none" stroke="#030302" stroke-miterlimit="10" points="218.099,227.028 225.908,227.028 233.717,227.028 	"/>
	<polyline fill="none" stroke="#030302" stroke-miterlimit="10" points="218.099,228 225.908,228 233.717,228 	"/>
	<line fill="none" stroke="#030302" stroke-miterlimit="10" x1="225.908" y1="228.304" x2="225.908" y2="207.523"/>
	<line fill="none" stroke="#030302" stroke-miterlimit="10" x1="232.021" y1="208.495" x2="232.021" y2="227.028"/>
	<line fill="none" stroke="#030302" stroke-miterlimit="10" x1="219.81" y1="208.495" x2="219.81" y2="227.028"/>
	<line fill="none" stroke="#030302" stroke-miterlimit="10" x1="268.22" y1="213.28" x2="219.926" y2="213.28"/>
	<line fill="none" stroke="#030302" stroke-miterlimit="10" x1="268.22" y1="218.181" x2="219.926" y2="218.181"/>
	<line fill="none" stroke="#030302" stroke-miterlimit="10" x1="268.22" y1="221.894" x2="219.926" y2="221.894"/>
	<polyline fill="none" stroke="#030302" stroke-miterlimit="10" points="266.393,207.523 274.202,207.523 282.011,207.523 	"/>
	<polyline fill="none" stroke="#030302" stroke-miterlimit="10" points="266.393,208.495 274.202,208.495 282.011,208.495 	"/>
	<polyline fill="none" stroke="#030302" stroke-miterlimit="10" points="266.393,227.028 274.202,227.028 282.011,227.028 	"/>
	<polyline fill="none" stroke="#030302" stroke-miterlimit="10" points="266.393,228 274.202,228 282.011,228 	"/>
	<line fill="none" stroke="#030302" stroke-miterlimit="10" x1="274.202" y1="228.304" x2="274.202" y2="207.523"/>
	<line fill="none" stroke="#030302" stroke-miterlimit="10" x1="280.315" y1="208.495" x2="280.315" y2="227.028"/>
	<line fill="none" stroke="#030302" stroke-miterlimit="10" x1="268.104" y1="208.495" x2="268.104" y2="227.028"/>
	<line fill="none" stroke="#030302" stroke-miterlimit="10" x1="280.141" y1="213.28" x2="268.22" y2="213.28"/>
	<line fill="none" stroke="#030302" stroke-miterlimit="10" x1="280.141" y1="218.181" x2="268.22" y2="218.181"/>
	<line fill="none" stroke="#030302" stroke-miterlimit="10" x1="280.141" y1="221.894" x2="268.22" y2="221.894"/>
	<polyline fill="none" stroke="#030302" stroke-miterlimit="10" points="479.712,208.523 487.521,208.523 495.33,208.523 	"/>
	<polyline fill="none" stroke="#030302" stroke-miterlimit="10" points="479.712,209.495 487.521,209.495 495.33,209.495 	"/>
	<polyline fill="none" stroke="#030302" stroke-miterlimit="10" points="479.712,228.028 487.521,228.028 495.33,228.028 	"/>
	<polyline fill="none" stroke="#030302" stroke-miterlimit="10" points="479.712,229 487.521,229 495.33,229 	"/>
	<line fill="none" stroke="#030302" stroke-miterlimit="10" x1="487.521" y1="229.304" x2="487.521" y2="208.523"/>
	<line fill="none" stroke="#030302" stroke-miterlimit="10" x1="493.634" y1="209.495" x2="493.634" y2="228.028"/>
	<line fill="none" stroke="#030302" stroke-miterlimit="10" x1="481.423" y1="209.495" x2="481.423" y2="228.028"/>
	<line fill="none" stroke="#030302" stroke-miterlimit="10" x1="493.459" y1="214.28" x2="481.539" y2="214.28"/>
	<line fill="none" stroke="#030302" stroke-miterlimit="10" x1="493.459" y1="219.181" x2="481.539" y2="219.181"/>
	<line fill="none" stroke="#030302" stroke-miterlimit="10" x1="493.459" y1="222.894" x2="481.539" y2="222.894"/>
	<path fill="none" stroke="#030302" stroke-width="3" stroke-linecap="round" stroke-linejoin="round" stroke-miterlimit="10" d="
		M590.051,59.797"/>
	<path fill="none" stroke="#030302" stroke-linecap="round" stroke-linejoin="round" stroke-miterlimit="10" d="M615.225,169.611"/>
	<path fill="none" stroke="#030302" stroke-linecap="round" stroke-linejoin="round" stroke-miterlimit="10" d="M615.225,182.908"/>
	<polyline fill="none" stroke="#030302" stroke-width="3" stroke-miterlimit="10" points="639.962,41.369 639.962,29.574 
		425.971,29.574 425.971,17.762 402.638,17.762 360.074,17.762 336.484,17.762 336.484,29.574 78.586,29.574 78.613,183.744 
		46.792,183.726 46.792,282.908 78.586,282.908 78.586,289.57 78.586,461.833 19.667,461.833 19.667,489.958 65.253,489.958 
		26.479,489.958 26.479,543.795 542.625,543.795 542.625,430.062 590.051,430.062 580.646,430.062 580.646,413.396 588.074,413.396 
		584.663,413.396 584.663,287.57 	"/>
	<polyline fill="none" stroke="#030302" stroke-miterlimit="10" points="124.332,227.028 143.202,227.028 143.196,213.28 
		143.196,208.495 79.612,208.495 79.612,267.01 79.612,282.908 	"/>
	<path fill="none" stroke="#030302" stroke-miterlimit="10" d="M180.816,229.398"/>
	<path fill="none" stroke="#030302" stroke-miterlimit="10" d="M187.816,287.57"/>
	<path fill="none" stroke="#030302" stroke-width="2" stroke-miterlimit="10" d="M425.971,29.574"/>
	<polygon fill="none" stroke="#030302" stroke-miterlimit="10" points="119.098,287.57 119.098,242.863 269.393,242.863 
		269.393,287.57 269.393,330.062 119.098,330.062 	"/>
	<polygon fill="none" stroke="#030302" stroke-miterlimit="10" points="498.074,287.57 498.074,242.863 467.306,242.863 
		467.306,287.57 467.306,307.666 498.074,307.666 	"/>
	<polygon fill="none" stroke="#030302" stroke-miterlimit="10" points="501.664,287.57 501.664,242.863 554.998,242.863 
		554.998,287.57 554.998,377.458 514.484,377.458 514.484,518.604 467.306,518.604 467.306,313.916 501.664,313.916 	"/>
	<polyline fill="#FFFFFF" stroke="#030302" stroke-miterlimit="10" points="525.767,228 540.126,228 540.126,208.495 
		514.484,208.495 514.484,228.028 	"/>
	<rect x="618.869" y="85.427" fill="none" stroke="#030302" stroke-miterlimit="10" width="42.282" height="42.588"/>
	<polyline fill="none" stroke="#030302" stroke-miterlimit="10" points="176.536,29.574 176.536,81.325 327.818,81.325 
		327.818,78.761 327.818,184.782 285.741,184.782 285.741,157.666 176.536,157.666 176.536,184.782 79.612,184.782 	"/>
	<polyline fill="none" stroke="#030302" stroke-miterlimit="10" points="203.716,29.574 203.716,67.479 228.908,67.479 	"/>
	<line fill="none" stroke="#030302" stroke-miterlimit="10" x1="228.908" y1="29.574" x2="228.908" y2="55.45"/>
	<line fill="none" stroke="#030302" stroke-miterlimit="10" x1="327.818" y1="29.574" x2="327.818" y2="69.53"/>
	<polygon fill="none" stroke="#030302" stroke-miterlimit="10" points="454.998,169.611 454.998,179.273 501.664,179.273 
		501.664,41.369 454.998,41.369 454.998,136.709 	"/>
	<rect x="504.229" y="41.369" fill="none" stroke="#030302" stroke-miterlimit="10" width="50.77" height="137.904"/>
	<polyline fill="none" stroke="#030302" stroke-miterlimit="10" points="413.459,208.495 439.101,208.495 426.279,208.495 
		426.279,227.498 439.101,227.498 413.459,227.498 	"/>
	<polyline fill="none" stroke="#030302" stroke-miterlimit="10" points="352.434,227.028 327.818,227.028 340.126,227.028 
		340.126,208.495 327.818,208.495 352.434,208.495 	"/>
	<line fill="none" stroke="#030302" stroke-miterlimit="10" x1="79.612" y1="227.498" x2="101.151" y2="227.498"/>
	<polyline fill="none" stroke="#030302" stroke-miterlimit="10" points="311.408,279.274 311.408,287.57 311.408,299.333 
		451.408,299.333 	"/>
	<line fill="none" stroke="#030302" stroke-miterlimit="10" x1="311.408" y1="269.53" x2="311.408" y2="242.863"/>
	<polyline fill="none" stroke="#030302" stroke-miterlimit="10" points="451.408,279.274 451.408,287.57 451.408,360.791 
		439.101,360.791 	"/>
	<polyline fill="none" stroke="#030302" stroke-miterlimit="10" points="451.408,269.53 451.408,246.338 451.408,242.863 	"/>
	<path fill="none" stroke="#030302" stroke-miterlimit="10" d="M311.408,247.946"/>
	<polyline fill="none" stroke="#030302" stroke-miterlimit="10" points="364.741,247.946 364.741,242.863 327.818,242.863 
		327.818,247.338 	"/>
	<line fill="none" stroke="#030302" stroke-miterlimit="10" x1="311.408" y1="247.946" x2="451.408" y2="247.946"/>
	<polyline fill="none" stroke="#030302" stroke-miterlimit="10" points="285.741,184.782 262.664,184.782 262.664,157.666 
		242.663,157.666 242.663,184.782 219.073,184.782 219.073,157.666 219.073,184.782 176.536,184.782 	"/>
	<rect x="327.818" y="138.753" fill="#030302" width="24.615" height="46.534"/>
	<rect x="413.664" y="139.248" fill="#030302" width="24.615" height="46.534"/>
	<polyline fill="none" stroke="#030302" stroke-miterlimit="10" points="327.818,101.325 352.434,101.325 352.434,92.094 
		371.786,92.094 	"/>
	<polyline fill="none" stroke="#030302" stroke-miterlimit="10" points="371.786,128.015 352.434,128.015 352.434,101.325 	"/>
	<polyline fill="none" stroke="#030302" stroke-miterlimit="10" points="391.867,128.015 412.459,128.015 412.459,92.094 
		391.867,92.094 412.459,92.094 412.459,101.325 437.279,101.325 	"/>
	<line fill="none" stroke="#030302" stroke-miterlimit="10" x1="437.779" y1="29.574" x2="437.779" y2="139.486"/>
	<polyline fill="none" stroke="#030302" stroke-miterlimit="10" points="604.74,181.908 571.407,181.908 584.663,181.908 
		584.663,143.4 	"/>
	<path fill="#030302" stroke="#000000" stroke-width="2" stroke-miterlimit="10" d="M578.073,128.015
		c11.001,29.65,32.731,37.411,32.731,37.411h-25.142V143.4"/>
	<path fill="#030302" stroke="#000000" stroke-width="2" stroke-miterlimit="10" d="M575.629,89.529c0,0,3.472-17.902,22.958-34.079
		h-12.802l0.009,13.293"/>
	
		<line fill="#030302" stroke="#000000" stroke-width="2" stroke-miterlimit="10" x1="585.663" y1="29.574" x2="585.663" y2="55.45"/>
	<polygon fill="#030302" points="600.638,230.379 615.225,230.379 604.74,262.349 600.638,262.349 	"/>
	<rect x="379.083" y="299.333" fill="#030302" width="72.325" height="24.479"/>
	<polyline fill="none" stroke="#030302" stroke-miterlimit="10" points="379.083,323.812 379.083,363.916 379.083,340.479 
		311.408,340.479 311.408,360.791 322.312,360.791 	"/>
	<polyline fill="none" stroke="#030302" stroke-miterlimit="10" points="334.812,340.479 334.812,360.791 346.28,360.791 	"/>
	<polyline fill="none" stroke="#030302" stroke-miterlimit="10" points="356.974,340.479 356.974,360.791 368.441,360.791 	"/>
	<polyline fill="none" stroke="#030302" stroke-miterlimit="10" points="406.167,323.812 406.167,350.635 437.279,350.635 
		395.229,350.635 395.229,360.791 399.396,360.791 399.396,356.624 407.208,356.624 407.208,360.791 418.667,360.791 	"/>
	<polyline fill="none" stroke="#030302" stroke-miterlimit="10" points="423.875,360.791 426.279,360.791 426.279,350.635 	"/>
	<polyline fill="none" stroke="#030302" stroke-miterlimit="10" points="343.146,430.583 419.188,430.583 415.246,430.583 
		415.246,374.854 415.254,388.916 451.408,388.916 451.408,374.854 451.408,430.583 431.167,430.583 	"/>
	<polyline fill="none" stroke="#030302" stroke-miterlimit="10" points="322.312,374.854 311.408,374.854 311.408,430.583 
		332.208,430.583 	"/>
	<polyline fill="none" stroke="#030302" stroke-miterlimit="10" points="451.408,410.271 416.254,410.271 431.688,410.271 
		431.688,388.916 	"/>
	<polyline fill="none" stroke="#030302" stroke-miterlimit="10" points="311.408,402.719 334.812,402.719 334.812,374.854 
		346.28,374.854 	"/>
	<polyline fill="none" stroke="#030302" stroke-miterlimit="10" points="334.812,402.719 356.974,402.719 356.974,374.854 
		371.786,374.854 	"/>
	<polyline fill="none" stroke="#030302" stroke-miterlimit="10" points="356.974,402.719 379.083,402.719 379.083,430.583 
		379.083,374.854 404.083,374.854 	"/>
	<line fill="none" stroke="#030302" stroke-miterlimit="10" x1="311.408" y1="307.666" x2="311.408" y2="326.416"/>
	<polyline fill="none" stroke="#030302" stroke-miterlimit="10" points="524.396,414.437 524.396,380.733 584.663,380.733 	"/>
	<line fill="none" stroke="#030302" stroke-miterlimit="10" x1="540.126" y1="412.437" x2="580.646" y2="412.437"/>
	<line fill="none" stroke="#030302" stroke-miterlimit="10" x1="540.126" y1="397.585" x2="571.407" y2="397.585"/>
	<rect x="119.098" y="444.125" fill="none" stroke="#030302" stroke-miterlimit="10" width="342.798" height="74.479"/>
	<rect x="287.938" y="339.479" fill="none" stroke="#030302" stroke-miterlimit="10" width="8.333" height="91.104"/>
	<rect x="186.279" y="339.479" fill="none" stroke="#030302" stroke-miterlimit="10" width="99.462" height="91.104"/>
	<rect x="119.098" y="339.479" fill="none" stroke="#030302" stroke-miterlimit="10" width="61.718" height="91.104"/>
	<line fill="none" stroke="#030302" stroke-miterlimit="10" x1="111.407" y1="543.795" x2="111.407" y2="481.364"/>
	<polyline fill="none" stroke="#030302" stroke-miterlimit="10" points="96.271,481.364 79.612,481.364 79.612,476.417 
		79.612,543.795 	"/>
	<line fill="none" stroke="#030302" stroke-miterlimit="10" x1="79.586" y1="461.833" x2="79.586" y2="468.084"/>
	<line fill="none" stroke="#030302" stroke-miterlimit="10" x1="79.586" y1="489.438" x2="74.396" y2="489.438"/>
	<line fill="none" stroke="#030302" stroke-miterlimit="10" x1="96.271" y1="525.375" x2="96.271" y2="495.688"/>
	<line fill="none" stroke="#030302" stroke-miterlimit="10" x1="113.979" y1="208.495" x2="113.979" y2="227.028"/>
	<polyline fill="none" stroke="#030302" stroke-miterlimit="10" points="430.646,299.333 430.646,279.274 423.875,279.274 
		437.279,279.274 	"/>
	<polyline fill="none" stroke="#030302" stroke-miterlimit="10" points="437.279,269.53 423.875,269.53 430.577,269.53 
		430.577,248.759 	"/>
	<polyline fill="none" stroke="#030302" stroke-miterlimit="10" points="411.375,299.333 411.375,279.274 404.083,279.274 	"/>
	<polyline fill="none" stroke="#030302" stroke-miterlimit="10" points="390.191,299.333 390.191,279.274 382.899,279.274 	"/>
	<polyline fill="none" stroke="#030302" stroke-miterlimit="10" points="372.087,299.333 372.087,279.274 364.795,279.274 	"/>
	<polyline fill="none" stroke="#030302" stroke-miterlimit="10" points="350.926,299.333 350.926,279.274 343.634,279.274 	"/>
	<polyline fill="none" stroke="#030302" stroke-miterlimit="10" points="331.464,299.333 331.464,279.274 324.172,279.274 	"/>
	<polyline fill="none" stroke="#030302" stroke-miterlimit="10" points="404.083,269.53 411.375,269.53 411.375,247.946 	"/>
	<polyline fill="none" stroke="#030302" stroke-miterlimit="10" points="382.899,269.53 390.191,269.53 390.191,247.946 	"/>
	<polyline fill="none" stroke="#030302" stroke-miterlimit="10" points="364.795,269.53 372.087,269.53 372.087,247.946 	"/>
	<polyline fill="none" stroke="#030302" stroke-miterlimit="10" points="343.634,269.53 350.926,269.53 350.926,247.946 	"/>
	<polyline fill="none" stroke="#030302" stroke-miterlimit="10" points="324.172,269.53 331.464,269.53 331.464,247.946 	"/>
	<line fill="none" stroke="#030302" stroke-miterlimit="10" x1="545.229" y1="412.437" x2="545.229" y2="380.733"/>
	<line fill="none" stroke="#030302" stroke-miterlimit="10" x1="549.777" y1="412.437" x2="549.777" y2="380.733"/>
	<line fill="none" stroke="#030302" stroke-miterlimit="10" x1="554.529" y1="412.437" x2="554.529" y2="380.733"/>
	<line fill="none" stroke="#030302" stroke-miterlimit="10" x1="559.381" y1="412.437" x2="559.381" y2="380.733"/>
	<line fill="none" stroke="#030302" stroke-miterlimit="10" x1="563.929" y1="412.437" x2="563.929" y2="380.733"/>
	<line fill="none" stroke="#030302" stroke-miterlimit="10" x1="568.681" y1="412.437" x2="568.681" y2="380.733"/>
	<line fill="none" stroke="#030302" stroke-miterlimit="10" x1="79.419" y1="498.806" x2="111.123" y2="498.806"/>
	<line fill="none" stroke="#030302" stroke-miterlimit="10" x1="79.419" y1="503.354" x2="111.123" y2="503.354"/>
	<line fill="none" stroke="#030302" stroke-miterlimit="10" x1="79.419" y1="508.105" x2="111.123" y2="508.105"/>
	<line fill="none" stroke="#030302" stroke-miterlimit="10" x1="79.419" y1="512.957" x2="111.123" y2="512.957"/>
	<line fill="none" stroke="#030302" stroke-miterlimit="10" x1="79.419" y1="517.505" x2="111.123" y2="517.505"/>
	<line fill="none" stroke="#030302" stroke-miterlimit="10" x1="79.419" y1="522.257" x2="111.123" y2="522.257"/>
	<rect x="23.354" y="464.959" fill="none" stroke="#000000" stroke-miterlimit="10" width="16.667" height="21.354"/>
	<path fill="#FFFFFF" stroke="#000000" stroke-miterlimit="10" d="M47.102,235.015"/>
	<path fill="none" stroke="#030302" stroke-width="2" stroke-miterlimit="10" d="M449.355,246.338"/>
	<rect x="375.314" y="219.357" fill="#030302" width="13.171" height="9.041"/>
	<path fill="none" stroke="#000000" stroke-width="2" stroke-miterlimit="10" d="M615.225,181.625"/>
	<polygon fill="#030302" points="599.085,229.78 614.843,229.78 603.445,262.542 599.085,262.542 	"/>
	<line fill="none" stroke="#000000" stroke-miterlimit="10" x1="585.701" y1="230.78" x2="599.085" y2="230.78"/>
	<line fill="none" stroke="#000000" stroke-miterlimit="10" x1="585.701" y1="235.374" x2="599.085" y2="235.374"/>
	<line fill="none" stroke="#000000" stroke-miterlimit="10" x1="585.701" y1="239.83" x2="599.085" y2="239.83"/>
	<line fill="none" stroke="#000000" stroke-miterlimit="10" x1="585.701" y1="243.973" x2="599.085" y2="243.973"/>
	<line fill="none" stroke="#000000" stroke-miterlimit="10" x1="585.701" y1="248.759" x2="599.085" y2="248.759"/>
	<line fill="none" stroke="#000000" stroke-miterlimit="10" x1="585.701" y1="253.371" x2="599.085" y2="253.371"/>
	<line fill="none" stroke="#000000" stroke-miterlimit="10" x1="585.701" y1="258.157" x2="599.085" y2="258.157"/>
	<line fill="none" stroke="#000000" stroke-miterlimit="10" x1="612.479" y1="235.166" x2="628.161" y2="242.584"/>
	<line fill="none" stroke="#000000" stroke-miterlimit="10" x1="611.406" y1="239.238" x2="627.088" y2="246.657"/>
	<line fill="none" stroke="#000000" stroke-miterlimit="10" x1="609.588" y1="243.056" x2="625.27" y2="250.475"/>
	<line fill="none" stroke="#000000" stroke-miterlimit="10" x1="608.298" y1="246.983" x2="623.979" y2="254.402"/>
	<line fill="none" stroke="#000000" stroke-miterlimit="10" x1="606.479" y1="250.801" x2="622.161" y2="258.22"/>
	<line fill="none" stroke="#000000" stroke-miterlimit="10" x1="605.406" y1="254.874" x2="621.088" y2="262.292"/>
	<line fill="none" stroke="#000000" stroke-miterlimit="10" x1="603.588" y1="258.692" x2="619.27" y2="266.111"/>
	<line fill="none" stroke="#000000" stroke-miterlimit="10" x1="65.253" y1="227.028" x2="65.253" y2="263.375"/>
	<line fill="none" stroke="#000000" stroke-miterlimit="10" x1="79.612" y1="229" x2="47.102" y2="229"/>
	<line fill="none" stroke="#000000" stroke-miterlimit="10" x1="79.612" y1="231.894" x2="47.102" y2="231.894"/>
	<line fill="none" stroke="#000000" stroke-miterlimit="10" x1="79.612" y1="234.447" x2="47.102" y2="234.447"/>
	<line fill="none" stroke="#000000" stroke-miterlimit="10" x1="79.612" y1="237.543" x2="47.102" y2="237.543"/>
	<line fill="none" stroke="#000000" stroke-miterlimit="10" x1="79.612" y1="240.438" x2="47.102" y2="240.438"/>
	<line fill="none" stroke="#000000" stroke-miterlimit="10" x1="79.612" y1="242.991" x2="47.102" y2="242.991"/>
	<line fill="none" stroke="#000000" stroke-miterlimit="10" x1="79.612" y1="245.798" x2="47.102" y2="245.798"/>
	<line fill="none" stroke="#000000" stroke-miterlimit="10" x1="79.612" y1="248.693" x2="47.102" y2="248.693"/>
	<line fill="none" stroke="#000000" stroke-miterlimit="10" x1="79.612" y1="251.246" x2="47.102" y2="251.246"/>
	<line fill="none" stroke="#000000" stroke-miterlimit="10" x1="79.612" y1="254.342" x2="47.102" y2="254.342"/>
	<line fill="none" stroke="#000000" stroke-miterlimit="10" x1="79.612" y1="257.237" x2="47.102" y2="257.237"/>
	<line fill="none" stroke="#000000" stroke-miterlimit="10" x1="79.612" y1="259.79" x2="47.102" y2="259.79"/>
</g>
</svg>
