<?xml version="1.0" encoding="utf-8"?>
<!-- Generator: Adobe Illustrator 16.0.4, SVG Export Plug-In . SVG Version: 6.00 Build 0)  -->
<!DOCTYPE svg PUBLIC "-//W3C//DTD SVG 1.1//EN" "http://www.w3.org/Graphics/SVG/1.1/DTD/svg11.dtd">
<svg version="1.1" xmlns="http://www.w3.org/2000/svg" xmlns:xlink="http://www.w3.org/1999/xlink" x="0px" y="0px"
	 width="796.122px" height="618.129px" viewBox="0 0 796.122 618.129" enable-background="new 0 0 796.122 618.129"
	 xml:space="preserve">
<g id="Layer_2">
	<rect x="112.788" y="51.764" fill="none" width="234.359" height="104.616"/>
	<rect x="499.967" y="57.405" fill="none" width="99.487" height="133.846"/>
	<polygon fill="none" points="531.249,250.277 531.249,250.277 542.583,250.277 542.583,229.251 531.249,229.251 	"/>
	<polygon fill="none" points="299.941,252.277 299.941,252.277 311.275,252.277 311.275,231.251 299.941,231.251 	"/>
	<polygon fill="none" points="247.07,252.277 247.07,252.277 258.404,252.277 258.404,231.251 247.07,231.251 	"/>
	<polygon fill="none" points="194.839,252.277 194.839,252.277 206.173,252.277 206.173,231.251 194.839,231.251 	"/>
	<rect x="52.568" y="205.623" fill="none" width="37.118" height="109.705"/>
	<path fill="none" d="M89.686,248.123"/>
	<polygon fill="none" points="247.07,252.277 89.686,252.277 89.686,411.464 369.198,411.464 369.198,328.914 247.43,328.914 	"/>
	<polygon fill="none" points="369.198,328.914 247.43,328.914 247.43,252.277 311.275,252.277 311.275,231.251 369.198,231.251 	"/>
	<rect x="369.198" y="248.688" fill="none" width="126.397" height="80.21"/>
	<polygon fill="none" points="593.301,366.335 593.301,345.848 512.25,345.848 512.25,287.981 643.044,287.981 643.044,366.335 	"/>
	<polygon fill="none" points="512.25,345.848 512.25,398.13 544.583,398.13 544.583,408.898 577.647,408.898 577.647,418.13 
		644.044,418.13 644.044,366.335 593.301,366.335 593.301,345.848 	"/>
	<polygon fill="none" points="644.044,455.59 579.456,455.59 579.456,418.13 642.911,418.13 	"/>
	<path fill="none" d="M544.583,408.898V398.13H512.25v24.103h-16.654v28.716h-37.423v22.077h-88.974v-61.562h-27.861v32.82h-15.474
		v-33.335h-216.41v116.412h13.335c0,0-2.051,70.639,0,70.639s474.359,0,474.359,0V473.025h-18v-64.127H544.583z"/>
	<rect x="458.172" y="425.82" fill="none" width="37.423" height="25.128"/>
	<rect x="418.466" y="411.464" fill="none" width="39.706" height="61.562"/>
	<rect x="369.198" y="411.464" fill="none" width="49.268" height="61.562"/>
	<rect x="369.198" y="328.897" fill="none" width="49.268" height="82.566"/>
	<rect x="418.466" y="356.092" fill="none" width="29.958" height="40.498"/>
	<polygon fill="none" points="470.993,396.59 470.993,384.282 447.916,384.282 447.916,356.092 495.595,356.092 495.595,396.59 	"/>
	<rect x="458.172" y="411.464" fill="none" width="37.423" height="13.844"/>
	<polyline fill="none" points="644.044,304.795 676.327,304.795 699.967,243.379 699.967,226.303 643.044,226.303 643.044,305.098 	
		"/>
	<rect x="243.044" y="174.8" fill="none" width="70.256" height="31.823"/>
	<rect x="88.686" y="527.361" fill="none" width="34.103" height="70.638"/>
	<polygon fill="none" points="27.916,597.999 88.686,597.999 88.686,506.335 44.837,506.335 44.837,534.051 27.916,534.051 	"/>
	<rect x="26.889" y="514.489" fill="none" width="17.951" height="20.183"/>
</g>
<g id="Layer_3">
	<path fill="#FFFFFF" d="M699.455,194.328v10.295h-33.333v21.68h33.846v17.076l-23.076,61.719h-32.847V456.59h-4.333v17.436h-42.564
		v123.974H27.916v-57.306h-7.179v-34.358h68.949V315.328H52.568V204.623h36.379V34.328h280.764V22.534h98.461v9.887h236.41v14.396
		c0,0,68.301,3.167,71.333,73.333C775.916,120.149,776.804,188.867,699.455,194.328z"/>
</g>
<g id="Lines">
	<path fill="#FFFFFF" stroke="#000000" stroke-miterlimit="10" d="M117.714,243.379"/>
	<polyline fill="none" stroke="#000000" stroke-miterlimit="10" points="578.429,248.688 593.301,248.688 593.301,228.175 
		565.609,228.175 565.609,248.688 	"/>
	<rect x="499.967" y="57.405" fill="none" stroke="#000000" stroke-miterlimit="10" width="99.487" height="133.846"/>
	<polyline fill="none" stroke="#000000" stroke-miterlimit="10" points="515.352,191.251 515.352,163.559 499.967,163.559 
		515.352,163.559 515.352,57.405 	"/>
	<polyline fill="none" stroke="#000000" stroke-width="3" stroke-miterlimit="10" points="699.455,194.328 699.455,204.623 
		666.122,204.623 666.122,226.303 699.967,226.303 699.967,243.379 676.891,305.098 674.327,305.098 644.044,305.098 
		644.044,341.482 644.044,456.59 639.711,456.59 639.711,474.025 650.377,474.025 597.147,474.025 597.147,597.999 27.916,597.999 
		27.916,540.693 20.737,540.693 20.737,506.335 88.686,506.335 88.686,341.482 88.686,315.328 52.568,315.328 52.568,204.623 
		88.686,204.623 88.686,34.328 369.711,34.328 369.711,22.534 468.172,22.534 468.172,34.328 704.583,34.328 704.583,46.844 	"/>
	<circle fill="none" stroke="#000000" stroke-width="3" stroke-miterlimit="10" cx="702.583" cy="120.149" r="73.333"/>
	<rect x="360.993" y="150.739" width="27.18" height="53.884"/>
	<rect x="455.352" y="150.739" width="27.18" height="53.884"/>
	<polyline fill="none" stroke="#000000" stroke-miterlimit="10" points="629.25,248.688 624.583,248.688 624.583,228.175 
		643.044,228.175 643.044,305.098 	"/>
	<polygon fill="none" stroke="#000000" stroke-miterlimit="10" points="347.147,156.38 328.173,156.38 112.788,156.38 
		112.788,51.764 347.147,51.764 	"/>
	<line fill="none" stroke="#000000" stroke-miterlimit="10" x1="328.686" y1="51.764" x2="328.686" y2="156.38"/>
	<line fill="none" stroke="#000000" stroke-miterlimit="10" x1="132.788" y1="51.764" x2="132.788" y2="156.38"/>
	<polygon fill="none" stroke="#000000" stroke-miterlimit="10" points="313.301,174.8 243.044,174.8 243.044,206.623 
		266.634,206.623 266.634,174.8 291.25,174.8 291.25,206.623 313.301,206.623 	"/>
	
		<line fill="none" stroke="#000000" stroke-width="2" stroke-miterlimit="10" x1="313.301" y1="206.623" x2="313.301" y2="164.072"/>
	<line fill="none" stroke="#000000" stroke-miterlimit="10" x1="88.686" y1="205.623" x2="156.891" y2="205.623"/>
	<line fill="none" stroke="#000000" stroke-miterlimit="10" x1="247.43" y1="299.667" x2="247.43" y2="231.251"/>
	
		<line fill="none" stroke="#000000" stroke-width="2" stroke-miterlimit="10" x1="192.788" y1="252.277" x2="208.173" y2="252.277"/>
	
		<line fill="none" stroke="#000000" stroke-width="2" stroke-miterlimit="10" x1="192.788" y1="231.251" x2="208.173" y2="231.251"/>
	<line fill="none" stroke="#000000" stroke-miterlimit="10" x1="194.839" y1="231.251" x2="194.839" y2="252.277"/>
	<line fill="none" stroke="#000000" stroke-miterlimit="10" x1="200.48" y1="231.251" x2="200.48" y2="252.277"/>
	<line fill="none" stroke="#000000" stroke-miterlimit="10" x1="206.173" y1="231.251" x2="206.173" y2="252.277"/>
	
		<line fill="none" stroke="#000000" stroke-width="2" stroke-miterlimit="10" x1="245.044" y1="252.277" x2="260.429" y2="252.277"/>
	
		<line fill="none" stroke="#000000" stroke-width="2" stroke-miterlimit="10" x1="245.044" y1="231.251" x2="260.429" y2="231.251"/>
	<line fill="none" stroke="#000000" stroke-miterlimit="10" x1="247.096" y1="231.251" x2="247.096" y2="252.277"/>
	<line fill="none" stroke="#000000" stroke-miterlimit="10" x1="252.737" y1="231.251" x2="252.737" y2="252.277"/>
	<line fill="none" stroke="#000000" stroke-miterlimit="10" x1="258.429" y1="231.251" x2="258.429" y2="252.277"/>
	
		<line fill="none" stroke="#000000" stroke-width="2" stroke-miterlimit="10" x1="297.916" y1="252.277" x2="313.301" y2="252.277"/>
	
		<line fill="none" stroke="#000000" stroke-width="2" stroke-miterlimit="10" x1="297.916" y1="231.251" x2="313.301" y2="231.251"/>
	<line fill="none" stroke="#000000" stroke-miterlimit="10" x1="299.967" y1="231.251" x2="299.967" y2="252.277"/>
	<line fill="none" stroke="#000000" stroke-miterlimit="10" x1="305.608" y1="231.251" x2="305.608" y2="252.277"/>
	<line fill="none" stroke="#000000" stroke-miterlimit="10" x1="311.301" y1="231.251" x2="311.301" y2="252.277"/>
	
		<line fill="none" stroke="#000000" stroke-width="2" stroke-miterlimit="10" x1="529.198" y1="250.277" x2="544.583" y2="250.277"/>
	
		<line fill="none" stroke="#000000" stroke-width="2" stroke-miterlimit="10" x1="529.198" y1="229.251" x2="544.583" y2="229.251"/>
	<line fill="none" stroke="#000000" stroke-miterlimit="10" x1="531.249" y1="229.251" x2="531.249" y2="250.277"/>
	<line fill="none" stroke="#000000" stroke-miterlimit="10" x1="536.89" y1="229.251" x2="536.89" y2="250.277"/>
	<line fill="none" stroke="#000000" stroke-miterlimit="10" x1="542.583" y1="229.251" x2="542.583" y2="250.277"/>
	<line fill="none" stroke="#000000" stroke-miterlimit="10" x1="247.096" y1="237.432" x2="311.301" y2="237.432"/>
	<line fill="none" stroke="#000000" stroke-miterlimit="10" x1="247.096" y1="242.379" x2="311.301" y2="242.379"/>
	<line fill="none" stroke="#000000" stroke-miterlimit="10" x1="247.096" y1="248.123" x2="311.301" y2="248.123"/>
	<rect x="332.45" y="292.277" fill="none" stroke="#000000" stroke-miterlimit="10" width="8.03" height="23.051"/>
	<polygon fill="none" stroke="#000000" stroke-miterlimit="10" points="340.48,285.56 332.45,285.56 332.45,257.354 340.48,228.303 
		350.224,228.303 350.224,239.432 347.147,239.432 340.48,260.431 	"/>
	<line fill="none" stroke="#000000" stroke-miterlimit="10" x1="629.25" y1="203.604" x2="671.506" y2="203.604"/>
	<polyline fill="none" stroke="#000000" stroke-miterlimit="10" points="369.198,243.379 369.198,274.841 385.865,274.841 	"/>
	<polyline fill="none" stroke="#000000" stroke-miterlimit="10" points="369.198,231.251 369.198,228.175 392.788,228.175 
		392.788,248.688 471.762,248.688 471.762,228.175 495.595,228.175 495.595,233.815 	"/>
	<line fill="none" stroke="#000000" stroke-miterlimit="10" x1="495.595" y1="246.123" x2="495.595" y2="288.688"/>
	<line fill="none" stroke="#000000" stroke-miterlimit="10" x1="206.173" y1="237.432" x2="194.839" y2="237.432"/>
	<line fill="none" stroke="#000000" stroke-miterlimit="10" x1="206.173" y1="242.379" x2="194.839" y2="242.379"/>
	<line fill="none" stroke="#000000" stroke-miterlimit="10" x1="206.173" y1="248.123" x2="194.839" y2="248.123"/>
	<line fill="none" stroke="#000000" stroke-miterlimit="10" x1="542.556" y1="235.432" x2="531.223" y2="235.432"/>
	<line fill="none" stroke="#000000" stroke-miterlimit="10" x1="542.556" y1="240.379" x2="531.223" y2="240.379"/>
	<line fill="none" stroke="#000000" stroke-miterlimit="10" x1="542.556" y1="246.123" x2="531.223" y2="246.123"/>
	<line fill="none" stroke="#000000" stroke-miterlimit="10" x1="71.637" y1="292.277" x2="71.637" y2="252.277"/>
	<line fill="none" stroke="#000000" stroke-miterlimit="10" x1="52.568" y1="252.277" x2="89.686" y2="252.277"/>
	<line fill="none" stroke="#000000" stroke-miterlimit="10" x1="52.568" y1="257.962" x2="89.686" y2="257.962"/>
	<line fill="none" stroke="#000000" stroke-miterlimit="10" x1="51.979" y1="263.788" x2="89.686" y2="263.788"/>
	<line fill="none" stroke="#000000" stroke-miterlimit="10" x1="52.568" y1="274.381" x2="89.686" y2="274.381"/>
	<line fill="none" stroke="#000000" stroke-miterlimit="10" x1="52.568" y1="269.32" x2="89.686" y2="269.32"/>
	<line fill="none" stroke="#000000" stroke-miterlimit="10" x1="52.568" y1="280.266" x2="89.686" y2="280.266"/>
	<line fill="none" stroke="#000000" stroke-miterlimit="10" x1="52.568" y1="286.562" x2="89.686" y2="286.562"/>
	<line fill="none" stroke="#000000" stroke-miterlimit="10" x1="52.568" y1="291.977" x2="89.686" y2="291.977"/>
	<polygon points="658.216,252.277 674.844,252.277 662.374,287.981 658.216,287.981 	"/>
	<line fill="none" stroke="#000000" stroke-miterlimit="10" x1="674.372" y1="253.63" x2="692.276" y2="262.37"/>
	<line fill="none" stroke="#000000" stroke-miterlimit="10" x1="671.832" y1="257.17" x2="691.059" y2="266.637"/>
	<line fill="none" stroke="#000000" stroke-miterlimit="10" x1="669.782" y1="261.348" x2="689.009" y2="270.814"/>
	<line fill="none" stroke="#000000" stroke-miterlimit="10" x1="667.613" y1="266.019" x2="686.84" y2="275.485"/>
	<line fill="none" stroke="#000000" stroke-miterlimit="10" x1="666.371" y1="269.978" x2="685.598" y2="279.444"/>
	<line fill="none" stroke="#000000" stroke-miterlimit="10" x1="665.211" y1="274.428" x2="684.439" y2="283.895"/>
	<line fill="none" stroke="#000000" stroke-miterlimit="10" x1="664.812" y1="279.455" x2="684.04" y2="288.922"/>
	<line fill="none" stroke="#000000" stroke-miterlimit="10" x1="662.785" y1="283.645" x2="682.012" y2="293.111"/>
	<line fill="none" stroke="#000000" stroke-miterlimit="10" x1="643.044" y1="252.85" x2="659.423" y2="252.85"/>
	<line fill="none" stroke="#000000" stroke-miterlimit="10" x1="642.911" y1="258" x2="659.29" y2="258"/>
	<line fill="none" stroke="#000000" stroke-miterlimit="10" x1="642.911" y1="263.309" x2="659.29" y2="263.309"/>
	<line fill="none" stroke="#000000" stroke-miterlimit="10" x1="642.911" y1="267.905" x2="659.29" y2="267.905"/>
	<line fill="none" stroke="#000000" stroke-miterlimit="10" x1="642.911" y1="273.098" x2="659.29" y2="273.098"/>
	<line fill="none" stroke="#000000" stroke-miterlimit="10" x1="642.911" y1="277.925" x2="659.29" y2="277.925"/>
	<line fill="none" stroke="#000000" stroke-miterlimit="10" x1="642.911" y1="283.645" x2="659.29" y2="283.645"/>
	<polyline fill="none" stroke="#000000" stroke-miterlimit="10" points="643.044,287.981 512.25,287.981 512.25,345.848 
		583.3,345.848 	"/>
	<polyline fill="none" stroke="#000000" stroke-width="3" stroke-miterlimit="10" points="644.044,366.335 593.301,366.335 
		593.301,345.848 	"/>
	<polyline fill="none" stroke="#000000" stroke-miterlimit="10" points="577.647,408.898 544.583,408.898 544.583,398.13 
		512.25,398.13 512.25,359.668 512.25,422.232 	"/>
	<polyline fill="none" stroke="#000000" stroke-miterlimit="10" points="644.044,418.13 579.456,418.13 579.456,454.54 	"/>
	<line fill="none" stroke="#000000" stroke-miterlimit="10" x1="597.147" y1="473.025" x2="579.456" y2="473.025"/>
	<line fill="none" stroke="#000000" stroke-miterlimit="10" x1="109.453" y1="507.361" x2="109.453" y2="430.438"/>
	<polyline fill="none" stroke="#000000" stroke-miterlimit="10" points="109.453,411.464 325.863,411.464 325.863,444.284 
		313.301,444.284 	"/>
	<line fill="none" stroke="#000000" stroke-miterlimit="10" x1="299.967" y1="444.284" x2="299.967" y2="411.464"/>
	<polyline fill="none" stroke="#000000" stroke-miterlimit="10" points="288.427,444.284 255.094,444.284 271.761,444.284 
		271.761,411.464 	"/>
	<polyline fill="none" stroke="#000000" stroke-miterlimit="10" points="231.968,444.284 198.635,444.284 215.301,444.284 
		215.301,411.464 	"/>
	<line fill="none" stroke="#000000" stroke-miterlimit="10" x1="243.044" y1="444.284" x2="243.044" y2="411.464"/>
	<line fill="none" stroke="#000000" stroke-miterlimit="10" x1="186.376" y1="444.284" x2="186.376" y2="411.464"/>
	<line fill="none" stroke="#000000" stroke-miterlimit="10" x1="122.788" y1="598" x2="122.788" y2="527.361"/>
	<polyline fill="none" stroke="#000000" stroke-miterlimit="10" points="88.686,597.999 88.686,527.361 105.351,527.361 	"/>
	<rect x="26.889" y="514.489" fill="none" stroke="#000000" stroke-miterlimit="10" width="17.949" height="20"/>
	<line fill="none" stroke="#000000" stroke-miterlimit="10" x1="105.351" y1="544.284" x2="105.351" y2="575.566"/>
	<line fill="none" stroke="#000000" stroke-miterlimit="10" x1="88.686" y1="546.849" x2="122.788" y2="546.849"/>
	<line fill="none" stroke="#000000" stroke-miterlimit="10" x1="88.686" y1="551.464" x2="122.788" y2="551.464"/>
	<line fill="none" stroke="#000000" stroke-miterlimit="10" x1="88.686" y1="556.066" x2="122.788" y2="556.066"/>
	<line fill="none" stroke="#000000" stroke-miterlimit="10" x1="88.686" y1="565.59" x2="122.788" y2="565.59"/>
	<line fill="none" stroke="#000000" stroke-miterlimit="10" x1="88.686" y1="560.682" x2="122.788" y2="560.682"/>
	<line fill="none" stroke="#000000" stroke-miterlimit="10" x1="88.686" y1="575.566" x2="122.788" y2="575.566"/>
	<line fill="none" stroke="#000000" stroke-miterlimit="10" x1="88.686" y1="570.658" x2="122.788" y2="570.658"/>
	<line fill="none" stroke="#000000" stroke-miterlimit="10" x1="416.634" y1="275.485" x2="452.019" y2="275.485"/>
	<line fill="none" stroke="#000000" stroke-miterlimit="10" x1="482.532" y1="275.485" x2="495.595" y2="275.485"/>
	<line fill="none" stroke="#000000" stroke-miterlimit="10" x1="434.327" y1="275.485" x2="434.327" y2="248.123"/>
	<polyline fill="none" stroke="#000000" stroke-miterlimit="10" points="341.337,444.284 369.198,444.284 369.198,411.464 
		341.337,411.464 341.337,430.438 	"/>
	<polyline fill="none" stroke="#000000" stroke-miterlimit="10" points="377.532,411.464 445.865,411.464 419.199,411.464 
		419.199,473.025 341.337,473.025 495.595,473.025 495.595,500.692 	"/>
	<polyline fill="none" stroke="#000000" stroke-miterlimit="10" points="341.337,454.54 341.337,500.692 362.66,500.692 	"/>
	<line fill="none" stroke="#000000" stroke-miterlimit="10" x1="372.532" y1="500.692" x2="372.532" y2="473.025"/>
	<polyline fill="none" stroke="#000000" stroke-miterlimit="10" points="383.301,500.692 421.762,500.692 402.532,500.692 
		402.532,473.025 	"/>
	<line fill="none" stroke="#000000" stroke-miterlimit="10" x1="434.327" y1="500.692" x2="434.327" y2="473.025"/>
	<polyline fill="none" stroke="#000000" stroke-miterlimit="10" points="446.377,500.692 485.352,500.692 465.865,500.692 
		465.865,473.025 	"/>
	<line fill="none" stroke="#000000" stroke-miterlimit="10" x1="458.172" y1="473.025" x2="458.172" y2="411.464"/>
	<polyline fill="none" stroke="#000000" stroke-miterlimit="10" points="458.172,425.82 495.595,425.82 495.595,411.464 
		495.595,460.18 495.595,450.948 458.172,450.948 	"/>
	<line fill="none" stroke="#000000" stroke-miterlimit="10" x1="476.883" y1="450.948" x2="476.883" y2="425.82"/>
	<polyline fill="none" stroke="#000000" stroke-miterlimit="10" points="495.595,303.803 495.595,396.59 482.532,396.59 	"/>
	<line fill="none" stroke="#000000" stroke-miterlimit="10" x1="495.595" y1="328.897" x2="388.173" y2="328.897"/>
	<polyline fill="none" stroke="#000000" stroke-miterlimit="10" points="374.583,328.897 369.198,328.897 369.198,285.56 	"/>
	<polyline fill="none" stroke="#000000" stroke-miterlimit="10" points="403.532,273.29 403.532,248.688 370.198,248.688 	"/>
	<polyline fill="none" stroke="#000000" stroke-miterlimit="10" points="430.737,396.59 448.424,396.59 448.424,393 457.703,393 
		457.703,396.59 461.762,396.59 	"/>
	<line fill="none" stroke="#000000" stroke-miterlimit="10" x1="448.424" y1="396.59" x2="448.424" y2="356.092"/>
	<line fill="none" stroke="#000000" stroke-miterlimit="10" x1="418.466" y1="396.59" x2="418.466" y2="328.897"/>
	<path fill="none" stroke="#000000" stroke-miterlimit="10" d="M495.595,356.092"/>
	<polyline fill="none" stroke="#000000" stroke-miterlimit="10" points="247.43,311.229 247.43,328.914 288.427,328.914 	"/>
	<line fill="none" stroke="#000000" stroke-miterlimit="10" x1="304.301" y1="328.914" x2="369.198" y2="328.914"/>
	<rect x="388.173" y="83.56" fill="#FFFFFF" stroke="#000000" stroke-miterlimit="10" width="67.179" height="67.179"/>
	<polyline fill="none" stroke="#000000" stroke-miterlimit="10" points="465.865,274.841 465.865,248.688 495.595,248.688 	"/>
	<polyline fill="none" stroke="#000000" stroke-miterlimit="10" points="89.686,315.328 89.686,229.251 157.891,229.251 
		157.891,248.688 139.173,248.688 	"/>
	<line fill="none" stroke="#000000" stroke-miterlimit="10" x1="110.453" y1="248.688" x2="89.686" y2="248.688"/>
	<line fill="none" stroke="#000000" stroke-miterlimit="10" x1="125.865" y1="250.277" x2="125.865" y2="229.251"/>
	<rect x="418.466" y="328.897" width="77.129" height="27.194"/>
	<polyline fill="none" stroke="#000000" stroke-miterlimit="10" points="448.424,384.282 470.993,384.282 470.993,396.59 	"/>
	<line fill="none" stroke="#000000" stroke-miterlimit="10" x1="644.044" y1="455.59" x2="597.147" y2="455.59"/>
	<line fill="none" stroke="#000000" stroke-miterlimit="10" x1="599.455" y1="435.822" x2="629.25" y2="435.822"/>
	<line fill="none" stroke="#000000" stroke-miterlimit="10" x1="629.25" y1="456.078" x2="629.25" y2="418.13"/>
	<line fill="none" stroke="#000000" stroke-miterlimit="10" x1="624.583" y1="456.078" x2="624.583" y2="418.13"/>
	<line fill="none" stroke="#000000" stroke-miterlimit="10" x1="619.738" y1="456.078" x2="619.738" y2="418.13"/>
	<line fill="none" stroke="#000000" stroke-miterlimit="10" x1="615.071" y1="456.078" x2="615.071" y2="418.13"/>
	<line fill="none" stroke="#000000" stroke-miterlimit="10" x1="610.23" y1="456.078" x2="610.23" y2="418.13"/>
	<line fill="none" stroke="#000000" stroke-miterlimit="10" x1="605.563" y1="456.078" x2="605.563" y2="418.13"/>
	<line fill="none" stroke="#000000" stroke-miterlimit="10" x1="600.905" y1="456.078" x2="600.905" y2="418.13"/>
	<line fill="#FFFFFF" stroke="#000000" stroke-miterlimit="10" x1="369.198" y1="345.848" x2="369.198" y2="393"/>
	<line fill="none" stroke="#000000" stroke-miterlimit="10" x1="369.198" y1="444.284" x2="369.198" y2="473.025"/>
</g>
</svg>
