<?xml version="1.0" encoding="utf-8"?>
<!-- Generator: Adobe Illustrator 16.0.4, SVG Export Plug-In . SVG Version: 6.00 Build 0)  -->
<!DOCTYPE svg PUBLIC "-//W3C//DTD SVG 1.1//EN" "http://www.w3.org/Graphics/SVG/1.1/DTD/svg11.dtd">
<svg version="1.1" xmlns="http://www.w3.org/2000/svg" xmlns:xlink="http://www.w3.org/1999/xlink" x="0px" y="0px"
	 width="711.795px" height="557.949px" viewBox="0 0 711.795 557.949" enable-background="new 0 0 711.795 557.949"
	 xml:space="preserve">
<g id="Layer_2">
	<rect x="216.263" y="155.372" fill="none" width="64.815" height="27.116"/>
	<rect x="464.975" y="123.979" fill="none" width="82.564" height="58.635"/>
	<polygon fill="none" points="579,205.986 579,273.748 608.052,273.748 628.564,217.063 628.564,205.229 	"/>
	<rect x="42.128" y="181.451" fill="none" width="32.263" height="99.164"/>
	<rect x="101.385" y="240.697" fill="none" width="84.473" height="91.206"/>
	<rect x="191.159" y="240.697" fill="none" width="73.252" height="91.206"/>
	<rect x="168.708" y="207.201" fill="none" width="12.211" height="18.533"/>
	<rect x="216.139" y="206.229" fill="none" width="12.211" height="19.505"/>
	<rect x="264.412" y="206.229" fill="none" width="12.211" height="19.505"/>
	<rect x="477.676" y="206.229" fill="none" width="12.211" height="19.505"/>
	<rect x="74.923" y="480.513" fill="none" width="31.023" height="62.738"/>
	<polyline fill="none" points="19.39,485.641 36.923,485.641 36.923,464.103 19.39,464.103 19.512,485.642 	"/>
	<polygon fill="none" points="19.39,490.066 19.39,543.25 74.923,543.25 74.923,460.699 39.486,460.699 39.486,490.066 	"/>
	<rect x="131.795" y="450.256" fill="none" width="32.308" height="75.385"/>
	<rect x="166.998" y="450.256" fill="none" width="207.659" height="75.385"/>
	<rect x="377.236" y="450.256" fill="none" width="136.609" height="75.385"/>
	<rect x="101.385" y="341.851" fill="none" width="44.707" height="90.052"/>
	<rect x="149.757" y="341.851" fill="none" width="138.743" height="90.052"/>
	<polygon fill="none" points="507.744,373.846 538.848,373.846 538.848,325.097 464.975,325.097 464.975,429.744 507.744,429.744 	
		"/>
	<rect x="477.283" y="242.908" fill="none" width="24.615" height="75.906"/>
	<rect x="505.488" y="242.908" fill="none" width="33.359" height="75.906"/>
	<rect x="552.359" y="224.734" fill="none" width="25.103" height="32.762"/>
	<rect x="552.359" y="257.897" fill="none" width="25.103" height="23.559"/>
	<rect x="552.359" y="281.457" fill="none" width="25.103" height="24.884"/>
	<rect x="552.359" y="306.373" fill="none" width="25.103" height="24.884"/>
	<rect x="552.359" y="331.425" fill="none" width="25.103" height="24.884"/>
	<rect x="552.359" y="355.309" fill="none" width="25.103" height="24.884"/>
	<rect x="521.488" y="380.513" fill="none" width="57.512" height="32.82"/>
	<rect x="409.701" y="373.846" fill="none" width="34.991" height="35.385"/>
	<rect x="374.938" y="373.846" fill="none" width="34.763" height="55.897"/>
	<rect x="351.493" y="401.794" fill="none" width="23.445" height="27.949"/>
	<rect x="328.785" y="401.794" fill="none" width="23.445" height="27.949"/>
	<rect x="305.185" y="401.794" fill="none" width="23.445" height="27.949"/>
	<rect x="305.185" y="373.974" fill="none" width="23.445" height="27.949"/>
	<rect x="305.518" y="339.756" fill="none" width="24.344" height="19.372"/>
	<rect x="305.518" y="244.81" fill="none" width="20.636" height="20.267"/>
	<rect x="305.518" y="278.129" fill="none" width="20.636" height="20.267"/>
	<rect x="326.154" y="278.129" fill="none" width="21.456" height="20.267"/>
	<rect x="347.609" y="278.129" fill="none" width="18.715" height="20.267"/>
	<rect x="366.324" y="278.129" fill="none" width="20.049" height="20.267"/>
	<rect x="386.373" y="278.129" fill="none" width="20.049" height="20.267"/>
	<rect x="406.748" y="278.129" fill="none" width="18.11" height="20.267"/>
	<rect x="424.858" y="278.129" fill="none" width="19.834" height="20.267"/>
	<rect x="326.154" y="244.81" fill="none" width="21.456" height="20.267"/>
	<rect x="347.609" y="244.81" fill="none" width="18.715" height="20.267"/>
	<rect x="366.324" y="244.81" fill="none" width="20.049" height="20.267"/>
	<rect x="386.373" y="244.81" fill="none" width="20.049" height="20.267"/>
	<rect x="406.748" y="244.81" fill="none" width="18.11" height="20.267"/>
	<rect x="424.858" y="244.81" fill="none" width="19.887" height="20.267"/>
	<rect x="329.693" y="340.051" fill="none" width="21.634" height="19.077"/>
	<rect x="351.714" y="340.051" fill="none" width="23.529" height="19.077"/>
	<rect x="328.785" y="373.974" fill="none" width="23.157" height="27.949"/>
	<rect x="351.637" y="373.974" fill="none" width="23.158" height="27.949"/>
	<polygon fill="none" points="421.308,359.128 421.308,349.443 375.656,349.443 375.656,322.479 444.745,322.479 444.745,359.128 	
		"/>
	<rect x="305.185" y="298.395" fill="none" width="70.059" height="41.001"/>
</g>
<g id="Layer_3">
	<path fill="#FFFFFF" d="M73.923,27.281h257.897V15.468h89.487v11.812h213.991v11.795c0,0,62.892,8.829,63.08,59.322
		s-38.095,71.449-67.763,71.447v10.77h-34.642v24.615h32.59v11.834l-20.513,56.685H579v139.585h-2.813l0.275,16.476h-37.614V543.25
		H19.39v-52.185h-5.572v-30.367h60.105v-179.57H42.128v-99.514h31.795V27.281z"/>
</g>
<g id="Lines">
	<path fill="#FFFFFF" stroke="#000000" stroke-miterlimit="10" d="M42.439,232.722"/>
	<path fill="none" stroke="#030302" stroke-miterlimit="10" d="M444.692,244.045"/>
	<rect x="370.651" y="217.063" fill="#030302" width="13.171" height="9.041"/>
	<path fill="none" stroke="#000000" stroke-width="2" stroke-miterlimit="10" d="M610.562,179.332"/>
	<polyline fill="none" stroke="#030302" stroke-width="3" stroke-miterlimit="10" points="595.975,180.614 547.539,180.614 
		547.539,123.979 464.975,123.979 464.975,181.614 281.385,181.614 281.385,123.979 215.263,123.979 215.263,181.614 
		42.128,181.614 	"/>
	<polyline fill="none" stroke="#000000" stroke-miterlimit="10" points="347.026,225.204 323.342,225.204 335.184,225.204 
		335.184,205.986 323.342,205.986 347.026,205.986 	"/>
	<polyline fill="none" stroke="#000000" stroke-miterlimit="10" points="431.151,225.204 407.466,225.204 419.309,225.204 
		419.309,205.986 407.466,205.986 431.151,205.986 	"/>
	<line fill="none" stroke="#000000" stroke-miterlimit="10" x1="59.59" y1="224.734" x2="59.59" y2="261.082"/>
	<line fill="none" stroke="#000000" stroke-miterlimit="10" x1="74.392" y1="226.706" x2="41.439" y2="226.706"/>
	<line fill="none" stroke="#000000" stroke-miterlimit="10" x1="74.392" y1="229.601" x2="41.439" y2="229.601"/>
	<line fill="none" stroke="#000000" stroke-miterlimit="10" x1="74.392" y1="232.153" x2="41.439" y2="232.153"/>
	<line fill="none" stroke="#000000" stroke-miterlimit="10" x1="74.392" y1="235.25" x2="41.439" y2="235.25"/>
	<line fill="none" stroke="#000000" stroke-miterlimit="10" x1="74.392" y1="238.145" x2="41.439" y2="238.145"/>
	<line fill="none" stroke="#000000" stroke-miterlimit="10" x1="74.15" y1="240.697" x2="41.439" y2="240.697"/>
	<line fill="none" stroke="#000000" stroke-miterlimit="10" x1="73.949" y1="243.505" x2="41.439" y2="243.505"/>
	<line fill="none" stroke="#000000" stroke-miterlimit="10" x1="73.949" y1="246.399" x2="41.439" y2="246.399"/>
	<line fill="none" stroke="#000000" stroke-miterlimit="10" x1="73.949" y1="248.952" x2="41.439" y2="248.952"/>
	<line fill="none" stroke="#000000" stroke-miterlimit="10" x1="73.949" y1="252.049" x2="41.439" y2="252.049"/>
	<line fill="none" stroke="#000000" stroke-miterlimit="10" x1="73.949" y1="254.943" x2="41.439" y2="254.943"/>
	<line fill="none" stroke="#000000" stroke-miterlimit="10" x1="73.949" y1="257.496" x2="41.439" y2="257.496"/>
	<polyline fill="none" stroke="#030302" stroke-miterlimit="10" points="166.998,206.229 174.807,206.229 182.616,206.229 	"/>
	<polyline fill="none" stroke="#030302" stroke-miterlimit="10" points="166.998,207.201 174.807,207.201 182.616,207.201 	"/>
	<polyline fill="none" stroke="#030302" stroke-miterlimit="10" points="166.998,225.734 174.807,225.734 182.616,225.734 	"/>
	<polyline fill="none" stroke="#030302" stroke-miterlimit="10" points="166.998,226.706 174.807,226.706 182.616,226.706 	"/>
	<line fill="none" stroke="#030302" stroke-miterlimit="10" x1="174.807" y1="227.011" x2="174.807" y2="206.229"/>
	<line fill="none" stroke="#030302" stroke-miterlimit="10" x1="180.919" y1="207.201" x2="180.919" y2="225.734"/>
	<line fill="none" stroke="#030302" stroke-miterlimit="10" x1="168.708" y1="207.201" x2="168.708" y2="225.734"/>
	<line fill="none" stroke="#030302" stroke-miterlimit="10" x1="180.745" y1="211.986" x2="168.825" y2="211.986"/>
	<line fill="none" stroke="#030302" stroke-miterlimit="10" x1="180.745" y1="216.888" x2="168.825" y2="216.888"/>
	<line fill="none" stroke="#030302" stroke-miterlimit="10" x1="180.745" y1="220.601" x2="168.825" y2="220.601"/>
	<polyline fill="none" stroke="#030302" stroke-miterlimit="10" points="214.436,205.229 222.245,205.229 230.054,205.229 	"/>
	<polyline fill="none" stroke="#030302" stroke-miterlimit="10" points="214.436,206.201 222.245,206.201 230.054,206.201 	"/>
	<polyline fill="none" stroke="#030302" stroke-miterlimit="10" points="214.436,224.734 222.245,224.734 230.054,224.734 	"/>
	<polyline fill="none" stroke="#030302" stroke-miterlimit="10" points="214.436,225.706 222.245,225.706 230.054,225.706 	"/>
	<line fill="none" stroke="#030302" stroke-miterlimit="10" x1="222.245" y1="226.011" x2="222.245" y2="205.229"/>
	<line fill="none" stroke="#030302" stroke-miterlimit="10" x1="228.357" y1="206.201" x2="228.357" y2="224.734"/>
	<line fill="none" stroke="#030302" stroke-miterlimit="10" x1="216.146" y1="206.201" x2="216.146" y2="224.734"/>
	<line fill="none" stroke="#030302" stroke-miterlimit="10" x1="228.474" y1="210.986" x2="216.263" y2="210.986"/>
	<line fill="none" stroke="#030302" stroke-miterlimit="10" x1="228.474" y1="215.888" x2="216.263" y2="215.888"/>
	<line fill="none" stroke="#030302" stroke-miterlimit="10" x1="228.474" y1="219.601" x2="216.263" y2="219.601"/>
	<line fill="none" stroke="#030302" stroke-miterlimit="10" x1="276.623" y1="210.986" x2="264.412" y2="210.986"/>
	<line fill="none" stroke="#030302" stroke-miterlimit="10" x1="276.623" y1="215.888" x2="264.412" y2="215.888"/>
	<line fill="none" stroke="#030302" stroke-miterlimit="10" x1="276.623" y1="219.601" x2="264.412" y2="219.601"/>
	<polyline fill="none" stroke="#030302" stroke-miterlimit="10" points="262.73,205.229 270.539,205.229 278.348,205.229 	"/>
	<polyline fill="none" stroke="#030302" stroke-miterlimit="10" points="262.73,206.201 270.539,206.201 278.348,206.201 	"/>
	<polyline fill="none" stroke="#030302" stroke-miterlimit="10" points="262.73,224.734 270.539,224.734 278.348,224.734 	"/>
	<polyline fill="none" stroke="#030302" stroke-miterlimit="10" points="262.73,225.706 270.539,225.706 278.348,225.706 	"/>
	<line fill="none" stroke="#030302" stroke-miterlimit="10" x1="270.539" y1="226.011" x2="270.539" y2="205.229"/>
	<line fill="none" stroke="#030302" stroke-miterlimit="10" x1="276.652" y1="206.201" x2="276.652" y2="224.734"/>
	<line fill="none" stroke="#030302" stroke-miterlimit="10" x1="264.441" y1="206.201" x2="264.441" y2="224.734"/>
	<line fill="none" stroke="#030302" stroke-miterlimit="10" x1="276.478" y1="210.986" x2="264.557" y2="210.986"/>
	<line fill="none" stroke="#030302" stroke-miterlimit="10" x1="276.478" y1="215.888" x2="264.557" y2="215.888"/>
	<line fill="none" stroke="#030302" stroke-miterlimit="10" x1="276.478" y1="219.601" x2="264.557" y2="219.601"/>
	<line fill="none" stroke="#030302" stroke-miterlimit="10" x1="489.865" y1="210.986" x2="477.654" y2="210.986"/>
	<line fill="none" stroke="#030302" stroke-miterlimit="10" x1="489.865" y1="215.888" x2="477.654" y2="215.888"/>
	<line fill="none" stroke="#030302" stroke-miterlimit="10" x1="489.865" y1="219.601" x2="477.654" y2="219.601"/>
	<polyline fill="none" stroke="#030302" stroke-miterlimit="10" points="475.973,205.229 483.781,205.229 491.591,205.229 	"/>
	<polyline fill="none" stroke="#030302" stroke-miterlimit="10" points="475.973,206.201 483.781,206.201 491.591,206.201 	"/>
	<polyline fill="none" stroke="#030302" stroke-miterlimit="10" points="475.973,224.734 483.781,224.734 491.591,224.734 	"/>
	<polyline fill="none" stroke="#030302" stroke-miterlimit="10" points="475.973,225.706 483.781,225.706 491.591,225.706 	"/>
	<line fill="none" stroke="#030302" stroke-miterlimit="10" x1="483.781" y1="226.011" x2="483.781" y2="205.229"/>
	<line fill="none" stroke="#030302" stroke-miterlimit="10" x1="489.895" y1="206.201" x2="489.895" y2="224.734"/>
	<line fill="none" stroke="#030302" stroke-miterlimit="10" x1="477.684" y1="206.201" x2="477.684" y2="224.734"/>
	<line fill="none" stroke="#030302" stroke-miterlimit="10" x1="489.721" y1="210.986" x2="477.8" y2="210.986"/>
	<line fill="none" stroke="#030302" stroke-miterlimit="10" x1="489.721" y1="215.888" x2="477.8" y2="215.888"/>
	<line fill="none" stroke="#030302" stroke-miterlimit="10" x1="489.721" y1="219.601" x2="477.8" y2="219.601"/>
	<path fill="none" stroke="#030302" stroke-miterlimit="10" d="M177.153,227.104"/>
	<polygon fill="none" stroke="#030302" stroke-miterlimit="10" points="101.385,285.777 101.385,240.697 185.858,240.697 
		185.858,285.277 185.858,331.903 101.385,331.903 	"/>
	<polygon fill="none" stroke="#030302" stroke-miterlimit="10" points="264.557,285.277 264.557,240.697 191.159,240.697 
		191.159,285.277 191.159,331.903 264.412,331.903 	"/>
	<polygon fill="none" stroke="#030302" stroke-miterlimit="10" points="477.283,285.277 477.283,242.908 501.898,242.908 
		501.898,285.277 501.898,318.814 477.283,318.814 	"/>
	<polygon fill="none" stroke="#030302" stroke-miterlimit="10" points="505.488,285.777 505.488,242.908 538.848,242.908 
		538.848,285.277 538.848,318.814 505.488,318.814 	"/>
	<polyline fill="none" stroke="#030302" stroke-miterlimit="10" points="305.185,267.023 305.185,238.381 305.185,244.628 
		444.692,244.628 444.692,239.523 444.692,265.652 	"/>
	<polyline fill="none" stroke="#030302" stroke-miterlimit="10" points="281.078,182.488 258.001,182.488 258.001,155.372 
		238,155.372 238,182.488 214.41,182.488 214.41,155.372 214.41,182.488 171.873,182.488 	"/>
	<line fill="none" stroke="#030302" stroke-miterlimit="10" x1="281.078" y1="155.372" x2="214.41" y2="155.372"/>
	<line fill="none" stroke="#030302" stroke-miterlimit="10" x1="464.975" y1="182.614" x2="477.283" y2="182.614"/>
	<line fill="none" stroke="#030302" stroke-miterlimit="10" x1="535.231" y1="181.614" x2="547.54" y2="181.614"/>
	<polyline fill="none" stroke="#030302" stroke-miterlimit="10" points="579,281.128 552.359,281.128 552.359,263.237 	"/>
	<polyline fill="none" stroke="#030302" stroke-miterlimit="10" points="579,306.34 552.359,306.34 552.359,288.449 	"/>
	<polyline fill="none" stroke="#030302" stroke-miterlimit="10" points="579,331.425 552.359,331.425 552.359,313.534 	"/>
	<polyline fill="none" stroke="#030302" stroke-miterlimit="10" points="579,355.554 552.359,355.554 552.359,337.663 	"/>
	<polyline fill="none" stroke="#030302" stroke-miterlimit="10" points="579,257.897 552.359,257.897 552.359,240.007 	"/>
	<line fill="none" stroke="#030302" stroke-miterlimit="10" x1="553.359" y1="224.734" x2="577.462" y2="224.734"/>
	<polyline fill="#FFFFFF" stroke="#030302" stroke-miterlimit="10" points="507.744,225.706 507.744,206.201 535.231,206.201 
		535.231,225.204 521.487,225.204 	"/>
	<polyline fill="none" stroke="#000000" stroke-miterlimit="10" points="96.217,226.358 74.677,226.358 74.677,207.455 
		137.216,207.455 137.216,226.019 119.317,226.019 	"/>
	<line fill="none" stroke="#000000" stroke-miterlimit="10" x1="73.923" y1="280.615" x2="74.923" y2="207.201"/>
	<line fill="none" stroke="#030302" stroke-miterlimit="10" x1="108.396" y1="225.706" x2="108.396" y2="207.201"/>
	<rect x="101.385" y="341.851" fill="none" stroke="#000000" stroke-miterlimit="10" width="44.707" height="90.052"/>
	<rect x="149.757" y="341.851" fill="none" stroke="#000000" stroke-miterlimit="10" width="138.743" height="90.052"/>
	<line fill="none" stroke="#000000" stroke-miterlimit="10" x1="305.185" y1="307.296" x2="305.185" y2="325.097"/>
	<polyline fill="none" stroke="#000000" stroke-miterlimit="10" points="375.243,322.479 375.243,339.756 305.771,339.756 
		305.771,359.128 317.359,359.128 	"/>
	<polyline fill="none" stroke="#000000" stroke-miterlimit="10" points="329.861,339.756 329.861,359.128 340.92,359.128 	"/>
	<polyline fill="none" stroke="#000000" stroke-miterlimit="10" points="351.327,339.756 351.327,359.128 364.939,359.128 	"/>
	<polyline fill="none" stroke="#000000" stroke-miterlimit="10" points="375.243,339.756 375.243,359.128 380,359.128 380,354.359 
		391.642,354.359 391.642,359.128 407.466,359.128 	"/>
	<polyline fill="none" stroke="#000000" stroke-miterlimit="10" points="414.871,359.128 421.308,359.128 421.308,349.443 
		431.151,349.443 375.243,349.443 	"/>
	<polyline fill="none" stroke="#000000" stroke-miterlimit="10" points="316.41,373.846 305.771,373.846 305.771,401.794 
		305.771,429.744 319.052,429.744 	"/>
	<polyline fill="none" stroke="#000000" stroke-miterlimit="10" points="339.39,373.846 328.751,373.846 328.751,429.744 
		342.031,429.744 	"/>
	<polyline fill="none" stroke="#000000" stroke-miterlimit="10" points="362.132,373.846 351.493,373.846 351.493,429.744 
		364.773,429.744 	"/>
	<polyline fill="none" stroke="#000000" stroke-miterlimit="10" points="397.436,373.846 374.938,373.846 374.938,429.744 
		413.333,429.744 	"/>
	<line fill="none" stroke="#000000" stroke-miterlimit="10" x1="305.771" y1="401.794" x2="374.656" y2="401.794"/>
	<polyline fill="none" stroke="#000000" stroke-miterlimit="10" points="409.701,373.846 409.701,429.744 409.701,409.231 
		444.692,409.231 444.692,429.744 427.197,429.744 	"/>
	<polyline fill="none" stroke="#000000" stroke-miterlimit="10" points="409.701,386.876 444.745,386.876 444.745,373.846 
		444.745,409.231 427.197,409.231 427.197,386.876 	"/>
	<polygon fill="none" stroke="#000000" stroke-miterlimit="10" points="464.975,325.097 538.848,325.097 538.848,373.846 
		507.744,373.846 507.744,429.744 464.975,429.744 	"/>
	<rect x="377.236" y="450.256" fill="none" stroke="#000000" stroke-miterlimit="10" width="136.609" height="75.385"/>
	<rect x="166.998" y="450.256" fill="none" stroke="#000000" stroke-miterlimit="10" width="207.659" height="75.385"/>
	<rect x="131.795" y="450.256" fill="none" stroke="#000000" stroke-miterlimit="10" width="32.308" height="75.385"/>
	<polyline fill="none" stroke="#030302" stroke-miterlimit="10" points="521.488,413.333 521.488,380.513 579,380.513 
		552.359,380.513 552.359,362.564 	"/>
	<line fill="none" stroke="#030302" stroke-miterlimit="10" x1="535.231" y1="412.333" x2="576.462" y2="412.333"/>
	<line fill="none" stroke="#030302" stroke-miterlimit="10" x1="521.488" y1="428.744" x2="538.848" y2="428.744"/>
	<line fill="none" stroke="#030302" stroke-miterlimit="10" x1="538.848" y1="396.923" x2="566.744" y2="396.923"/>
	<polyline fill="none" stroke="#030302" stroke-miterlimit="10" points="105.946,543.251 105.946,480.513 110.769,480.513 	"/>
	<polyline fill="none" stroke="#030302" stroke-miterlimit="10" points="74.923,543.25 74.923,476.923 74.923,480.513 
		90.256,480.513 	"/>
	<line fill="none" stroke="#030302" stroke-miterlimit="10" x1="90.256" y1="525.641" x2="90.256" y2="495.385"/>
	<line fill="none" stroke="#030302" stroke-miterlimit="10" x1="74.923" y1="495.799" x2="105.946" y2="495.799"/>
	<line fill="none" stroke="#030302" stroke-miterlimit="10" x1="74.923" y1="501.44" x2="105.946" y2="501.44"/>
	<line fill="none" stroke="#030302" stroke-miterlimit="10" x1="74.923" y1="506.825" x2="105.946" y2="506.825"/>
	<line fill="none" stroke="#030302" stroke-miterlimit="10" x1="74.923" y1="512.355" x2="105.946" y2="512.355"/>
	<line fill="none" stroke="#030302" stroke-miterlimit="10" x1="74.923" y1="517.996" x2="105.946" y2="517.996"/>
	<line fill="none" stroke="#030302" stroke-miterlimit="10" x1="74.923" y1="523.38" x2="105.946" y2="523.38"/>
	<line fill="none" stroke="#030302" stroke-miterlimit="10" x1="538.569" y1="412.434" x2="538.569" y2="381.412"/>
	<line fill="none" stroke="#030302" stroke-miterlimit="10" x1="544.21" y1="412.434" x2="544.21" y2="381.412"/>
	<line fill="none" stroke="#030302" stroke-miterlimit="10" x1="549.595" y1="412.434" x2="549.595" y2="381.412"/>
	<line fill="none" stroke="#030302" stroke-miterlimit="10" x1="555.125" y1="412.434" x2="555.125" y2="381.412"/>
	<line fill="none" stroke="#030302" stroke-miterlimit="10" x1="560.766" y1="412.434" x2="560.766" y2="381.412"/>
	<line fill="none" stroke="#030302" stroke-miterlimit="10" x1="566.15" y1="412.434" x2="566.15" y2="381.412"/>
	<line fill="none" stroke="#030302" stroke-miterlimit="10" x1="580.463" y1="229.714" x2="595.975" y2="229.714"/>
	<line fill="none" stroke="#030302" stroke-miterlimit="10" x1="580.463" y1="235.355" x2="595.975" y2="235.355"/>
	<line fill="none" stroke="#030302" stroke-miterlimit="10" x1="580.463" y1="240.74" x2="595.975" y2="240.74"/>
	<line fill="none" stroke="#030302" stroke-miterlimit="10" x1="580.463" y1="246.27" x2="595.975" y2="246.27"/>
	<line fill="none" stroke="#030302" stroke-miterlimit="10" x1="580.463" y1="251.911" x2="595.975" y2="251.911"/>
	<line fill="none" stroke="#030302" stroke-miterlimit="10" x1="580.463" y1="257.295" x2="595.975" y2="257.295"/>
	<line fill="none" stroke="#030302" stroke-miterlimit="10" x1="608.59" y1="230.939" x2="622.192" y2="236.024"/>
	<line fill="none" stroke="#030302" stroke-miterlimit="10" x1="606.614" y1="236.223" x2="620.217" y2="241.308"/>
	<line fill="none" stroke="#030302" stroke-miterlimit="10" x1="604.729" y1="241.267" x2="618.332" y2="246.352"/>
	<line fill="none" stroke="#030302" stroke-miterlimit="10" x1="602.792" y1="246.447" x2="616.395" y2="251.532"/>
	<line fill="none" stroke="#030302" stroke-miterlimit="10" x1="600.816" y1="251.73" x2="614.42" y2="256.815"/>
	<line fill="none" stroke="#030302" stroke-miterlimit="10" x1="598.932" y1="256.774" x2="612.534" y2="261.86"/>
	<line fill="none" stroke="#030302" stroke-miterlimit="10" x1="19.39" y1="490.066" x2="74.615" y2="490.066"/>
	<rect x="19.39" y="464.103" fill="none" stroke="#030302" stroke-miterlimit="10" width="17.533" height="21.538"/>
	<polyline fill="none" stroke="#030302" stroke-miterlimit="10" points="322.217,244.071 322.217,236.223 322.217,240.007 
		358.133,240.007 358.133,244.628 	"/>
	<polyline fill="none" stroke="#030302" stroke-miterlimit="10" points="326.154,298.395 326.154,278.128 319.052,278.128 	"/>
	<polyline fill="none" stroke="#030302" stroke-miterlimit="10" points="347.609,298.395 347.609,278.128 340.507,278.128 	"/>
	<polyline fill="none" stroke="#030302" stroke-miterlimit="10" points="366.324,298.395 366.324,278.128 359.223,278.128 	"/>
	<polyline fill="none" stroke="#030302" stroke-miterlimit="10" points="386.373,298.395 386.373,278.128 379.271,278.128 	"/>
	<polyline fill="none" stroke="#030302" stroke-miterlimit="10" points="406.748,298.395 406.748,278.128 399.646,278.128 	"/>
	<polyline fill="none" stroke="#030302" stroke-miterlimit="10" points="424.858,298.395 424.858,278.128 417.757,278.128 	"/>
	<line fill="none" stroke="#030302" stroke-miterlimit="10" x1="431.151" y1="278.128" x2="424.858" y2="278.128"/>
	<polyline fill="none" stroke="#030302" stroke-miterlimit="10" points="326.154,244.81 326.154,265.077 319.052,265.077 	"/>
	<polyline fill="none" stroke="#030302" stroke-miterlimit="10" points="347.609,244.81 347.609,265.077 340.507,265.077 	"/>
	<polyline fill="none" stroke="#030302" stroke-miterlimit="10" points="366.324,244.81 366.324,265.077 359.223,265.077 	"/>
	<polyline fill="none" stroke="#030302" stroke-miterlimit="10" points="386.373,244.81 386.373,265.077 379.271,265.077 	"/>
	<polyline fill="none" stroke="#030302" stroke-miterlimit="10" points="406.748,244.81 406.748,265.077 399.646,265.077 	"/>
	<polyline fill="none" stroke="#030302" stroke-miterlimit="10" points="424.858,244.81 424.858,265.077 417.757,265.077 	"/>
	<line fill="none" stroke="#030302" stroke-miterlimit="10" x1="431.151" y1="265.077" x2="424.858" y2="265.077"/>
	<path fill="none" stroke="#030302" stroke-width="3" stroke-miterlimit="10" d="M626.207,39.076c99.487,0,93.333,130.769,0,130.769
		"/>
	<path fill="none" stroke="#030302" stroke-width="2" stroke-miterlimit="10" d="M566.744,205.229"/>
	<path fill="none" stroke="#030302" stroke-linecap="round" stroke-linejoin="round" stroke-miterlimit="10" d="M610.562,167.317"/>
	<path fill="none" stroke="#030302" stroke-linecap="round" stroke-linejoin="round" stroke-miterlimit="10" d="M610.562,180.614"/>
	<polyline fill="none" stroke="#030302" stroke-width="3" stroke-miterlimit="10" points="635.299,39.076 635.299,27.281 
		421.308,27.281 421.308,15.468 397.975,15.468 355.411,15.468 331.821,15.468 331.821,27.281 73.923,27.281 73.95,181.451 
		42.128,181.433 42.128,280.615 73.923,280.615 74.423,285.777 	"/>
	<path fill="none" stroke="#030302" stroke-miterlimit="10" d="M183.153,285.277"/>
	<path fill="none" stroke="#030302" stroke-width="2" stroke-miterlimit="10" d="M421.308,27.281"/>
	<path fill="none" stroke="#030302" stroke-miterlimit="10" d="M96.488,225.204"/>
	<path fill="none" stroke="#030302" stroke-miterlimit="10" d="M74.949,225.204"/>
	<polygon fill="#030302" points="595.975,228.086 610.562,228.086 600.077,260.056 595.975,260.056 	"/>
	<polyline fill="none" stroke="#030302" stroke-width="3" stroke-miterlimit="10" points="630.616,169.845 630.616,180.614 
		595.975,180.614 595.975,205.229 628.564,205.229 628.564,217.063 608.052,273.748 579,273.748 579,285.277 579,413.055 
		584.312,413.055 576.462,413.055 576.462,429.809 584.835,429.809 538.848,429.809 538.848,543.25 19.39,543.25 19.39,491.066 
		13.818,491.066 13.818,460.699 74.392,460.699 74.392,280.615 62.102,280.615 	"/>
	<polyline fill="none" stroke="#030302" stroke-width="3" stroke-miterlimit="10" points="579,273.748 579,205.986 564.41,205.986 	
		"/>
	<polyline fill="none" stroke="#030302" stroke-miterlimit="10" points="433.526,359.128 444.745,359.128 444.745,298.395 	"/>
	<polygon fill="#030302" points="444.745,322.479 374.656,322.479 374.656,298.395 444.709,298.395 	"/>
	<polyline fill="none" stroke="#030302" stroke-miterlimit="10" points="305.185,278.128 305.185,298.395 444.745,298.395 
		444.745,278.128 	"/>
	<path fill="#030302" d="M375.656,337.663"/>
	<path fill="#030302" d="M391.642,331.903"/>
</g>
</svg>
