<?xml version="1.0" encoding="utf-8"?>
<!-- Generator: Adobe Illustrator 16.0.4, SVG Export Plug-In . SVG Version: 6.00 Build 0)  -->
<!DOCTYPE svg PUBLIC "-//W3C//DTD SVG 1.1//EN" "http://www.w3.org/Graphics/SVG/1.1/DTD/svg11.dtd">
<svg version="1.1" xmlns="http://www.w3.org/2000/svg" xmlns:xlink="http://www.w3.org/1999/xlink" x="0px" y="0px"
	 width="726.154px" height="563.589px" viewBox="0 0 726.154 563.589" enable-background="new 0 0 726.154 563.589"
	 xml:space="preserve">
<g id="Layer_4">
	<path fill="none" d="M105.128,33.291H336.41V21.479h14.386v59.511c0,0-19,4.528-35.411-5.923c0,0-5.179,50.081-39.256,76.225v9.666
		h-66.386v-19.445h-82.564v46.138h-22.049V33.291z"/>
	<rect x="80.513" y="35.084" fill="none" width="24.616" height="23.828"/>
	<polygon fill="none" points="80.513,60.098 105.128,58.912 105.128,83.077 81.538,83.077 	"/>
	<polygon fill="none" points="106.128,138.912 81.538,138.912 81.538,81.989 105.641,81.989 	"/>
	<rect x="81.538" y="137.949" fill="none" width="23.59" height="23.009"/>
	<polygon fill="none" points="80.513,187.137 80.513,160.958 105.128,160.958 105.128,187.651 	"/>
	<rect x="127.178" y="141.513" fill="none" width="82.564" height="46.138"/>
	<polygon fill="none" points="221.025,161.026 221.025,189.188 285.642,189.188 285.642,160.958 	"/>
	<polygon fill="none" points="50.718,301.95 81.513,301.95 81.513,212.211 49.028,212.211 	"/>
	<rect x="81.538" y="212.211" fill="none" width="39.486" height="20.432"/>
	<rect x="121.024" y="212.211" fill="none" width="29.231" height="20.432"/>
	<rect x="81.538" y="232.5" fill="none" width="108.204" height="55.786"/>
	<rect x="81.538" y="288.206" fill="none" width="27.153" height="31.452"/>
	<rect x="108.448" y="288.206" fill="none" width="27.153" height="31.452"/>
	<rect x="135.679" y="288.206" fill="none" width="25.858" height="31.452"/>
	<rect x="161.537" y="288.206" fill="none" width="28.205" height="31.452"/>
	<polygon fill="none" points="111.794,541.533 111.794,483.077 80.513,483.077 80.513,319.658 189.742,319.658 189.742,232.5 
		380.614,232.5 380.614,433.2 336.923,433.2 336.923,541.533 	"/>
	<rect x="336.923" y="433.2" fill="none" width="205.56" height="108.333"/>
	<rect x="80.513" y="483.077" fill="none" width="31.282" height="43.353"/>
	<polygon fill="none" points="80.513,527.926 80.513,464.616 42.539,464.616 42.539,488.206 28.718,488.206 28.718,526.429 	"/>
	<polygon fill="none" points="42.539,488.206 25.884,488.206 25.884,467.692 42.051,467.692 	"/>
	<rect x="181.298" y="212.211" fill="none" width="12.211" height="18.533"/>
	<rect x="225.433" y="212.211" fill="none" width="12.211" height="18.533"/>
	<rect x="270.023" y="212.211" fill="none" width="12.211" height="18.533"/>
	<rect x="485.176" y="207.211" fill="none" width="12.211" height="18.533"/>
	<rect x="355.398" y="212.022" fill="none" width="60.499" height="21.093"/>
	<polygon fill="none" points="378.614,232.5 415.897,232.5 415.897,301.95 378.662,301.95 	"/>
	<rect x="415.948" y="212.668" fill="none" width="35.334" height="48.059"/>
	<rect x="415.897" y="260.727" fill="none" width="35.385" height="41.165"/>
	<polygon fill="none" points="380.513,352.308 451.282,352.308 451.282,325.387 381.026,325.387 	"/>
	<rect x="380.513" y="377.471" fill="none" width="35.384" height="55.729"/>
	<polyline fill="none" points="451.282,391.282 416.411,391.282 416.411,412.308 451.616,412.308 451.616,392.644 	"/>
	<rect x="525.924" y="382.679" fill="none" width="58.665" height="34.668"/>
	<path fill="none" d="M525.924,433.2v-68.75h-34.643c0,0,0-133.705,0-137.429c-4.103,0-39.666,0-39.666,0V433.2H525.924z"/>
	<polygon fill="none" points="584.589,231.214 584.589,364.45 491.282,364.45 491.282,227.021 525.924,227.021 525.924,231.214 	"/>
	<rect x="528.322" y="212.211" fill="none" width="24.226" height="19.003"/>
	<rect x="552.547" y="212.211" fill="none" width="32.042" height="19.003"/>
	<polygon fill="none" points="634.872,208.163 584.589,208.163 584.589,278.398 616.329,278.398 634.872,221.497 	"/>
	<path fill="none" d="M584.589,185.342v-35.794c0,0,14.873,20.981,52.334,27.358v9.719L584.589,185.342z"/>
	<path fill="none" d="M573.419,110.47c-0.961,35.984,28.962,66.436,63.504,66.436s69.535-31.579,68.199-68.957
		c-1.404-39.29-33.657-62.863-68.199-62.863C599.487,45.086,574.341,75.94,573.419,110.47z"/>
	<path fill="none" d="M584.589,70.727V33.291h57.299v11.795C641.888,45.086,611.794,42.838,584.589,70.727z"/>
	<polygon fill="none" points="509.641,63.508 584.589,63.314 584.589,33.282 509.852,33.282 	"/>
	<rect x="413.833" y="33.804" fill="none" width="95.911" height="53.313"/>
	<polygon fill="none" points="350.385,67.949 414.333,67.949 414.333,33.804 425.897,33.804 425.897,21.479 350.796,21.479 	"/>
	<polygon fill="none" points="350.591,66.949 414.333,66.949 414.333,212.171 351.001,212.171 	"/>
	<path fill="none" d="M286.642,149.958h64.743V86.154c0,0-11.414,3.979-31.412-4.165
		C319.973,81.989,311.771,128.634,286.642,149.958z"/>
	<path fill="none" d="M413.333,87.117v55.428h24.64v-7.862h139.463c0,0-7.755-26.198,0.481-47.566H413.333z"/>
	<rect x="438.461" y="133.783" fill="none" width="62.795" height="55.405"/>
	<polygon fill="none" points="500.553,187.692 531.96,187.692 531.96,135.938 500.256,135.938 	"/>
	<path fill="none" d="M577.117,133.507c0,0,6.01,12.451,6.694,15.258l-0.278,38.886l-52.171,0.042v-54.186H577.117z"/>
	<rect x="509.744" y="62.314" fill="none" width="20.513" height="23.84"/>
</g>
<g id="Layer_3">
	<path fill="#FFFFFF" d="M80.513,33.291H336.41V21.479h89.487v11.812h215.991v11.795c0,0,59.101,2.608,63.222,62.607
		c0,0,2.582,58.454-68.187,69.212v9.719h-30.257v21.538h28.205v13.334l-18.975,56.41h-31.308v138.626h-2.339V433.2h-39.768v108.333
		H25.884v-48.958h-4.125v-29.167h58.215V302.051H48.718V187.137h31.795V33.291z"/>
</g>
<g id="Major_Lines">
	<polyline fill="none" stroke="#030302" stroke-width="3" stroke-miterlimit="10" points="360,21.479 336.41,21.479 336.41,33.291 
		80.513,33.291 80.513,187.137 48.718,187.137 48.718,286.625 65.128,286.625 65.128,232.643 	"/>
	<path fill="none" stroke="#030302" stroke-width="3" stroke-miterlimit="10" d="M632.796,45.086c99.487,0,93.333,130.769,0,130.769
		"/>
	<polyline fill="none" stroke="#030302" stroke-width="3" stroke-miterlimit="10" points="636.923,176.906 636.923,186.625 
		606.667,186.625 606.667,193.778 	"/>
	<rect x="413.333" y="141.496" fill="#030302" width="25.128" height="47.692"/>
	<rect x="221.025" y="160.958" fill="none" stroke="#030302" stroke-miterlimit="10" width="21.026" height="28.23"/>
	<rect x="264.616" y="160.958" fill="none" stroke="#030302" stroke-miterlimit="10" width="21.026" height="28.23"/>
	<line fill="none" stroke="#030302" stroke-miterlimit="10" x1="242.051" y1="160.958" x2="264.616" y2="160.958"/>
	<polyline fill="none" stroke="#030302" stroke-miterlimit="10" points="121.024,212.668 121.024,232.643 150.255,232.643 	"/>
	<line fill="none" stroke="#030302" stroke-width="2" stroke-miterlimit="10" x1="80.513" y1="187.651" x2="143.076" y2="187.651"/>
	<line fill="none" stroke="#030302" stroke-width="2" stroke-miterlimit="10" x1="327.693" y1="211.24" x2="352.821" y2="211.24"/>
	<path fill="none" stroke="#030302" stroke-width="2" stroke-miterlimit="10" d="M339.257,211.24"/>
	<polyline fill="none" stroke="#030302" stroke-width="3" stroke-miterlimit="10" points="525.924,231.214 584.589,231.214 
		584.589,293.163 584.589,277.907 615.897,277.907 634.872,221.497 634.872,208.163 621.795,208.163 	"/>
	<line fill="none" stroke="#030302" stroke-miterlimit="10" x1="437.973" y1="141.496" x2="437.973" y2="131.731"/>
	<line fill="none" stroke="#030302" stroke-miterlimit="10" x1="413.833" y1="141.568" x2="413.833" y2="131.804"/>
	<rect x="327.693" y="141.496" fill="#030302" width="25.128" height="47.692"/>
	<polyline fill="none" stroke="#030302" stroke-miterlimit="10" points="179.587,211.24 187.396,211.24 195.205,211.24 	"/>
	<polyline fill="none" stroke="#030302" stroke-miterlimit="10" points="179.587,212.211 187.396,212.211 195.205,212.211 	"/>
	<polyline fill="none" stroke="#030302" stroke-miterlimit="10" points="179.587,230.745 187.396,230.745 195.205,230.745 	"/>
	<polyline fill="none" stroke="#030302" stroke-miterlimit="10" points="179.587,231.716 187.396,231.716 195.205,231.716 	"/>
	<line fill="none" stroke="#030302" stroke-miterlimit="10" x1="187.396" y1="232.021" x2="187.396" y2="211.24"/>
	<line fill="none" stroke="#030302" stroke-miterlimit="10" x1="193.509" y1="212.211" x2="193.509" y2="230.745"/>
	<line fill="none" stroke="#030302" stroke-miterlimit="10" x1="181.298" y1="212.211" x2="181.298" y2="230.745"/>
	<line fill="none" stroke="#030302" stroke-miterlimit="10" x1="193.334" y1="216.997" x2="181.414" y2="216.997"/>
	<line fill="none" stroke="#030302" stroke-miterlimit="10" x1="193.334" y1="221.898" x2="181.414" y2="221.898"/>
	<line fill="none" stroke="#030302" stroke-miterlimit="10" x1="193.334" y1="225.611" x2="181.414" y2="225.611"/>
	<polyline fill="none" stroke="#030302" stroke-miterlimit="10" points="223.025,211.24 230.834,211.24 238.643,211.24 	"/>
	<polyline fill="none" stroke="#030302" stroke-miterlimit="10" points="223.025,212.211 230.834,212.211 238.643,212.211 	"/>
	<polyline fill="none" stroke="#030302" stroke-miterlimit="10" points="223.025,230.745 230.834,230.745 238.643,230.745 	"/>
	<polyline fill="none" stroke="#030302" stroke-miterlimit="10" points="223.025,231.716 230.834,231.716 238.643,231.716 	"/>
	<line fill="none" stroke="#030302" stroke-miterlimit="10" x1="230.834" y1="232.021" x2="230.834" y2="211.24"/>
	<line fill="none" stroke="#030302" stroke-miterlimit="10" x1="236.947" y1="212.211" x2="236.947" y2="230.745"/>
	<line fill="none" stroke="#030302" stroke-miterlimit="10" x1="224.736" y1="212.211" x2="224.736" y2="230.745"/>
	<line fill="none" stroke="#030302" stroke-miterlimit="10" x1="270.146" y1="216.997" x2="224.852" y2="216.997"/>
	<line fill="none" stroke="#030302" stroke-miterlimit="10" x1="270.146" y1="221.898" x2="224.852" y2="221.898"/>
	<line fill="none" stroke="#030302" stroke-miterlimit="10" x1="270.146" y1="225.611" x2="224.852" y2="225.611"/>
	<polyline fill="none" stroke="#030302" stroke-miterlimit="10" points="268.319,211.24 276.128,211.24 283.938,211.24 	"/>
	<polyline fill="none" stroke="#030302" stroke-miterlimit="10" points="268.319,212.211 276.128,212.211 283.938,212.211 	"/>
	<polyline fill="none" stroke="#030302" stroke-miterlimit="10" points="268.319,230.745 276.128,230.745 283.938,230.745 	"/>
	<polyline fill="none" stroke="#030302" stroke-miterlimit="10" points="268.319,231.716 276.128,231.716 283.938,231.716 	"/>
	<line fill="none" stroke="#030302" stroke-miterlimit="10" x1="276.128" y1="232.021" x2="276.128" y2="211.24"/>
	<line fill="none" stroke="#030302" stroke-miterlimit="10" x1="282.241" y1="212.211" x2="282.241" y2="230.745"/>
	<line fill="none" stroke="#030302" stroke-miterlimit="10" x1="270.03" y1="212.211" x2="270.03" y2="230.745"/>
	<line fill="none" stroke="#030302" stroke-miterlimit="10" x1="282.067" y1="216.997" x2="270.146" y2="216.997"/>
	<line fill="none" stroke="#030302" stroke-miterlimit="10" x1="282.067" y1="221.898" x2="270.146" y2="221.898"/>
	<line fill="none" stroke="#030302" stroke-miterlimit="10" x1="282.067" y1="225.611" x2="270.146" y2="225.611"/>
	<polyline fill="none" stroke="#030302" stroke-miterlimit="10" points="483.638,206.24 491.448,206.24 499.256,206.24 	"/>
	<polyline fill="none" stroke="#030302" stroke-miterlimit="10" points="483.638,207.211 491.448,207.211 499.256,207.211 	"/>
	<polyline fill="none" stroke="#030302" stroke-miterlimit="10" points="483.638,225.745 491.448,225.745 499.256,225.745 	"/>
	<polyline fill="none" stroke="#030302" stroke-miterlimit="10" points="483.638,226.716 491.448,226.716 499.256,226.716 	"/>
	<line fill="none" stroke="#030302" stroke-miterlimit="10" x1="491.448" y1="227.021" x2="491.448" y2="206.24"/>
	<line fill="none" stroke="#030302" stroke-miterlimit="10" x1="497.56" y1="207.211" x2="497.56" y2="225.745"/>
	<line fill="none" stroke="#030302" stroke-miterlimit="10" x1="485.349" y1="207.211" x2="485.349" y2="225.745"/>
	<line fill="none" stroke="#030302" stroke-miterlimit="10" x1="497.385" y1="211.997" x2="485.465" y2="211.997"/>
	<line fill="none" stroke="#030302" stroke-miterlimit="10" x1="497.385" y1="216.898" x2="485.465" y2="216.898"/>
	<line fill="none" stroke="#030302" stroke-miterlimit="10" x1="497.385" y1="220.611" x2="485.465" y2="220.611"/>
	<line fill="none" stroke="#030302" stroke-miterlimit="10" x1="584.589" y1="33.291" x2="584.589" y2="70.727"/>
	<path fill="none" stroke="#030302" stroke-width="3" stroke-linecap="round" stroke-linejoin="round" stroke-miterlimit="10" d="
		M591.977,63.514c-5.641,5.675-8.23,10.29-8.23,10.29"/>
	<path fill="none" stroke="#030302" stroke-width="3" stroke-linecap="round" stroke-linejoin="round" stroke-miterlimit="10" d="
		M573.333,100.619c0,0-2.546,11.976,1.047,22.583"/>
	<path fill="none" stroke="#030302" stroke-width="3" stroke-linecap="round" stroke-linejoin="round" stroke-miterlimit="10" d="
		M582.25,143.56c0,0,2.339,7.015,9.727,11.976"/>
	<path fill="none" stroke="#030302" stroke-width="3" stroke-linecap="round" stroke-linejoin="round" stroke-miterlimit="10" d="
		M607.57,167.169c0,0,3.422,3.167,11.463,5.132"/>
	
		<line fill="none" stroke="#030302" stroke-linecap="round" stroke-linejoin="round" stroke-miterlimit="10" x1="617.151" y1="186.625" x2="617.151" y2="173.328"/>
	<polyline fill="none" stroke="#030302" stroke-width="3" stroke-miterlimit="10" points="402.564,21.479 425.897,21.479 
		425.897,33.291 641.888,33.291 641.888,45.086 	"/>
	<polyline fill="none" stroke="#030302" stroke-miterlimit="10" points="81.538,301.95 81.538,212.211 150.255,212.211 
		150.255,216.997 	"/>
	<line fill="none" stroke="#030302" stroke-miterlimit="10" x1="82.538" y1="233.115" x2="108.691" y2="233.115"/>
	<line fill="none" stroke="#030302" stroke-miterlimit="10" x1="189.742" y1="291.287" x2="189.742" y2="232.115"/>
	<polyline fill="none" stroke="#030302" stroke-miterlimit="10" points="127.178,187.651 127.178,141.568 167.178,141.568 	"/>
	<polyline fill="none" stroke="#030302" stroke-miterlimit="10" points="181.414,141.496 209.742,141.496 209.742,188.188 
		161.537,188.188 	"/>
	
		<line fill="none" stroke="#030302" stroke-width="3" stroke-miterlimit="10" x1="285.642" y1="149.958" x2="285.642" y2="189.188"/>
	<line fill="none" stroke="#030302" stroke-width="2" stroke-miterlimit="10" x1="350.796" y1="21.479" x2="350.796" y2="48.69"/>
	<line fill="none" stroke="#030302" stroke-width="2" stroke-miterlimit="10" x1="350.796" y1="60.964" x2="350.796" y2="89.169"/>
	<line fill="none" stroke="#030302" stroke-width="2" stroke-miterlimit="10" x1="350.796" y1="68.659" x2="360" y2="68.659"/>
	<path fill="none" stroke="#030302" stroke-width="2" stroke-miterlimit="10" d="M350.796,86.092c0,0-18.49,3.077-31.823-4.103
		c0,0-4.564,41.212-34.23,68.969"/>
	<path fill="none" stroke="#030302" stroke-width="2" stroke-miterlimit="10" d="M276.128,151.292c0,0,34.128-23.148,39.205-76.225
		c0,0,17.218,11.094,35.462,5.923"/>
	<polyline fill="none" stroke="#030302" stroke-width="2" stroke-miterlimit="10" points="81.538,160.958 105.128,160.958 
		105.128,149.958 105.128,179.976 	"/>
	<line fill="none" stroke="#030302" stroke-width="2" stroke-miterlimit="10" x1="81.538" y1="138.912" x2="105.128" y2="138.912"/>
	<polyline fill="none" stroke="#030302" stroke-width="2" stroke-miterlimit="10" points="81.538,81.989 105.128,81.989 
		105.128,68.659 	"/>
	<line fill="none" stroke="#030302" stroke-width="2" stroke-miterlimit="10" x1="80.513" y1="58.912" x2="105.128" y2="58.912"/>
	<line fill="none" stroke="#030302" stroke-width="2" stroke-miterlimit="10" x1="105.128" y1="34.324" x2="105.128" y2="48.69"/>
	<polyline fill="none" stroke="#030302" stroke-width="2" stroke-miterlimit="10" points="425.897,33.291 413.833,33.291 
		413.833,38.756 	"/>
	<line fill="none" stroke="#030302" stroke-width="2" stroke-miterlimit="10" x1="400.513" y1="68.659" x2="413.833" y2="68.659"/>
	<polyline fill="none" stroke="#030302" stroke-width="2" stroke-miterlimit="10" points="413.833,63.514 413.833,87.117 
		577.436,87.117 	"/>
	<line fill="none" stroke="#030302" stroke-width="2" stroke-miterlimit="10" x1="460.513" y1="33.804" x2="460.513" y2="41.507"/>
	<line fill="none" stroke="#030302" stroke-width="2" stroke-miterlimit="10" x1="460.513" y1="66.604" x2="460.513" y2="87.117"/>
	<polyline fill="none" stroke="#030302" stroke-width="2" stroke-miterlimit="10" points="509.744,87.117 509.744,63.514 
		531.362,63.514 531.362,87.117 	"/>
	<line fill="none" stroke="#030302" stroke-miterlimit="10" x1="552.547" y1="230.745" x2="552.547" y2="212.211"/>
	<polyline fill="none" stroke="#030302" stroke-width="3" stroke-miterlimit="10" points="48.718,301.95 80.513,301.95 
		80.513,463.408 73.471,463.408 	"/>
	<polyline fill="none" stroke="#030302" stroke-width="3" stroke-miterlimit="10" points="48.718,463.408 21.759,463.408 
		21.759,492.575 27.488,492.575 27.488,526.429 95.615,526.429 	"/>
	<polyline fill="none" stroke="#030302" stroke-width="3" stroke-miterlimit="10" points="24.884,541.533 542.483,541.533 
		542.483,433.2 591.977,433.2 582.25,433.2 582.25,416.533 591.977,416.533 582.25,416.533 584.589,416.533 584.589,293.163 	"/>
	<polygon points="603.077,264.573 613.301,232.021 599.487,232.021 599.487,264.573 	"/>
	<line stroke="#000000" stroke-linecap="round" stroke-miterlimit="10" x1="613.151" y1="232.5" x2="627.82" y2="237.929"/>
	<line fill="#FFFFFF" stroke="#000000" stroke-miterlimit="10" x1="611.298" y1="235.215" x2="627.036" y2="241.678"/>
	<line fill="#FFFFFF" stroke="#000000" stroke-miterlimit="10" x1="610.402" y1="237.751" x2="626.139" y2="244.214"/>
	<line fill="#FFFFFF" stroke="#000000" stroke-miterlimit="10" x1="609.31" y1="240.389" x2="625.047" y2="246.852"/>
	<line fill="#FFFFFF" stroke="#000000" stroke-miterlimit="10" x1="609.31" y1="243.243" x2="625.047" y2="249.706"/>
	<line fill="#FFFFFF" stroke="#000000" stroke-miterlimit="10" x1="608.46" y1="245.599" x2="624.198" y2="252.062"/>
	<line stroke="#000000" stroke-linecap="round" stroke-miterlimit="10" x1="608.151" y1="245.79" x2="622.82" y2="251.218"/>
	<line fill="#FFFFFF" stroke="#000000" stroke-miterlimit="10" x1="606.298" y1="248.504" x2="622.036" y2="254.967"/>
	<line fill="#FFFFFF" stroke="#000000" stroke-miterlimit="10" x1="605.402" y1="251.041" x2="621.139" y2="257.503"/>
	<line fill="#FFFFFF" stroke="#000000" stroke-miterlimit="10" x1="604.31" y1="253.678" x2="620.047" y2="260.141"/>
	<line fill="#FFFFFF" stroke="#000000" stroke-miterlimit="10" x1="604.31" y1="256.532" x2="620.047" y2="262.995"/>
	<line fill="#FFFFFF" stroke="#000000" stroke-miterlimit="10" x1="603.46" y1="258.888" x2="619.198" y2="265.351"/>
	<line fill="#FFFFFF" stroke="#000000" stroke-miterlimit="10" x1="586.072" y1="233.946" x2="601.077" y2="233.946"/>
	<line fill="#FFFFFF" stroke="#000000" stroke-miterlimit="10" x1="586.072" y1="237.751" x2="601.077" y2="237.751"/>
	<line fill="#FFFFFF" stroke="#000000" stroke-miterlimit="10" x1="586.072" y1="240.389" x2="601.077" y2="240.389"/>
	<line fill="#FFFFFF" stroke="#000000" stroke-miterlimit="10" x1="586.072" y1="242.507" x2="601.077" y2="242.507"/>
	<line fill="#FFFFFF" stroke="#000000" stroke-miterlimit="10" x1="586.072" y1="245.176" x2="601.077" y2="245.176"/>
	<line fill="#FFFFFF" stroke="#000000" stroke-miterlimit="10" x1="586.072" y1="247.57" x2="601.077" y2="247.57"/>
	<line fill="#FFFFFF" stroke="#000000" stroke-miterlimit="10" x1="586.072" y1="250.055" x2="601.077" y2="250.055"/>
	<line fill="#FFFFFF" stroke="#000000" stroke-miterlimit="10" x1="586.072" y1="252.449" x2="601.077" y2="252.449"/>
	<line fill="#FFFFFF" stroke="#000000" stroke-miterlimit="10" x1="586.072" y1="255.119" x2="601.077" y2="255.119"/>
	<line fill="#FFFFFF" stroke="#000000" stroke-miterlimit="10" x1="586.072" y1="257.525" x2="601.077" y2="257.525"/>
	<line fill="#FFFFFF" stroke="#000000" stroke-miterlimit="10" x1="586.072" y1="260.274" x2="601.077" y2="260.274"/>
	<line fill="#FFFFFF" stroke="#000000" stroke-miterlimit="10" x1="586.072" y1="262.667" x2="601.077" y2="262.667"/>
	<path fill="#FFFFFF" stroke="#000000" stroke-miterlimit="10" d="M49.028,238.732"/>
	<line fill="#FFFFFF" stroke="#000000" stroke-miterlimit="10" x1="65.127" y1="238.732" x2="48.718" y2="238.732"/>
	<line fill="#FFFFFF" stroke="#000000" stroke-miterlimit="10" x1="65.127" y1="241.438" x2="48.718" y2="241.438"/>
	<line fill="#FFFFFF" stroke="#000000" stroke-miterlimit="10" x1="65.127" y1="243.924" x2="48.718" y2="243.924"/>
	<line fill="#FFFFFF" stroke="#000000" stroke-miterlimit="10" x1="65.127" y1="247.362" x2="48.718" y2="247.362"/>
	<polyline fill="#FFFFFF" stroke="#000000" stroke-miterlimit="10" points="65.127,249.996 51.954,249.996 48.718,249.996 	"/>
	<polyline fill="none" stroke="#000000" stroke-miterlimit="10" points="65.128,254.603 58.335,254.603 54.237,254.603 
		54.237,253.006 	"/>
	<polyline fill="none" stroke="#000000" stroke-miterlimit="10" points="51.734,250.421 51.734,252.541 56.443,252.541 
		65.127,252.541 	"/>
	<line stroke="#030302" stroke-miterlimit="10" x1="512.255" y1="64.012" x2="512.255" y2="33.369"/>
	<line stroke="#030302" stroke-miterlimit="10" x1="515.071" y1="64.012" x2="515.071" y2="33.369"/>
	<line stroke="#030302" stroke-miterlimit="10" x1="519.876" y1="64.012" x2="519.876" y2="33.369"/>
	<line stroke="#030302" stroke-miterlimit="10" x1="523.609" y1="64.012" x2="523.609" y2="33.369"/>
	<line stroke="#030302" stroke-miterlimit="10" x1="528.322" y1="64.012" x2="528.322" y2="33.369"/>
	<line stroke="#030302" stroke-miterlimit="10" x1="531.96" y1="33.369" x2="531.96" y2="64.012"/>
	<line stroke="#030302" stroke-miterlimit="10" x1="537" y1="64.012" x2="537" y2="33.369"/>
	<polyline fill="none" stroke="#030302" stroke-miterlimit="10" points="540.453,62.833 540.453,39.805 537.233,39.805 	"/>
	<polyline fill="none" stroke="#030302" stroke-miterlimit="10" points="544.185,62.833 544.185,47.156 540.78,47.156 	"/>
	<polyline fill="none" stroke="#030302" stroke-miterlimit="10" points="547.948,62.314 547.948,57.881 544.465,57.881 	"/>
	<polyline fill="none" stroke="#030302" stroke-width="2" stroke-miterlimit="10" points="451.282,280.47 451.282,362.845 
		451.282,255.119 	"/>
	<polyline fill="none" stroke="#030302" stroke-miterlimit="10" points="451.282,270.727 451.282,246.474 451.282,212.668 
		415.897,212.668 415.897,245.176 	"/>
	<path fill="none" stroke="#030302" stroke-width="2" stroke-miterlimit="10" d="M451.282,250.055"/>
	<line stroke="#030302" stroke-miterlimit="10" x1="565.128" y1="63.314" x2="531.96" y2="63.314"/>
	<polyline fill="none" stroke="#000000" stroke-width="2" stroke-miterlimit="10" points="584.589,148.066 584.589,185.342 
		617.151,185.342 	"/>
	<polyline fill="none" stroke="#000000" stroke-width="2" stroke-miterlimit="10" points="584.589,231.214 584.589,212.211 
		528.322,212.211 528.322,221.898 	"/>
	<polyline fill="none" stroke="#000000" stroke-width="3" stroke-miterlimit="10" points="622.795,208.163 606.667,208.163 
		606.667,193.778 	"/>
	<polyline fill="none" stroke="#030302" stroke-miterlimit="10" points="457.436,136.686 457.436,133.783 438.461,133.783 	"/>
	<polyline fill="none" stroke="#030302" stroke-miterlimit="10" points="438.461,189.188 457.436,189.188 457.436,185.342 	"/>
	<line fill="none" stroke="#030302" stroke-width="2" stroke-miterlimit="10" x1="487.465" y1="135.234" x2="540.78" y2="135.234"/>
	
		<line fill="none" stroke="#030302" stroke-width="2" stroke-miterlimit="10" x1="487.465" y1="187.651" x2="544.465" y2="187.651"/>
	<line fill="none" stroke="#030302" stroke-miterlimit="10" x1="531.362" y1="187.651" x2="531.362" y2="172.301"/>
	<line fill="none" stroke="#030302" stroke-miterlimit="10" x1="501.256" y1="187.651" x2="501.256" y2="172.301"/>
	<line fill="none" stroke="#030302" stroke-miterlimit="10" x1="531.362" y1="151.288" x2="531.362" y2="135.938"/>
	<line fill="none" stroke="#030302" stroke-miterlimit="10" x1="501.256" y1="151.288" x2="501.256" y2="135.938"/>
	<line fill="none" stroke="#030302" stroke-miterlimit="10" x1="491.282" y1="226.745" x2="491.282" y2="364.45"/>
	<line fill="none" stroke="#030302" stroke-miterlimit="10" x1="415.897" y1="255.119" x2="415.897" y2="264.573"/>
	<line fill="none" stroke="#030302" stroke-miterlimit="10" x1="415.897" y1="260.727" x2="451.282" y2="260.727"/>
	<polyline fill="#030302" stroke="#030302" stroke-miterlimit="10" points="415.897,278.398 415.897,301.95 380.614,301.95 
		380.614,325.387 451.282,325.387 451.282,301.892 415.897,301.95 	"/>
	<path fill="none" stroke="#030302" stroke-miterlimit="10" d="M339.257,291.287"/>
	<line fill="none" stroke="#030302" stroke-miterlimit="10" x1="65.128" y1="236.368" x2="81.814" y2="236.368"/>
	<line fill="none" stroke="#030302" stroke-miterlimit="10" x1="65.128" y1="238.732" x2="81.814" y2="238.732"/>
	<line fill="none" stroke="#030302" stroke-miterlimit="10" x1="65.128" y1="241.929" x2="81.814" y2="241.929"/>
	<line fill="none" stroke="#030302" stroke-miterlimit="10" x1="65.128" y1="244.874" x2="81.814" y2="244.874"/>
	<line fill="none" stroke="#030302" stroke-miterlimit="10" x1="65.128" y1="247.362" x2="81.814" y2="247.362"/>
	<polyline fill="none" stroke="#030302" stroke-miterlimit="10" points="82.538,288.287 189.742,288.287 189.742,319.658 
		175.405,319.658 	"/>
	<polyline fill="none" stroke="#030302" stroke-miterlimit="10" points="150.255,319.658 161.537,319.658 161.537,288.287 	"/>
	<polyline fill="none" stroke="#030302" stroke-miterlimit="10" points="123.322,319.658 135.64,319.658 135.64,288.287 	"/>
	<polyline fill="none" stroke="#030302" stroke-miterlimit="10" points="95.615,319.658 108.691,319.658 108.691,288.287 	"/>
	<line fill="none" stroke="#030302" stroke-miterlimit="10" x1="59.682" y1="301.95" x2="59.682" y2="286.625"/>
	<line fill="none" stroke="#030302" stroke-miterlimit="10" x1="56.922" y1="302.972" x2="56.922" y2="285.625"/>
	<line fill="none" stroke="#030302" stroke-miterlimit="10" x1="54.237" y1="301.95" x2="54.237" y2="286.625"/>
	<line fill="none" stroke="#030302" stroke-miterlimit="10" x1="50.718" y1="301.95" x2="50.718" y2="286.625"/>
	<line fill="none" stroke="#030302" stroke-miterlimit="10" x1="506.655" y1="364.45" x2="572.458" y2="364.45"/>
	<polyline fill="none" stroke="#030302" stroke-miterlimit="10" points="380.614,325.387 380.614,364.45 389.412,364.45 
		389.412,359.242 402.564,359.242 402.564,363.845 413.333,363.845 	"/>
	<polyline fill="none" stroke="#030302" stroke-miterlimit="10" points="380.614,352.471 438.461,352.471 429.051,352.471 
		429.051,363.45 425.897,363.45 	"/>
	<line fill="none" stroke="#030302" stroke-miterlimit="10" x1="451.282" y1="362.845" x2="438.461" y2="362.845"/>
	<line fill="none" stroke="#030302" stroke-miterlimit="10" x1="525.924" y1="364.45" x2="525.924" y2="371.742"/>
	<polyline fill="none" stroke="#030302" stroke-miterlimit="10" points="525.924,417.347 525.924,382.679 584.589,382.679 	"/>
	<line fill="none" stroke="#030302" stroke-width="3" stroke-miterlimit="10" x1="587.862" y1="416.347" x2="540.78" y2="416.347"/>
	
		<line fill="none" stroke="#030302" stroke-width="2" stroke-miterlimit="10" x1="544.185" y1="400.013" x2="572.458" y2="400.013"/>
	<line fill="none" stroke="#030302" stroke-miterlimit="10" x1="542.483" y1="433.2" x2="462.513" y2="433.2"/>
	<line fill="none" stroke="#030302" stroke-miterlimit="10" x1="337.384" y1="541.533" x2="337.384" y2="477.992"/>
	<polyline fill="none" stroke="#030302" stroke-miterlimit="10" points="337.384,451.429 337.384,433.2 419.865,433.2 
		380.614,433.2 380.614,377.471 402.564,377.471 	"/>
	<line fill="none" stroke="#030302" stroke-miterlimit="10" x1="415.948" y1="433.2" x2="415.948" y2="377.471"/>
	<path fill="none" stroke="#030302" stroke-miterlimit="10" d="M415.897,391.282h35.385c0,0-0.752-14.562,0-13.811
		s0,55.729,0,55.729h-17.525"/>
	<line fill="none" stroke="#030302" stroke-miterlimit="10" x1="451.616" y1="412.308" x2="415.897" y2="412.308"/>
	<line fill="none" stroke="#030302" stroke-miterlimit="10" x1="433.756" y1="412.308" x2="433.756" y2="391.282"/>
	<line fill="none" stroke="#030302" stroke-miterlimit="10" x1="111.794" y1="483.077" x2="111.794" y2="541.533"/>
	<polyline fill="none" stroke="#030302" stroke-miterlimit="10" points="95.615,483.077 80.513,483.077 80.513,526.429 	"/>
	<rect x="25.884" y="467.692" fill="none" stroke="#030302" stroke-miterlimit="10" width="16.654" height="20.514"/>
	<line fill="none" stroke="#030302" stroke-miterlimit="10" x1="95.615" y1="527.926" x2="95.615" y2="494.981"/>
	<line fill="none" stroke="#030302" stroke-miterlimit="10" x1="80.513" y1="499.95" x2="111.794" y2="499.95"/>
	<line fill="none" stroke="#030302" stroke-miterlimit="10" x1="80.513" y1="503.216" x2="111.794" y2="503.216"/>
	<line fill="none" stroke="#030302" stroke-miterlimit="10" x1="80.513" y1="506.483" x2="111.794" y2="506.483"/>
	<line fill="none" stroke="#030302" stroke-miterlimit="10" x1="80.513" y1="509.764" x2="111.794" y2="509.764"/>
	<line fill="none" stroke="#030302" stroke-miterlimit="10" x1="80.513" y1="513.143" x2="111.794" y2="513.143"/>
	<line fill="none" stroke="#030302" stroke-miterlimit="10" x1="80.513" y1="516.509" x2="111.794" y2="516.509"/>
	<line fill="none" stroke="#030302" stroke-miterlimit="10" x1="80.513" y1="519.664" x2="111.794" y2="519.664"/>
	<line fill="none" stroke="#030302" stroke-miterlimit="10" x1="80.513" y1="522.818" x2="111.794" y2="522.818"/>
	<line fill="none" stroke="#030302" stroke-miterlimit="10" x1="572.017" y1="382.679" x2="572.017" y2="416.347"/>
	<line fill="none" stroke="#030302" stroke-miterlimit="10" x1="569.384" y1="382.679" x2="569.384" y2="416.347"/>
	<line fill="none" stroke="#030302" stroke-miterlimit="10" x1="563.989" y1="382.679" x2="563.989" y2="416.347"/>
	<line fill="none" stroke="#030302" stroke-miterlimit="10" x1="558.847" y1="382.679" x2="558.847" y2="416.347"/>
	<line fill="none" stroke="#030302" stroke-miterlimit="10" x1="553.262" y1="382.679" x2="553.262" y2="416.347"/>
	<line fill="none" stroke="#030302" stroke-miterlimit="10" x1="547.803" y1="382.679" x2="547.803" y2="416.347"/>
	<line fill="none" stroke="#030302" stroke-miterlimit="10" x1="566.678" y1="382.679" x2="566.678" y2="416.347"/>
	<line fill="none" stroke="#030302" stroke-miterlimit="10" x1="561.461" y1="382.679" x2="561.461" y2="416.347"/>
	<line fill="none" stroke="#030302" stroke-miterlimit="10" x1="556.123" y1="382.679" x2="556.123" y2="416.347"/>
	<line fill="none" stroke="#030302" stroke-miterlimit="10" x1="550.476" y1="382.679" x2="550.476" y2="416.347"/>
	<line fill="none" stroke="#030302" stroke-miterlimit="10" x1="545.137" y1="382.679" x2="545.137" y2="416.347"/>
</g>
</svg>
