<?xml version="1.0" encoding="utf-8"?>
<!-- Generator: Adobe Illustrator 16.0.4, SVG Export Plug-In . SVG Version: 6.00 Build 0)  -->
<!DOCTYPE svg PUBLIC "-//W3C//DTD SVG 1.1//EN" "http://www.w3.org/Graphics/SVG/1.1/DTD/svg11.dtd">
<svg version="1.1" xmlns="http://www.w3.org/2000/svg" xmlns:xlink="http://www.w3.org/1999/xlink" x="0px" y="0px" width="792px"
	 height="612px"  viewBox="0 0 792 612" id ="base" enable-background="new 0 0 792 612" xml:space="preserve">
<g id="Layer_4">
	<path fill="#EEB111" d="M127.077,68.342h231.282V56.53h14.386v59.511c0,0-19,4.528-35.411-5.923c0,0-5.179,50.081-39.256,76.225
		v9.666h-66.386v-19.445h-82.564v46.138h-22.049V68.342z"/>
	<rect x="102.461" y="70.136" fill="#EEB111" width="24.616" height="23.828"/>
	<polygon fill="#EEB111" points="102.461,95.149 127.077,93.963 127.077,118.128 103.487,118.128 	"/>
	<polygon fill="#EEB111" points="128.077,173.963 103.487,173.963 103.487,117.041 127.59,117.041 	"/>
	<rect x="103.487" y="173" fill="#EEB111" width="23.59" height="23.009"/>
	<polygon fill="#EEB111" points="102.461,222.188 102.461,196.009 127.077,196.009 127.077,222.702 	"/>
	<rect x="149.126" y="176.564" fill="#EEB111" width="82.564" height="46.138"/>
	<polygon fill="#EEB111" points="242.974,196.077 242.974,224.239 307.59,224.239 307.59,196.009 	"/>
	<polygon fill="#EEB111" points="72.667,337.001 103.461,337.001 103.461,247.263 70.977,247.263 	"/>
	<rect x="103.487" y="247.263" fill="#EEB111" width="39.486" height="20.432"/>
	<rect x="142.973" y="247.263" fill="#EEB111" width="29.231" height="20.432"/>
	<rect x="103.487" y="267.552" fill="#EEB111" width="108.204" height="55.786"/>
	<rect x="103.487" y="323.257" fill="#EEB111" width="27.153" height="31.452"/>
	<rect x="130.396" y="323.257" fill="#EEB111" width="27.153" height="31.452"/>
	<rect x="157.628" y="323.257" fill="#EEB111" width="25.858" height="31.452"/>
	<rect x="183.486" y="323.257" fill="#EEB111" width="28.205" height="31.452"/>
	<polygon fill="#EEB111" points="133.743,576.584 133.743,518.128 102.461,518.128 102.461,354.709 211.691,354.709 
		211.691,267.552 402.562,267.552 402.562,468.251 358.872,468.251 358.872,576.584 	"/>
	<rect x="358.872" y="468.251" fill="#EEB111" width="205.56" height="108.333"/>
	<rect x="102.461" y="518.128" fill="#EEB111" width="31.282" height="43.353"/>
	<polygon fill="#EEB111" points="102.461,562.978 102.461,499.667 64.487,499.667 64.487,523.257 50.667,523.257 50.667,561.48 	"/>
	<polygon fill="#EEB111" points="64.487,523.257 47.833,523.257 47.833,502.743 64,502.743 	"/>
	<rect x="203.247" y="247.263" fill="#EEB111" width="12.211" height="18.533"/>
	<rect x="247.381" y="247.263" fill="#EEB111" width="12.211" height="18.533"/>
	<rect x="291.972" y="247.263" fill="#EEB111" width="12.211" height="18.533"/>
	<rect x="507.125" y="242.263" fill="#EEB111" width="12.211" height="18.533"/>
	<rect x="377.347" y="247.073" fill="#EEB111" width="60.499" height="21.093"/>
	<polygon fill="#EEB111" points="400.562,267.552 437.846,267.552 437.846,337.001 400.61,337.001 	"/>
	<rect x="437.896" y="247.72" fill="#EEB111" width="35.334" height="48.059"/>
	<rect x="437.846" y="295.778" fill="#EEB111" width="35.385" height="41.165"/>
	<polygon fill="#EEB111" points="402.462,387.359 473.23,387.359 473.23,360.438 402.975,360.438 	"/>
	<rect x="402.462" y="412.522" fill="#EEB111" width="35.384" height="55.729"/>
	<polyline fill="#EEB111" points="473.23,426.333 438.359,426.333 438.359,447.359 473.564,447.359 473.564,427.695 	"/>
	<rect x="547.873" y="417.73" fill="#EEB111" width="58.665" height="34.668"/>
	<path fill="#EEB111" d="M547.873,468.251v-68.75H513.23c0,0,0-133.705,0-137.429c-4.103,0-39.666,0-39.666,0v206.179H547.873z"/>
	<polygon fill="#EEB111" points="606.538,266.266 606.538,399.501 513.23,399.501 513.23,262.072 547.873,262.072 547.873,266.266 	
		"/>
	<rect x="550.271" y="247.263" fill="#EEB111" width="24.226" height="19.003"/>
	<rect x="574.496" y="247.263" fill="#EEB111" width="32.042" height="19.003"/>
	<polygon fill="#EEB111" points="656.82,243.214 606.538,243.214 606.538,313.449 638.277,313.449 656.82,256.548 	"/>
	<path fill="#EEB111" d="M606.538,220.394v-35.794c0,0,14.873,20.981,52.334,27.358v9.719L606.538,220.394z"/>
	<path fill="#EEB111" d="M595.368,145.521c-0.961,35.984,28.962,66.436,63.504,66.436s69.535-31.579,68.199-68.957
		c-1.404-39.29-33.657-62.863-68.199-62.863C621.436,80.137,596.29,110.992,595.368,145.521z"/>
	<path fill="#EEB111" d="M606.538,105.778V68.342h57.299v11.795C663.837,80.137,633.743,77.89,606.538,105.778z"/>
	<polygon fill="#EEB111" points="531.59,98.56 606.538,98.365 606.538,68.333 531.801,68.333 	"/>
	<rect x="435.781" y="68.855" fill="#EEB111" width="95.911" height="53.313"/>
	<polygon fill="#EEB111" points="372.333,103 436.282,103 436.282,68.855 447.846,68.855 447.846,56.53 372.745,56.53 	"/>
	<polygon fill="#EEB111" points="372.54,102 436.282,102 436.282,247.222 372.95,247.222 	"/>
	<path fill="#EEB111" d="M308.59,185.009h64.743v-63.804c0,0-11.414,3.979-31.412-4.165
		C341.921,117.041,333.719,163.685,308.59,185.009z"/>
	<path fill="#EEB111" d="M435.282,122.168v55.428h24.64v-7.862h139.463c0,0-7.755-26.198,0.481-47.566H435.282z"/>
	<rect x="460.41" y="168.834" fill="#EEB111" width="62.795" height="55.405"/>
	<polygon fill="#EEB111" points="522.502,222.744 553.909,222.744 553.909,170.99 522.205,170.99 	"/>
	<path fill="#EEB111" d="M599.065,168.558c0,0,6.01,12.451,6.694,15.258l-0.278,38.886l-52.171,0.042v-54.186H599.065z"/>
	<rect x="531.692" y="97.365" fill="#EEB111" width="20.513" height="23.84"/>
</g>
<g id="Major_Lines">
	<polyline fill="none" stroke="#030302" stroke-width="3" stroke-miterlimit="10" points="381.949,56.53 358.359,56.53 
		358.359,68.342 102.461,68.342 102.461,222.188 70.667,222.188 70.667,321.676 87.077,321.676 87.077,267.694 	"/>
	<path fill="none" stroke="#030302" stroke-width="3" stroke-miterlimit="10" d="M654.745,80.137c99.487,0,93.333,130.769,0,130.769
		"/>
	<polyline fill="none" stroke="#030302" stroke-width="3" stroke-miterlimit="10" points="658.872,211.957 658.872,221.676 
		628.615,221.676 628.615,228.829 	"/>
	<rect x="435.282" y="176.547" fill="#030302" width="25.128" height="47.692"/>
	<rect x="242.974" y="196.009" fill="none" stroke="#030302" stroke-miterlimit="10" width="21.026" height="28.23"/>
	<rect x="286.564" y="196.009" fill="none" stroke="#030302" stroke-miterlimit="10" width="21.026" height="28.23"/>
	<line fill="none" stroke="#030302" stroke-miterlimit="10" x1="264" y1="196.009" x2="286.564" y2="196.009"/>
	<polyline fill="none" stroke="#030302" stroke-miterlimit="10" points="142.973,247.72 142.973,267.694 172.204,267.694 	"/>
	
		<line fill="none" stroke="#030302" stroke-width="2" stroke-miterlimit="10" x1="102.461" y1="222.702" x2="165.025" y2="222.702"/>
	<line fill="none" stroke="#030302" stroke-width="2" stroke-miterlimit="10" x1="349.642" y1="246.291" x2="374.77" y2="246.291"/>
	<path fill="none" stroke="#030302" stroke-width="2" stroke-miterlimit="10" d="M361.206,246.291"/>
	<polyline fill="none" stroke="#030302" stroke-width="3" stroke-miterlimit="10" points="547.873,266.266 606.538,266.266 
		606.538,328.214 606.538,312.958 637.846,312.958 656.82,256.548 656.82,243.214 643.744,243.214 	"/>
	<line fill="none" stroke="#030302" stroke-miterlimit="10" x1="459.922" y1="176.547" x2="459.922" y2="166.783"/>
	<line fill="none" stroke="#030302" stroke-miterlimit="10" x1="435.781" y1="176.619" x2="435.781" y2="166.855"/>
	<rect x="349.642" y="176.547" fill="#030302" width="25.128" height="47.692"/>
	<polyline fill="none" stroke="#030302" stroke-miterlimit="10" points="201.536,246.291 209.345,246.291 217.154,246.291 	"/>
	<polyline fill="none" stroke="#030302" stroke-miterlimit="10" points="201.536,247.263 209.345,247.263 217.154,247.263 	"/>
	<polyline fill="none" stroke="#030302" stroke-miterlimit="10" points="201.536,265.796 209.345,265.796 217.154,265.796 	"/>
	<polyline fill="none" stroke="#030302" stroke-miterlimit="10" points="201.536,266.768 209.345,266.768 217.154,266.768 	"/>
	<line fill="none" stroke="#030302" stroke-miterlimit="10" x1="209.345" y1="267.072" x2="209.345" y2="246.291"/>
	<line fill="none" stroke="#030302" stroke-miterlimit="10" x1="215.458" y1="247.263" x2="215.458" y2="265.796"/>
	<line fill="none" stroke="#030302" stroke-miterlimit="10" x1="203.247" y1="247.263" x2="203.247" y2="265.796"/>
	<line fill="none" stroke="#030302" stroke-miterlimit="10" x1="215.283" y1="252.048" x2="203.363" y2="252.048"/>
	<line fill="none" stroke="#030302" stroke-miterlimit="10" x1="215.283" y1="256.949" x2="203.363" y2="256.949"/>
	<line fill="none" stroke="#030302" stroke-miterlimit="10" x1="215.283" y1="260.662" x2="203.363" y2="260.662"/>
	<polyline fill="none" stroke="#030302" stroke-miterlimit="10" points="244.974,246.291 252.783,246.291 260.592,246.291 	"/>
	<polyline fill="none" stroke="#030302" stroke-miterlimit="10" points="244.974,247.263 252.783,247.263 260.592,247.263 	"/>
	<polyline fill="none" stroke="#030302" stroke-miterlimit="10" points="244.974,265.796 252.783,265.796 260.592,265.796 	"/>
	<polyline fill="none" stroke="#030302" stroke-miterlimit="10" points="244.974,266.768 252.783,266.768 260.592,266.768 	"/>
	<line fill="none" stroke="#030302" stroke-miterlimit="10" x1="252.783" y1="267.072" x2="252.783" y2="246.291"/>
	<line fill="none" stroke="#030302" stroke-miterlimit="10" x1="258.896" y1="247.263" x2="258.896" y2="265.796"/>
	<line fill="none" stroke="#030302" stroke-miterlimit="10" x1="246.685" y1="247.263" x2="246.685" y2="265.796"/>
	<line fill="none" stroke="#030302" stroke-miterlimit="10" x1="292.095" y1="252.048" x2="246.801" y2="252.048"/>
	<line fill="none" stroke="#030302" stroke-miterlimit="10" x1="292.095" y1="256.949" x2="246.801" y2="256.949"/>
	<line fill="none" stroke="#030302" stroke-miterlimit="10" x1="292.095" y1="260.662" x2="246.801" y2="260.662"/>
	<polyline fill="none" stroke="#030302" stroke-miterlimit="10" points="290.268,246.291 298.077,246.291 305.886,246.291 	"/>
	<polyline fill="none" stroke="#030302" stroke-miterlimit="10" points="290.268,247.263 298.077,247.263 305.886,247.263 	"/>
	<polyline fill="none" stroke="#030302" stroke-miterlimit="10" points="290.268,265.796 298.077,265.796 305.886,265.796 	"/>
	<polyline fill="none" stroke="#030302" stroke-miterlimit="10" points="290.268,266.768 298.077,266.768 305.886,266.768 	"/>
	<line fill="none" stroke="#030302" stroke-miterlimit="10" x1="298.077" y1="267.072" x2="298.077" y2="246.291"/>
	<line fill="none" stroke="#030302" stroke-miterlimit="10" x1="304.19" y1="247.263" x2="304.19" y2="265.796"/>
	<line fill="none" stroke="#030302" stroke-miterlimit="10" x1="291.979" y1="247.263" x2="291.979" y2="265.796"/>
	<line fill="none" stroke="#030302" stroke-miterlimit="10" x1="304.016" y1="252.048" x2="292.095" y2="252.048"/>
	<line fill="none" stroke="#030302" stroke-miterlimit="10" x1="304.016" y1="256.949" x2="292.095" y2="256.949"/>
	<line fill="none" stroke="#030302" stroke-miterlimit="10" x1="304.016" y1="260.662" x2="292.095" y2="260.662"/>
	<polyline fill="none" stroke="#030302" stroke-miterlimit="10" points="505.587,241.291 513.396,241.291 521.205,241.291 	"/>
	<polyline fill="none" stroke="#030302" stroke-miterlimit="10" points="505.587,242.263 513.396,242.263 521.205,242.263 	"/>
	<polyline fill="none" stroke="#030302" stroke-miterlimit="10" points="505.587,260.796 513.396,260.796 521.205,260.796 	"/>
	<polyline fill="none" stroke="#030302" stroke-miterlimit="10" points="505.587,261.768 513.396,261.768 521.205,261.768 	"/>
	<line fill="none" stroke="#030302" stroke-miterlimit="10" x1="513.396" y1="262.072" x2="513.396" y2="241.291"/>
	<line fill="none" stroke="#030302" stroke-miterlimit="10" x1="519.509" y1="242.263" x2="519.509" y2="260.796"/>
	<line fill="none" stroke="#030302" stroke-miterlimit="10" x1="507.298" y1="242.263" x2="507.298" y2="260.796"/>
	<line fill="none" stroke="#030302" stroke-miterlimit="10" x1="519.334" y1="247.048" x2="507.414" y2="247.048"/>
	<line fill="none" stroke="#030302" stroke-miterlimit="10" x1="519.334" y1="251.949" x2="507.414" y2="251.949"/>
	<line fill="none" stroke="#030302" stroke-miterlimit="10" x1="519.334" y1="255.662" x2="507.414" y2="255.662"/>
	<line fill="none" stroke="#030302" stroke-miterlimit="10" x1="606.538" y1="68.342" x2="606.538" y2="105.778"/>
	<path fill="none" stroke="#030302" stroke-width="3" stroke-linecap="round" stroke-linejoin="round" stroke-miterlimit="10" d="
		M613.926,98.565c-5.641,5.675-8.23,10.29-8.23,10.29"/>
	<path fill="none" stroke="#030302" stroke-width="3" stroke-linecap="round" stroke-linejoin="round" stroke-miterlimit="10" d="
		M595.282,135.67c0,0-2.546,11.976,1.047,22.583"/>
	<path fill="none" stroke="#030302" stroke-width="3" stroke-linecap="round" stroke-linejoin="round" stroke-miterlimit="10" d="
		M604.199,178.611c0,0,2.339,7.015,9.727,11.976"/>
	<path fill="none" stroke="#030302" stroke-width="3" stroke-linecap="round" stroke-linejoin="round" stroke-miterlimit="10" d="
		M629.519,202.221c0,0,3.422,3.167,11.463,5.132"/>
	
		<line fill="none" stroke="#030302" stroke-linecap="round" stroke-linejoin="round" stroke-miterlimit="10" x1="639.1" y1="221.676" x2="639.1" y2="208.379"/>
	<polyline fill="none" stroke="#030302" stroke-width="3" stroke-miterlimit="10" points="424.513,56.53 447.846,56.53 
		447.846,68.342 663.837,68.342 663.837,80.137 	"/>
	<polyline fill="none" stroke="#030302" stroke-miterlimit="10" points="103.487,337.001 103.487,247.263 172.204,247.263 
		172.204,252.048 	"/>
	<line fill="none" stroke="#030302" stroke-miterlimit="10" x1="104.487" y1="268.166" x2="130.64" y2="268.166"/>
	<line fill="none" stroke="#030302" stroke-miterlimit="10" x1="211.691" y1="326.338" x2="211.691" y2="267.166"/>
	<polyline fill="none" stroke="#030302" stroke-miterlimit="10" points="149.126,222.702 149.126,176.619 189.126,176.619 	"/>
	<polyline fill="none" stroke="#030302" stroke-miterlimit="10" points="203.363,176.547 231.691,176.547 231.691,223.239 
		183.486,223.239 	"/>
	<line fill="none" stroke="#030302" stroke-width="3" stroke-miterlimit="10" x1="307.59" y1="185.009" x2="307.59" y2="224.239"/>
	<line fill="none" stroke="#030302" stroke-width="2" stroke-miterlimit="10" x1="372.745" y1="56.53" x2="372.745" y2="83.742"/>
	<line fill="none" stroke="#030302" stroke-width="2" stroke-miterlimit="10" x1="372.745" y1="96.015" x2="372.745" y2="124.22"/>
	<line fill="none" stroke="#030302" stroke-width="2" stroke-miterlimit="10" x1="372.745" y1="103.71" x2="381.949" y2="103.71"/>
	<path fill="none" stroke="#030302" stroke-width="2" stroke-miterlimit="10" d="M372.745,121.143c0,0-18.49,3.077-31.823-4.103
		c0,0-4.564,41.212-34.23,68.969"/>
	<path fill="none" stroke="#030302" stroke-width="2" stroke-miterlimit="10" d="M298.077,186.343c0,0,34.128-23.148,39.205-76.225
		c0,0,17.218,11.094,35.462,5.923"/>
	<polyline fill="none" stroke="#030302" stroke-width="2" stroke-miterlimit="10" points="103.487,196.009 127.077,196.009 
		127.077,185.009 127.077,215.027 	"/>
	
		<line fill="none" stroke="#030302" stroke-width="2" stroke-miterlimit="10" x1="103.487" y1="173.963" x2="127.077" y2="173.963"/>
	<polyline fill="none" stroke="#030302" stroke-width="2" stroke-miterlimit="10" points="103.487,117.041 127.077,117.041 
		127.077,103.71 	"/>
	<line fill="none" stroke="#030302" stroke-width="2" stroke-miterlimit="10" x1="102.461" y1="93.963" x2="127.077" y2="93.963"/>
	<line fill="none" stroke="#030302" stroke-width="2" stroke-miterlimit="10" x1="127.077" y1="69.375" x2="127.077" y2="83.742"/>
	<polyline fill="none" stroke="#030302" stroke-width="2" stroke-miterlimit="10" points="447.846,68.342 435.781,68.342 
		435.781,73.808 	"/>
	<line fill="none" stroke="#030302" stroke-width="2" stroke-miterlimit="10" x1="422.462" y1="103.71" x2="435.781" y2="103.71"/>
	<polyline fill="none" stroke="#030302" stroke-width="2" stroke-miterlimit="10" points="435.781,98.565 435.781,122.168 
		599.385,122.168 	"/>
	<line fill="none" stroke="#030302" stroke-width="2" stroke-miterlimit="10" x1="482.462" y1="68.855" x2="482.462" y2="76.559"/>
	
		<line fill="none" stroke="#030302" stroke-width="2" stroke-miterlimit="10" x1="482.462" y1="101.656" x2="482.462" y2="122.168"/>
	<polyline fill="none" stroke="#030302" stroke-width="2" stroke-miterlimit="10" points="531.692,122.168 531.692,98.565 
		553.311,98.565 553.311,122.168 	"/>
	<line fill="none" stroke="#030302" stroke-miterlimit="10" x1="574.496" y1="265.796" x2="574.496" y2="247.263"/>
	<polyline fill="none" stroke="#030302" stroke-width="3" stroke-miterlimit="10" points="70.667,337.001 102.461,337.001 
		102.461,498.459 95.42,498.459 	"/>
	<polyline fill="none" stroke="#030302" stroke-width="3" stroke-miterlimit="10" points="70.667,498.459 43.708,498.459 
		43.708,527.626 49.437,527.626 49.437,561.48 117.563,561.48 	"/>
	<polyline fill="none" stroke="#030302" stroke-width="3" stroke-miterlimit="10" points="46.833,576.584 564.432,576.584 
		564.432,468.251 613.926,468.251 604.199,468.251 604.199,451.584 613.926,451.584 604.199,451.584 606.538,451.584 
		606.538,328.214 	"/>
	<polygon points="625.025,299.624 635.25,267.072 621.436,267.072 621.436,299.624 	"/>
	<line stroke="#000000" stroke-linecap="round" stroke-miterlimit="10" x1="635.1" y1="267.552" x2="649.769" y2="272.98"/>
	<line fill="#FFFFFF" stroke="#000000" stroke-miterlimit="10" x1="633.247" y1="270.267" x2="648.984" y2="276.729"/>
	<line fill="#FFFFFF" stroke="#000000" stroke-miterlimit="10" x1="632.351" y1="272.803" x2="648.088" y2="279.266"/>
	<line fill="#FFFFFF" stroke="#000000" stroke-miterlimit="10" x1="631.259" y1="275.44" x2="646.996" y2="281.903"/>
	<line fill="#FFFFFF" stroke="#000000" stroke-miterlimit="10" x1="631.259" y1="278.294" x2="646.996" y2="284.757"/>
	<line fill="#FFFFFF" stroke="#000000" stroke-miterlimit="10" x1="630.409" y1="280.65" x2="646.146" y2="287.113"/>
	<line stroke="#000000" stroke-linecap="round" stroke-miterlimit="10" x1="630.1" y1="280.841" x2="644.769" y2="286.27"/>
	<line fill="#FFFFFF" stroke="#000000" stroke-miterlimit="10" x1="628.247" y1="283.556" x2="643.984" y2="290.019"/>
	<line fill="#FFFFFF" stroke="#000000" stroke-miterlimit="10" x1="627.351" y1="286.092" x2="643.088" y2="292.555"/>
	<line fill="#FFFFFF" stroke="#000000" stroke-miterlimit="10" x1="626.259" y1="288.729" x2="641.996" y2="295.192"/>
	<line fill="#FFFFFF" stroke="#000000" stroke-miterlimit="10" x1="626.259" y1="291.583" x2="641.996" y2="298.046"/>
	<line fill="#FFFFFF" stroke="#000000" stroke-miterlimit="10" x1="625.409" y1="293.939" x2="641.146" y2="300.402"/>
	<line fill="#FFFFFF" stroke="#000000" stroke-miterlimit="10" x1="608.021" y1="268.997" x2="623.025" y2="268.997"/>
	<line fill="#FFFFFF" stroke="#000000" stroke-miterlimit="10" x1="608.021" y1="272.803" x2="623.025" y2="272.803"/>
	<line fill="#FFFFFF" stroke="#000000" stroke-miterlimit="10" x1="608.021" y1="275.44" x2="623.025" y2="275.44"/>
	<line fill="#FFFFFF" stroke="#000000" stroke-miterlimit="10" x1="608.021" y1="277.559" x2="623.025" y2="277.559"/>
	<line fill="#FFFFFF" stroke="#000000" stroke-miterlimit="10" x1="608.021" y1="280.228" x2="623.025" y2="280.228"/>
	<line fill="#FFFFFF" stroke="#000000" stroke-miterlimit="10" x1="608.021" y1="282.621" x2="623.025" y2="282.621"/>
	<line fill="#FFFFFF" stroke="#000000" stroke-miterlimit="10" x1="608.021" y1="285.106" x2="623.025" y2="285.106"/>
	<line fill="#FFFFFF" stroke="#000000" stroke-miterlimit="10" x1="608.021" y1="287.5" x2="623.025" y2="287.5"/>
	<line fill="#FFFFFF" stroke="#000000" stroke-miterlimit="10" x1="608.021" y1="290.17" x2="623.025" y2="290.17"/>
	<line fill="#FFFFFF" stroke="#000000" stroke-miterlimit="10" x1="608.021" y1="292.576" x2="623.025" y2="292.576"/>
	<line fill="#FFFFFF" stroke="#000000" stroke-miterlimit="10" x1="608.021" y1="295.325" x2="623.025" y2="295.325"/>
	<line fill="#FFFFFF" stroke="#000000" stroke-miterlimit="10" x1="608.021" y1="297.719" x2="623.025" y2="297.719"/>
	<path fill="#FFFFFF" stroke="#000000" stroke-miterlimit="10" d="M70.977,273.783"/>
	<line fill="#FFFFFF" stroke="#000000" stroke-miterlimit="10" x1="87.076" y1="273.783" x2="70.667" y2="273.783"/>
	<line fill="#FFFFFF" stroke="#000000" stroke-miterlimit="10" x1="87.076" y1="276.489" x2="70.667" y2="276.489"/>
	<line fill="#FFFFFF" stroke="#000000" stroke-miterlimit="10" x1="87.076" y1="278.976" x2="70.667" y2="278.976"/>
	<line fill="#FFFFFF" stroke="#000000" stroke-miterlimit="10" x1="87.076" y1="282.413" x2="70.667" y2="282.413"/>
	<polyline fill="#FFFFFF" stroke="#000000" stroke-miterlimit="10" points="87.076,285.047 73.902,285.047 70.667,285.047 	"/>
	<polyline fill="none" stroke="#000000" stroke-miterlimit="10" points="87.077,289.654 80.284,289.654 76.186,289.654 
		76.186,288.058 	"/>
	<polyline fill="none" stroke="#000000" stroke-miterlimit="10" points="73.683,285.473 73.683,287.592 78.392,287.592 
		87.076,287.592 	"/>
	<line stroke="#030302" stroke-miterlimit="10" x1="534.204" y1="99.063" x2="534.204" y2="68.42"/>
	<line stroke="#030302" stroke-miterlimit="10" x1="537.02" y1="99.063" x2="537.02" y2="68.42"/>
	<line stroke="#030302" stroke-miterlimit="10" x1="541.825" y1="99.063" x2="541.825" y2="68.42"/>
	<line stroke="#030302" stroke-miterlimit="10" x1="545.558" y1="99.063" x2="545.558" y2="68.42"/>
	<line stroke="#030302" stroke-miterlimit="10" x1="550.271" y1="99.063" x2="550.271" y2="68.42"/>
	<line stroke="#030302" stroke-miterlimit="10" x1="553.909" y1="68.42" x2="553.909" y2="99.063"/>
	<line stroke="#030302" stroke-miterlimit="10" x1="558.948" y1="99.063" x2="558.948" y2="68.42"/>
	<polyline fill="none" stroke="#030302" stroke-miterlimit="10" points="562.401,97.885 562.401,74.856 559.182,74.856 	"/>
	<polyline fill="none" stroke="#030302" stroke-miterlimit="10" points="566.134,97.885 566.134,82.208 562.729,82.208 	"/>
	<polyline fill="none" stroke="#030302" stroke-miterlimit="10" points="569.896,97.365 569.896,92.933 566.414,92.933 	"/>
	<polyline fill="none" stroke="#030302" stroke-width="2" stroke-miterlimit="10" points="473.23,315.521 473.23,397.896 
		473.23,290.17 	"/>
	<polyline fill="none" stroke="#030302" stroke-miterlimit="10" points="473.23,305.778 473.23,281.525 473.23,247.72 
		437.846,247.72 437.846,280.228 	"/>
	<path fill="none" stroke="#030302" stroke-width="2" stroke-miterlimit="10" d="M473.23,285.106"/>
	<line stroke="#030302" stroke-miterlimit="10" x1="587.077" y1="98.365" x2="553.909" y2="98.365"/>
	<polyline fill="none" stroke="#000000" stroke-width="2" stroke-miterlimit="10" points="606.538,183.117 606.538,220.394 
		639.1,220.394 	"/>
	<polyline fill="none" stroke="#000000" stroke-width="2" stroke-miterlimit="10" points="606.538,266.266 606.538,247.263 
		550.271,247.263 550.271,256.949 	"/>
	<polyline fill="none" stroke="#000000" stroke-width="3" stroke-miterlimit="10" points="644.744,243.214 628.615,243.214 
		628.615,228.829 	"/>
	<polyline fill="none" stroke="#030302" stroke-miterlimit="10" points="479.385,171.737 479.385,168.834 460.41,168.834 	"/>
	<polyline fill="none" stroke="#030302" stroke-miterlimit="10" points="460.41,224.239 479.385,224.239 479.385,220.393 	"/>
	
		<line fill="none" stroke="#030302" stroke-width="2" stroke-miterlimit="10" x1="509.414" y1="170.286" x2="562.729" y2="170.286"/>
	
		<line fill="none" stroke="#030302" stroke-width="2" stroke-miterlimit="10" x1="509.414" y1="222.702" x2="566.414" y2="222.702"/>
	<line fill="none" stroke="#030302" stroke-miterlimit="10" x1="553.311" y1="222.702" x2="553.311" y2="207.353"/>
	<line fill="none" stroke="#030302" stroke-miterlimit="10" x1="523.205" y1="222.702" x2="523.205" y2="207.353"/>
	<line fill="none" stroke="#030302" stroke-miterlimit="10" x1="553.311" y1="186.339" x2="553.311" y2="170.99"/>
	<line fill="none" stroke="#030302" stroke-miterlimit="10" x1="523.205" y1="186.339" x2="523.205" y2="170.99"/>
	<line fill="none" stroke="#030302" stroke-miterlimit="10" x1="513.23" y1="261.796" x2="513.23" y2="399.501"/>
	<line fill="none" stroke="#030302" stroke-miterlimit="10" x1="437.846" y1="290.17" x2="437.846" y2="299.624"/>
	<line fill="none" stroke="#030302" stroke-miterlimit="10" x1="437.846" y1="295.778" x2="473.23" y2="295.778"/>
	<polyline fill="#030302" stroke="#030302" stroke-miterlimit="10" points="437.846,313.449 437.846,337.001 402.562,337.001 
		402.562,360.438 473.23,360.438 473.23,336.943 437.846,337.001 	"/>
	<path fill="none" stroke="#030302" stroke-miterlimit="10" d="M361.206,326.338"/>
	<line fill="none" stroke="#030302" stroke-miterlimit="10" x1="87.077" y1="271.419" x2="103.763" y2="271.419"/>
	<line fill="none" stroke="#030302" stroke-miterlimit="10" x1="87.077" y1="273.783" x2="103.763" y2="273.783"/>
	<line fill="none" stroke="#030302" stroke-miterlimit="10" x1="87.077" y1="276.98" x2="103.763" y2="276.98"/>
	<line fill="none" stroke="#030302" stroke-miterlimit="10" x1="87.077" y1="279.925" x2="103.763" y2="279.925"/>
	<line fill="none" stroke="#030302" stroke-miterlimit="10" x1="87.077" y1="282.413" x2="103.763" y2="282.413"/>
	<polyline fill="none" stroke="#030302" stroke-miterlimit="10" points="104.487,323.338 211.691,323.338 211.691,354.709 
		197.354,354.709 	"/>
	<polyline fill="none" stroke="#030302" stroke-miterlimit="10" points="172.204,354.709 183.486,354.709 183.486,323.338 	"/>
	<polyline fill="none" stroke="#030302" stroke-miterlimit="10" points="145.271,354.709 157.589,354.709 157.589,323.338 	"/>
	<polyline fill="none" stroke="#030302" stroke-miterlimit="10" points="117.563,354.709 130.64,354.709 130.64,323.338 	"/>
	<line fill="none" stroke="#030302" stroke-miterlimit="10" x1="81.631" y1="337.001" x2="81.631" y2="321.676"/>
	<line fill="none" stroke="#030302" stroke-miterlimit="10" x1="78.871" y1="338.023" x2="78.871" y2="320.676"/>
	<line fill="none" stroke="#030302" stroke-miterlimit="10" x1="76.186" y1="337.001" x2="76.186" y2="321.676"/>
	<line fill="none" stroke="#030302" stroke-miterlimit="10" x1="72.667" y1="337.001" x2="72.667" y2="321.676"/>
	<line fill="none" stroke="#030302" stroke-miterlimit="10" x1="528.604" y1="399.501" x2="594.407" y2="399.501"/>
	<polyline fill="none" stroke="#030302" stroke-miterlimit="10" points="402.562,360.438 402.562,399.501 411.36,399.501 
		411.36,394.293 424.513,394.293 424.513,398.896 435.282,398.896 	"/>
	<polyline fill="none" stroke="#030302" stroke-miterlimit="10" points="402.562,387.522 460.41,387.522 451,387.522 451,398.501 
		447.846,398.501 	"/>
	<line fill="none" stroke="#030302" stroke-miterlimit="10" x1="473.23" y1="397.896" x2="460.41" y2="397.896"/>
	<line fill="none" stroke="#030302" stroke-miterlimit="10" x1="547.873" y1="399.501" x2="547.873" y2="406.793"/>
	<polyline fill="none" stroke="#030302" stroke-miterlimit="10" points="547.873,452.398 547.873,417.73 606.538,417.73 	"/>
	
		<line fill="none" stroke="#030302" stroke-width="3" stroke-miterlimit="10" x1="609.811" y1="451.398" x2="562.729" y2="451.398"/>
	
		<line fill="none" stroke="#030302" stroke-width="2" stroke-miterlimit="10" x1="566.134" y1="435.064" x2="594.407" y2="435.064"/>
	<line fill="none" stroke="#030302" stroke-miterlimit="10" x1="564.432" y1="468.251" x2="484.462" y2="468.251"/>
	<line fill="none" stroke="#030302" stroke-miterlimit="10" x1="359.333" y1="576.584" x2="359.333" y2="513.043"/>
	<polyline fill="none" stroke="#030302" stroke-miterlimit="10" points="359.333,486.48 359.333,468.251 441.813,468.251 
		402.562,468.251 402.562,412.522 424.513,412.522 	"/>
	<line fill="none" stroke="#030302" stroke-miterlimit="10" x1="437.896" y1="468.251" x2="437.896" y2="412.522"/>
	<path fill="none" stroke="#030302" stroke-miterlimit="10" d="M437.846,426.333h35.385c0,0-0.752-14.562,0-13.811
		s0,55.729,0,55.729h-17.525"/>
	<line fill="none" stroke="#030302" stroke-miterlimit="10" x1="473.564" y1="447.359" x2="437.846" y2="447.359"/>
	<line fill="none" stroke="#030302" stroke-miterlimit="10" x1="455.705" y1="447.359" x2="455.705" y2="426.333"/>
	<line fill="none" stroke="#030302" stroke-miterlimit="10" x1="133.743" y1="518.128" x2="133.743" y2="576.584"/>
	<polyline fill="none" stroke="#030302" stroke-miterlimit="10" points="117.563,518.128 102.461,518.128 102.461,561.48 	"/>
	<rect x="47.833" y="502.743" fill="none" stroke="#030302" stroke-miterlimit="10" width="16.654" height="20.514"/>
	<line fill="none" stroke="#030302" stroke-miterlimit="10" x1="117.563" y1="562.978" x2="117.563" y2="530.032"/>
	<line fill="none" stroke="#030302" stroke-miterlimit="10" x1="102.461" y1="535.001" x2="133.743" y2="535.001"/>
	<line fill="none" stroke="#030302" stroke-miterlimit="10" x1="102.461" y1="538.268" x2="133.743" y2="538.268"/>
	<line fill="none" stroke="#030302" stroke-miterlimit="10" x1="102.461" y1="541.534" x2="133.743" y2="541.534"/>
	<line fill="none" stroke="#030302" stroke-miterlimit="10" x1="102.461" y1="544.815" x2="133.743" y2="544.815"/>
	<line fill="none" stroke="#030302" stroke-miterlimit="10" x1="102.461" y1="548.194" x2="133.743" y2="548.194"/>
	<line fill="none" stroke="#030302" stroke-miterlimit="10" x1="102.461" y1="551.561" x2="133.743" y2="551.561"/>
	<line fill="none" stroke="#030302" stroke-miterlimit="10" x1="102.461" y1="554.715" x2="133.743" y2="554.715"/>
	<line fill="none" stroke="#030302" stroke-miterlimit="10" x1="102.461" y1="557.869" x2="133.743" y2="557.869"/>
	<line fill="none" stroke="#030302" stroke-miterlimit="10" x1="593.966" y1="417.73" x2="593.966" y2="451.398"/>
	<line fill="none" stroke="#030302" stroke-miterlimit="10" x1="591.333" y1="417.73" x2="591.333" y2="451.398"/>
	<line fill="none" stroke="#030302" stroke-miterlimit="10" x1="585.938" y1="417.73" x2="585.938" y2="451.398"/>
	<line fill="none" stroke="#030302" stroke-miterlimit="10" x1="580.796" y1="417.73" x2="580.796" y2="451.398"/>
	<line fill="none" stroke="#030302" stroke-miterlimit="10" x1="575.211" y1="417.73" x2="575.211" y2="451.398"/>
	<line fill="none" stroke="#030302" stroke-miterlimit="10" x1="569.752" y1="417.73" x2="569.752" y2="451.398"/>
	<line fill="none" stroke="#030302" stroke-miterlimit="10" x1="588.627" y1="417.73" x2="588.627" y2="451.398"/>
	<line fill="none" stroke="#030302" stroke-miterlimit="10" x1="583.41" y1="417.73" x2="583.41" y2="451.398"/>
	<line fill="none" stroke="#030302" stroke-miterlimit="10" x1="578.071" y1="417.73" x2="578.071" y2="451.398"/>
	<line fill="none" stroke="#030302" stroke-miterlimit="10" x1="572.425" y1="417.73" x2="572.425" y2="451.398"/>
	<line fill="none" stroke="#030302" stroke-miterlimit="10" x1="567.086" y1="417.73" x2="567.086" y2="451.398"/>
</g>
</svg>
